<svg width="828" height="939" viewBox="0 0 828 939" fill="none" xmlns="http://www.w3.org/2000/svg">
<circle cx="414" cy="414" r="414" fill="#FEFEFE"/>
<path d="M322.262 583.352C330.262 579.752 356.262 567.185 368.262 561.352C432.096 564.185 562.066 569.252 571.266 566.852C582.766 563.852 582.266 564.852 588.766 566.852C595.266 568.852 597.766 573.852 602.266 577.352C606.766 580.852 608.266 577.852 613.266 579.852C618.266 581.852 634.266 590.352 643.766 597.852C653.266 605.352 661.766 605.352 666.766 612.352C671.766 619.352 686.266 625.852 693.266 632.852C698.866 638.452 785.266 706.852 827.766 740.352C824.932 743.518 816.566 756.252 805.766 781.852C792.266 813.852 708.766 911.352 556.766 933.852C404.766 956.352 178.262 891.352 174.262 866.352C170.262 841.352 213.262 688.352 223.762 652.352C234.262 616.352 247.262 608.852 259.262 605.352C271.262 601.852 290.262 594.352 297.762 590.352C305.262 586.352 312.262 587.852 322.262 583.352Z" fill="#001717"/>
<path d="M255.765 248.35C254.565 240.35 255.265 215.35 255.765 203.85C260.765 193.184 271.266 171.052 273.266 167.852C275.766 163.852 316.266 127.35 320.766 124.85C324.366 122.85 384.266 124.017 413.766 124.85L523.266 199.85L587.766 337.35L566.766 404.35C555.766 415.35 533.366 438.65 531.766 443.85C529.766 450.35 525.266 482.85 528.266 499.85C531.266 516.85 536.266 528.85 550.766 544.85C562.366 557.65 574.932 563.85 579.766 565.35C560.599 579.517 514.166 611.45 481.766 625.85C441.266 643.85 400.766 652.85 378.266 650.35C355.766 647.85 348.266 633.35 348.266 621.35C348.266 609.35 349.766 585.85 348.266 565.35C346.766 544.85 335.766 525.85 328.766 519.35C321.766 512.85 299.266 510.85 284.766 508.35C270.266 505.85 262.266 503.85 259.266 494.35C256.266 484.85 257.266 466.85 255.765 455.35C254.265 443.85 251.766 438.85 250.266 432.35C248.766 425.85 246.268 405.35 246.268 392.85C246.268 380.35 244.768 359.35 246.268 355.35C247.468 352.15 251.434 342.017 253.267 337.35C252.767 331.684 252.067 319.55 253.267 316.35C254.467 313.15 259.1 309.684 261.267 308.35V290.35C261.267 285.15 259.933 273.184 259.267 267.85C259.433 268.517 259.667 269.05 259.267 265.85C258.767 261.85 257.265 258.35 255.765 248.35Z" fill="#97E2E3"/>
<path d="M314.767 200.851C297.967 204.451 284.1 208.685 279.267 210.351C265.667 206.351 273.6 167.685 279.267 148.852C304.767 150.852 355.067 155.052 352.267 155.852C349.467 156.652 326.1 167.185 314.767 172.352C330.03 173.129 352.833 174.259 366.014 174.827C368.635 174.69 371.079 174.688 373.267 174.852C379.935 175.352 375.43 175.233 366.014 174.827C349.467 175.689 325.845 181.899 314.767 185.352C318.267 184.686 329.167 182.953 344.767 181.353C364.267 179.353 399.267 187.353 410.267 190.351C421.267 193.35 398.767 192.351 373.267 190.351C347.767 188.351 335.767 196.351 314.767 200.851Z" fill="#8CD7D8"/>
<path d="M355.766 174.852C307.766 172.052 284.432 193.352 278.766 204.352C278.766 186.685 279.266 150.951 281.266 149.351C283.766 147.351 371.266 125.351 407.266 128.351C436.066 130.751 457.266 154.018 464.266 165.351C459.266 162.184 441.966 155.451 412.766 153.851C376.266 151.851 396.266 153.851 363.766 160.351C337.766 165.551 325.266 169.184 322.266 170.351C342.099 170.351 384.666 171.251 396.266 174.852C410.766 179.353 415.766 178.352 355.766 174.852Z" fill="#57A2A3"/>
<path d="M253.266 402.852C251.666 405.252 248.599 401.852 247.266 399.852C258.266 372.852 281.766 386.352 295.266 390.352C306.066 393.552 325.432 408.018 333.766 414.852H313.266C303.099 411.518 282.566 404.452 281.766 402.852C280.766 400.852 255.266 399.852 253.266 402.852Z" fill="#A5F0F1"/>
<path d="M250.266 413.353C250.266 410.953 248.932 412.353 248.266 413.353C246.266 421.853 255.266 449.352 256.266 456.852C257.266 464.352 256.766 481.852 258.766 493.852C260.766 505.852 281.266 468.852 282.766 456.852C284.266 444.852 268.766 431.852 267.766 430.352C266.766 428.852 250.266 416.353 250.266 413.353Z" fill="#8CD7D8"/>
<path d="M320.768 423.35C325.168 421.35 333.601 422.517 337.268 423.35C338.771 423.657 343.766 432.352 345.266 435.352C346.766 438.352 343.766 455.352 335.766 458.352C327.766 461.352 320.768 451.852 316.768 445.352C312.768 438.852 315.268 425.85 320.768 423.35Z" fill="#8CD7D8"/>
<path d="M349.262 438.352C345.262 436.752 340.595 429.352 338.762 425.852C333.562 409.852 343.595 408.852 349.262 410.352C350.095 410.852 352.362 413.652 354.762 420.852C357.762 429.852 361.762 432.852 365.262 438.352C368.762 443.852 354.262 440.352 349.262 438.352Z" fill="#57A2A3"/>
<path d="M289.266 476.852C283.666 475.652 278.932 468.019 277.266 464.352C277.266 458.352 278.766 455.352 282.766 451.852C286.766 448.352 302.266 453.852 310.266 458.352C318.266 462.852 321.766 478.352 315.266 476.852C308.766 475.352 296.266 478.352 289.266 476.852Z" fill="#8CD7D8"/>
<path d="M271.766 260.353C275.366 261.153 278.932 269.02 280.266 272.853C278.766 277.855 276.766 286.352 273.266 291.852C269.766 297.352 261.766 302.352 262.266 298.852C262.766 295.352 260.266 275.353 260.266 272.853C260.266 270.353 267.266 259.353 271.766 260.353Z" fill="#0C5758"/>
<path d="M505.266 429.851C500.866 427.051 498.099 424.351 497.266 423.351C496.433 422.351 494.366 420.751 492.766 422.351C490.765 424.351 491.266 432.351 489.266 440.351C487.266 448.351 492.266 443.351 494.766 440.351C497.266 437.351 503.266 435.351 519.266 434.851C535.266 434.351 541.266 425.351 535.766 428.351C530.266 431.351 510.766 433.351 505.266 429.851Z" fill="#57A2A3"/>
<path d="M327.766 270.351C328.566 273.951 335.099 275.518 338.266 275.851C340.766 277.684 344.866 281.952 341.266 284.352C336.766 287.352 330.766 292.352 332.766 297.352C334.766 302.352 357.766 319.352 363.766 322.352C369.766 325.352 376.266 322.352 367.766 313.352C359.266 304.352 354.266 298.352 360.266 300.852C366.266 303.352 379.266 306.352 385.766 304.852C392.266 303.352 391.766 299.352 385.766 295.352C380.966 292.152 370.099 286.685 365.266 284.352L349.266 275.851C349.766 271.518 352.966 261.652 361.766 256.852C372.766 250.852 385.766 254.852 388.766 256.852C391.766 258.852 391.266 253.851 376.766 247.851C362.266 241.851 343.766 244.351 336.766 249.351C329.766 254.351 326.766 265.851 327.766 270.351Z" fill="#57A2A3"/>
<path d="M378.267 255.854C385.467 256.254 393.267 261.354 396.267 263.854C397.768 263.854 391.767 255.854 380.767 253.353C369.767 250.851 366.767 251.853 356.764 257.854C346.762 263.856 346.764 281.353 349.264 284.353C351.264 286.753 359.433 285.353 363.267 284.353L360.267 281.353C359.1 278.353 358.067 271.153 363.267 266.353C369.767 260.353 370.267 263.854 376.767 263.854C383.267 263.854 385.767 266.853 391.767 272.353C396.567 276.753 396.767 275.853 396.267 274.853C393.6 271.187 386.767 263.254 380.767 260.853C374.767 258.451 368.933 257.853 366.767 257.854C367.6 257.021 371.067 255.454 378.267 255.854Z" fill="#0C5758"/>
<path d="M499.266 425.85C500.466 428.65 499.766 432.017 499.266 433.35C495.766 439.349 490.766 437.352 490.766 434.852C490.766 432.352 490.766 425.85 492.766 422.85C494.766 419.85 497.766 422.35 499.266 425.85Z" fill="#0C5758"/>
<path d="M364.268 593.85C361.068 583.45 352.934 571.184 349.268 566.35C343.669 537.149 333.267 522.851 328.766 519.352C319.766 510.852 284.268 508.352 269.768 505.352C255.268 502.352 257.268 485.852 259.268 480.852C261.268 475.852 268.768 464.852 273.268 471.35C277.768 477.849 324.768 500.352 376.268 499.852C427.768 499.352 455.768 474.85 458.768 471.35C461.768 467.85 473.768 461.85 475.268 471.35C476.768 480.85 456.268 503.85 450.768 522.35C445.268 540.85 447.768 550.85 430.268 560.85C412.768 570.85 395.768 576.85 388.268 589.85C380.768 602.85 368.268 606.85 364.268 593.85Z" fill="#8CD7D8"/>
<path d="M371.765 573.351C370.565 569.751 361.931 568.517 357.765 568.351C352.765 567.817 360.265 578.851 364.765 579.851C369.265 580.851 373.265 577.851 371.765 573.351Z" fill="#57A2A3"/>
<path d="M545.766 372.352C545.766 367.552 539.766 361.018 536.766 358.352C533.166 358.352 528.932 369.352 527.266 374.852C527.932 376.018 528.866 379.752 527.266 385.352C525.266 392.352 519.766 390.852 518.266 393.352C516.766 395.852 515.266 396.352 514.266 400.852C513.266 405.352 517.266 404.352 527.266 400.852C530.766 399.852 529.766 402.352 533.266 404.352C536.766 406.352 536.766 403.352 541.266 396.352C545.766 389.352 545.766 378.352 545.766 372.352Z" fill="#57A2A3"/>
<path d="M542.266 382.352C538.666 390.352 532.766 375.352 530.266 366.852C531.099 365.185 533.266 361.252 535.266 358.852C537.766 355.852 539.766 359.352 543.266 365.352C546.766 371.352 546.766 372.352 542.266 382.352Z" fill="#0C5758"/>
<path d="M518.763 411.852C513.563 411.852 509.929 407.518 508.763 405.352C508.763 404.185 508.363 401.852 506.763 401.852C504.763 401.852 494.263 411.852 492.763 418.852C491.263 425.852 497.763 418.852 498.763 415.352C499.763 411.852 503.763 407.352 506.763 411.852C509.763 416.352 520.763 420.352 523.763 418.852C526.763 417.352 525.263 411.852 518.763 411.852Z" fill="#57A2A3"/>
<path d="M543.765 405.853C539.765 407.053 534.099 410.353 531.765 411.853C527.765 415.855 539.265 413.352 542.265 411.853C545.265 410.355 551.265 405.853 552.765 404.352C554.265 402.85 555.265 402.352 556.765 398.353C558.265 394.355 561.265 393.352 562.265 389.852C563.265 386.352 567.265 374.853 566.765 370.853C566.265 366.853 561.765 368.853 561.265 379.353C560.765 389.853 557.765 392.853 555.265 398.353C552.765 403.853 548.765 404.353 543.765 405.853Z" fill="#57A2A3"/>
<path d="M351.766 314.351C342.166 307.951 325.099 291.351 317.766 283.851C315.266 281.322 314.766 290.851 314.766 299.851C314.766 308.851 322.766 320.851 336.266 326.851C349.72 332.831 358.704 329.375 365.199 326.877L365.266 326.851C371.766 324.351 363.766 322.351 351.766 314.351Z" fill="#A5F0F1"/>
<path d="M325.263 298.851C325.663 304.051 320.097 302.351 317.263 300.851C312.763 299.367 314.763 289.851 314.763 286.351C314.763 282.851 317.263 282.851 319.763 284.351C322.263 285.851 324.763 292.351 325.263 298.851Z" fill="#B2FDFE"/>
<path d="M459.766 497.352C471.766 488.552 475.099 475.352 475.266 469.852C473.266 459.351 451.766 473.353 435.266 482.853C418.766 492.353 371.266 499.353 331.266 492.853C291.266 486.353 285.266 472.852 274.266 469.852C263.266 466.852 258.266 475.352 257.266 484.852C256.266 494.352 264.266 501.852 266.266 503.852C268.266 505.852 308.766 512.352 320.266 514.852C331.766 517.352 336.266 529.852 338.766 534.352C341.266 538.852 351.766 528.852 373.266 527.852C394.766 526.852 444.766 508.352 459.766 497.352Z" fill="#57A2A3"/>
<path d="M250.769 387.853C254.369 381.853 264.936 369.353 269.769 363.853C270.773 361.353 281.266 360.353 286.266 361.853C291.266 363.353 292.766 366.353 295.266 368.353C297.766 370.353 314.266 375.353 322.266 380.853C330.266 386.353 346.266 400.853 348.766 406.353C351.266 411.853 352.766 421.853 346.266 423.353C341.066 424.553 338.099 419.52 337.266 416.853C334.432 416.187 326.366 413.153 316.766 406.353C304.766 397.853 284.766 389.853 281.266 389.853C277.766 389.853 279.266 392.353 273.266 392.853C267.266 393.353 263.266 387.853 259.266 387.853C256.066 387.853 250.268 395.187 247.769 398.853C247.269 397.687 247.169 393.853 250.769 387.853Z" fill="#8CD7D8"/>
<path d="M265.767 389.852C260.567 389.452 259.601 383.352 259.767 380.352C261.769 372.852 268.766 364.852 274.766 361.852C280.766 358.852 290.766 361.852 291.766 364.852C292.766 367.852 287.266 373.352 280.766 377.352C274.266 381.352 272.267 390.352 265.767 389.852Z" fill="#57A2A3"/>
<path d="M255.766 365.352C254.566 371.352 252.932 375.852 252.266 377.352V386.352C259.266 378.185 272.666 361.652 270.266 360.852C267.266 359.852 263.266 356.352 261.266 354.352C259.266 352.352 257.266 357.852 255.766 365.352Z" fill="#8CD7D8"/>
<path d="M436.262 289.351C442.662 286.151 461.929 290.684 470.762 293.351C497.759 306.35 505.766 322.352 504.266 342.352C502.766 362.352 480.266 431.852 473.766 446.852C467.266 461.852 460.766 464.352 412.266 457.852C363.766 451.352 356.262 427.352 351.266 412.352C346.269 397.352 320.765 380.352 314.265 375.852C307.765 371.352 291.265 369.352 296.265 366.852C301.265 364.352 307.765 364.352 314.265 364.352C320.765 364.352 322.265 355.852 324.265 353.852C326.265 351.852 327.765 349.852 334.765 355.852C341.765 361.852 369.265 369.852 369.265 364.352C369.265 358.852 356.262 348.352 348.262 342.352C340.262 336.352 345.262 337.852 356.262 336.852C367.262 335.852 384.262 323.852 397.262 315.352C410.262 306.852 416.262 315.352 419.762 310.852C423.262 306.352 428.262 293.351 436.262 289.351Z" fill="#B2FDFE"/>
<path d="M261.263 433.353C259.263 426.853 263.263 428.853 272.263 428.353C276.759 428.263 296.266 424.853 304.266 428.353C312.266 431.853 308.766 433.353 302.266 436.853C295.766 440.353 292.266 442.853 287.266 445.853C282.266 448.853 279.266 451.853 274.766 449.853C270.266 447.853 263.263 439.853 261.263 433.353Z" fill="#57A2A3"/>
<path d="M254.266 423.852C251.066 420.252 249.932 414.352 249.766 411.852L267.766 407.352C288.932 410.685 331.766 417.352 333.766 417.352C335.766 417.352 335.932 418.352 335.766 418.852C334.266 419.018 329.766 419.552 323.766 420.352C316.266 421.352 295.766 429.352 285.266 429.352C274.766 429.352 273.766 429.852 269.266 429.352C264.766 428.852 258.266 428.352 254.266 423.852Z" fill="#B2FDFE"/>
<path d="M252.266 336.851C253.066 343.251 260.599 353.517 264.266 357.851C270.766 362.35 282.266 360.852 295.766 362.352C309.266 363.852 309.266 352.352 305.766 346.852C302.266 341.352 293.266 334.352 285.766 328.352C278.266 322.352 268.266 323.351 264.266 320.851C260.266 318.351 257.266 311.351 254.766 313.351C252.266 315.351 251.266 328.851 252.266 336.851Z" fill="#8CD7D8"/>
<path d="M291.266 353.351C290.066 352.151 286.1 349.518 284.266 348.351H275.766C270.766 348.351 268.766 346.351 270.766 344.351C272.766 342.351 281.266 337.851 287.266 339.351C293.266 340.851 298.266 344.851 302.766 350.351C307.266 355.851 292.766 354.851 291.266 353.351Z" fill="#0C5758"/>
<path d="M257.266 398.35C254.866 398.75 250.932 407.516 249.266 411.85H273.766C280.766 411.85 300.266 413.352 307.766 415.352C313.766 416.952 328.599 417.352 335.266 417.352C336.432 416.685 338.066 415.352 335.266 415.352C331.766 415.352 331.766 415.852 325.266 415.352C318.766 414.852 288.766 398.35 286.266 398.35H277.266C275.766 398.35 271.266 401.35 268.766 401.35C266.266 401.35 260.266 397.85 257.266 398.35Z" fill="#57A2A3"/>
<path d="M256.767 313.35C253.167 318.55 261.934 323.85 266.767 325.85C272.769 325.85 275.266 325.85 281.266 329.352C287.266 332.853 302.266 345.852 306.766 348.352C311.266 350.852 317.766 351.852 317.266 344.352C316.766 336.852 312.766 321.352 309.766 306.352C306.766 291.352 306.766 283.35 306.766 278.85C306.766 274.35 300.766 271.85 295.766 273.35C290.766 274.85 284.766 280.85 281.266 284.85C277.766 288.85 261.267 306.85 256.767 313.35Z" fill="#B2FDFE"/>
<path d="M383.767 265.852C390.767 269.352 398.767 281.352 400.267 282.852C400.267 284.852 396.266 285.352 389.266 285.352C382.266 285.352 368.266 285.852 366.266 285.352C364.266 284.852 362.267 282.852 361.767 276.352C361.367 271.152 368.267 264.852 371.767 262.352C373.433 262.352 378.167 263.052 383.767 265.852Z" fill="#FEFEFE"/>
<path d="M360.263 281.352C358.663 276.952 359.597 271.519 360.263 269.352C362.764 263.852 370.763 260.852 372.763 263.352C374.763 265.852 374.763 269.352 372.763 274.852C370.763 280.352 362.263 286.852 360.263 281.352Z" fill="#001717"/>
<path d="M276.763 277.852C275.563 283.452 273.929 285.185 273.263 285.352C267.263 286.852 269.763 273.352 273.263 271.852C276.763 270.352 278.263 270.852 276.763 277.852Z" fill="#001717"/>
<path d="M464.171 286.606C474.571 291.406 483.505 288.606 486.671 286.606C532.271 215.407 492.672 170.94 467.172 157.606C451.672 154.773 417.372 150.806 404.172 157.606C387.672 166.106 406.172 183.606 416.672 195.106C427.172 206.606 415.672 207.106 418.172 225.106C420.672 243.106 405.671 218.106 398.171 229.106C390.671 240.106 409.171 242.606 423.671 255.606C438.171 268.606 451.171 280.606 464.171 286.606Z" fill="#8CD7D8"/>
<path d="M383.17 208.105C361.97 200.105 346.67 202.772 341.67 205.105C336.17 190.606 365.67 188.104 388.67 196.104C411.67 204.104 424.17 232.604 421.17 231.104C418.17 229.604 409.67 218.105 383.17 208.105Z" fill="#A5F0F1"/>
<path d="M398.172 314.105C393.372 316.505 374.839 325.439 366.172 329.605C401.172 302.105 396.672 290.105 398.172 277.605C399.372 267.605 397.672 259.772 396.672 257.105C408.339 261.772 432.072 272.905 433.672 280.105C435.672 289.105 426.672 305.605 421.672 311.605C416.672 317.605 404.172 311.105 398.172 314.105Z" fill="#57A2A3"/>
<path d="M422.672 301.605C419.072 299.205 409.839 292.938 405.672 290.105C396.172 278.605 397.672 270.105 397.672 266.105V263.105C400.339 263.938 406.672 266.105 410.672 268.105C415.672 270.605 422.672 285.105 426.172 292.605C429.672 300.105 427.172 304.605 422.672 301.605Z" fill="#0C5758"/>
<path d="M507.673 417.607C502.873 415.607 502.339 419.44 502.673 421.607C501.175 430.609 510.671 432.105 519.171 432.105C527.671 432.105 534.671 425.105 526.671 424.105C518.671 423.105 513.673 420.107 507.673 417.607Z" fill="#B2FDFE"/>
<path d="M489.168 467.107C475.168 478.307 463.668 499.773 459.668 509.107C450.668 531.608 450.668 589.105 420.668 625.605C390.668 662.105 426.168 646.105 468.668 632.605C502.668 621.805 550.835 589.772 570.668 575.105C563.502 571.439 547.268 560.705 539.668 547.105C530.168 530.105 524.668 509.107 520.168 491.107C515.668 473.107 506.668 453.107 489.168 467.107Z" fill="#A5F0F1"/>
<path d="M559.667 382.105C558.867 376.905 548.667 364.939 543.667 359.605C534.664 359.605 551.67 371.105 552.67 379.105C553.67 387.105 552.667 386.105 548.667 392.105C544.667 398.105 539.167 410.105 543.667 408.105C548.167 406.105 553.667 404.605 556.167 400.605C558.667 396.605 560.667 388.605 559.667 382.105Z" fill="#B2FDFE"/>
<path d="M543.762 174.35L547.262 182.35C552.43 182.35 564.066 183.051 569.266 185.852C575.766 189.353 581.266 199.352 584.766 204.352C588.266 209.352 588.266 209.352 595.766 214.852C603.266 220.352 603.766 219.352 605.766 227.852C607.766 236.352 620.266 267.852 620.266 276.852C620.266 285.852 614.766 302.352 610.266 315.852C605.766 329.352 605.766 335.352 601.266 342.352C596.766 349.352 597.266 352.852 595.766 357.352C594.266 361.852 589.766 372.852 588.266 376.352C586.766 379.852 581.766 384.352 579.266 389.352C576.766 394.352 572.766 404.352 569.266 406.352C565.766 408.352 564.766 413.852 562.766 417.352C560.766 420.852 552.766 428.852 549.266 434.352C545.766 439.852 539.766 445.352 536.266 448.352C533.466 450.752 530.099 457.685 528.766 460.852L533.266 428.852C535.432 427.185 542.766 421.852 554.766 413.852C569.766 403.852 569.766 371.852 571.266 363.352C572.766 354.852 575.266 348.852 572.766 340.352C570.266 331.852 560.766 328.852 554.766 331.852C549.966 334.252 549.099 341.518 549.266 344.852C546.599 340.518 540.966 332.552 539.766 335.352C538.266 338.852 528.766 348.852 531.262 344.852C533.259 341.652 532.094 339.185 531.262 338.352C530.097 338.352 526.666 338.752 522.266 340.352C516.766 342.352 504.766 355.852 502.266 357.352C500.266 358.552 494.43 365.185 491.762 368.352V360.852H486.266L486.766 355.852C484.099 357.352 479.165 359.752 480.762 357.352C482.359 354.952 482.43 350.685 482.266 348.852H477.266C479.432 344.852 484.266 332.652 486.266 315.852C488.266 299.052 481.099 287.518 477.266 283.852C476.266 288.185 474.266 294.852 474.266 286.852C474.266 278.852 470.599 270.852 468.766 267.852C467.932 275.352 466.266 288.752 466.266 282.352C466.266 274.352 462.266 252.852 462.266 257.852C462.266 261.852 460.266 270.852 459.266 274.852L462.266 224.352C461.266 223.685 458.266 223.752 454.266 229.352C450.266 234.952 445.597 253.685 443.762 262.352V255.852C443.762 247.852 447.098 233.852 448.766 227.852C449.432 227.518 449.365 227.052 443.762 227.852C438.159 228.652 423.761 224.518 417.262 222.352C422.097 223.852 433.165 226.352 438.762 224.352C444.359 222.352 461.097 204.852 468.766 196.352L424.266 212.352C421.931 213.852 419.362 215.352 427.762 209.352C436.162 203.352 456.931 189.852 466.266 183.852C467.432 183.351 467.366 182.651 457.766 183.852C445.766 185.353 390.266 182.35 417.262 182.35C438.859 182.35 464.263 177.017 474.266 174.35H434.266L459.266 171.352V164.352C455.766 165.684 446.366 168.951 436.766 171.352C427.166 173.753 410.097 176.019 402.762 176.852C400.597 177.185 399.866 177.151 414.266 174.35C428.666 171.549 447.932 166.517 455.766 164.352C447.432 155.352 422.666 137.652 390.266 138.852C349.766 140.352 317.266 158.852 304.766 168.35C292.266 177.849 288.266 193.852 281.766 207.852C276.566 219.052 265.599 240.852 260.766 250.352C259.932 245.185 257.966 232.352 256.766 222.352C255.566 212.352 252.932 213.185 251.766 214.852C250.266 213.018 247.266 211.952 247.266 222.352C247.266 235.352 258.266 244.852 254.266 243.352C250.266 241.852 239.266 221.352 239.266 209.352C239.266 197.352 246.266 185.852 247.266 168.35C248.266 150.849 253.266 145.852 250.266 149.352C247.266 152.852 244.266 163.352 244.266 156.852C244.266 150.352 245.766 147.352 263.766 124.852C281.766 102.352 302.766 99.8516 312.766 99.8516C322.766 99.8516 333.766 95.8516 346.266 95.8516H360.262C361.714 94.91 363.773 93.7468 366.324 92.5185C361.2 91.3312 356.458 90.2144 354.492 89.9243C353.405 89.8516 353.188 89.8516 353.762 89.8516C353.924 89.8516 354.171 89.8769 354.492 89.9243C356.409 90.0525 361.029 90.4065 368.783 91.3846C377.142 87.6941 389.455 83.8516 402.762 83.8516C421.962 83.8516 434.762 87.8516 438.762 89.8516C441.429 90.6849 442.962 90.6516 427.762 83.8516C412.562 77.0516 386.429 79.3508 375.262 81.3504C382.762 79.017 401.662 74.7504 417.262 76.3504C436.762 78.3504 462.262 95.3504 491.762 121.85C521.262 148.35 527.262 165.35 531.262 168.35C534.462 170.75 540.929 173.35 543.762 174.35Z" fill="#001717"/>
<path d="M356.266 203.351C341.466 202.951 329.432 213.518 325.266 218.851C325.932 223.351 329.066 231.552 336.266 228.352C345.266 224.352 361.766 218.851 367.766 218.851C373.766 218.851 387.266 226.852 393.266 229.852C399.266 232.852 410.266 231.852 415.766 234.352C420.166 236.352 426.599 242.518 429.266 245.352C426.599 239.852 419.066 227.252 410.266 220.852C399.266 212.852 374.766 203.851 356.266 203.351Z" fill="#001717"/>
<path d="M284.266 210.852C289.866 214.052 288.932 227.852 287.766 234.352C286.599 234.352 283.266 233.752 279.266 231.352C275.266 228.952 269.599 232.352 267.266 234.352L259.766 226.852L273.266 210.852C274.599 209.518 278.666 207.652 284.266 210.852Z" fill="#001717"/>
<path d="M320.766 249.352C330.766 238.352 365.266 231.352 379.766 237.852C391.366 243.052 398.599 253.686 400.766 258.353C402.932 258.019 408.366 257.553 412.766 258.353C418.268 259.354 490.766 291.853 492.766 292.853V299.352C466.099 288.185 412.365 265.852 410.766 265.852H401.766C401.932 266.352 402.166 268.252 401.766 271.852C401.266 276.352 399.766 295.852 393.266 307.352C386.766 318.852 373.266 334.852 353.766 334.852C334.266 334.851 324.766 325.852 319.766 319.852C314.766 313.852 311.265 301.852 309.766 295.852C308.566 291.052 308.266 279.852 308.266 274.852C306.765 274.018 302.365 272.452 296.766 272.852C291.166 273.252 287.763 276.685 286.762 278.352V288.852C286.762 303.352 278.766 322.352 268.266 331.852C266.981 333.014 265.417 333.965 263.65 334.706C263.863 334.579 264.039 334.464 264.173 334.363C266.174 332.863 292.678 314.865 283.676 271.365C282.009 266.365 275.375 255.965 262.176 254.365C245.676 252.365 237.176 258.365 232.676 261.365C228.176 264.366 219.176 276.863 217.676 283.863C216.176 290.863 217.176 307.363 220.676 315.363C224.141 323.284 228.094 327.772 239.334 334.169C231.37 331.226 224.165 325.647 220.762 317.352C212.762 297.852 217.762 279.852 217.762 277.352C217.762 274.852 225.262 259.352 237.762 253.852C250.262 248.352 263.762 247.852 272.762 253.852C279.962 258.651 285.095 264.851 286.762 267.352C288.762 266.852 293.862 265.852 298.262 265.852C302.662 265.852 308.765 266.852 311.266 267.352C311.099 265.018 312.766 258.152 320.766 249.352ZM358.177 241.864C338.177 241.464 327.177 250.364 324.177 254.864C321.18 258.189 315.677 267.863 313.677 273.363C311.677 278.864 309.177 305.863 319.177 317.363C329.177 328.863 343.177 333.863 354.177 332.363C365.177 330.863 376.177 326.863 389.177 307.363C402.176 287.864 397.677 266.864 396.677 259.863C395.677 252.863 383.176 242.364 358.177 241.864Z" fill="#001717"/>
</svg>
