<svg width="67" height="66" viewBox="0 0 67 66" fill="none" xmlns="http://www.w3.org/2000/svg">
<g clip-path="url(#clip0_152_33561)">
<path d="M44.6638 15.5132L40.537 20.9879L30.5234 14.7832L34.5896 9.30859L44.6638 15.5132Z" fill="#727279"/>
<path d="M50.7305 20.6211L46.6644 26.0349L32.2812 28.3464L36.4081 22.9326L50.7305 20.6211Z" fill="#727279"/>
<path d="M32.5293 20.4981L28.4025 25.9727L23.3047 11.617L27.4315 6.20312L32.5293 20.4981Z" fill="#727279"/>
<mask id="mask0_152_33561" style="mask-type:luminance" maskUnits="userSpaceOnUse" x="28" y="20" width="9" height="9">
<path d="M36.4093 22.9332L32.2825 28.4078C30.7046 28.6512 28.9446 27.617 28.3984 25.9747L32.5252 20.5C33.0714 22.0816 34.8314 23.1765 36.4093 22.9332Z" fill="white"/>
</mask>
<g mask="url(#mask0_152_33561)">
<path d="M36.4093 22.9332L32.2825 28.4078C30.7046 28.6512 28.9446 27.617 28.3984 25.9747L32.5252 20.5C33.0714 22.0816 34.8314 23.1765 36.4093 22.9332Z" fill="#727279"/>
</g>
<path d="M27.4248 6.20312L23.298 11.617L6.0625 14.4151L10.1893 8.94045L27.4248 6.20312Z" fill="#727279"/>
<path d="M60.9258 49.211L56.8597 54.6856L46.6641 26.0349L50.7302 20.6211L60.9258 49.211Z" fill="#727279"/>
<mask id="mask1_152_33561" style="mask-type:luminance" maskUnits="userSpaceOnUse" x="-1" y="5" width="7" height="11">
<path d="M0.906996 10.5254L5.03381 5.05078C4.06279 6.3282 3.82004 8.09226 4.42692 9.85631L0.300112 15.331C-0.306772 13.5061 -0.00333005 11.742 0.906996 10.5254Z" fill="white"/>
</mask>
<g mask="url(#mask1_152_33561)">
<path d="M4.42978 9.85631L0.30297 15.331C-0.364602 13.5061 -0.0611602 11.742 0.909854 10.5254L5.03667 5.05078C4.06565 6.3282 3.8229 8.03143 4.42978 9.85631Z" fill="#727279"/>
</g>
<mask id="mask2_152_33561" style="mask-type:luminance" maskUnits="userSpaceOnUse" x="58" y="53" width="9" height="8">
<path d="M66.0891 53.1641L61.9623 58.6387C61.234 59.5512 60.2023 60.2203 58.8672 60.4636L62.994 54.9889C64.3291 54.7456 65.4215 54.0765 66.0891 53.1641Z" fill="white"/>
</mask>
<g mask="url(#mask2_152_33561)">
<path d="M66.0891 53.1641L61.9623 58.6387C61.234 59.5512 60.2023 60.2203 58.8672 60.4636L62.994 54.9889C64.3291 54.7456 65.4215 54.0765 66.0891 53.1641Z" fill="#727279"/>
</g>
<path d="M62.9885 54.9883L58.8616 60.4021L24.3906 65.9376L28.5174 60.4629L62.9885 54.9883Z" fill="#727279"/>
<path d="M20.7507 55.6601L16.6239 61.1347L0.359375 15.3301L4.4255 9.85547L20.7507 55.6601Z" fill="#727279"/>
<path d="M55.4018 16.6673C55.4018 16.7281 55.4625 16.7889 55.5232 16.8498L66.7505 48.3594C67.8429 51.5226 66.2043 54.5032 63.0485 54.9899L28.5168 60.4645C25.361 60.9511 21.8411 58.8221 20.7487 55.659L4.42352 9.85438C3.33113 6.69124 4.96971 3.7106 8.1862 3.22396L28.2741 0C28.3347 0 28.3954 0 28.4561 0C28.6989 0 29.0023 0 29.2451 0C29.3665 0 29.4271 0 29.5485 0.0608295C29.9126 0.121659 30.2768 0.304147 30.5802 0.486636L53.8846 14.9032C54.2487 15.0857 54.4914 15.3899 54.7342 15.6332C54.7949 15.694 54.8556 15.8157 54.9163 15.8765C55.159 16.1806 55.2804 16.424 55.4018 16.6673ZM26.4534 54.7465L60.9244 49.2111L50.7288 20.6212L36.4063 22.9327C34.8284 23.176 33.0684 22.1419 32.5222 20.4995L27.4244 6.20461L10.1889 8.94193L26.4534 54.7465ZM34.5857 9.30691L37.1953 16.7281L44.5992 15.5115L34.5857 9.30691Z" fill="#E8E7E0"/>
<mask id="mask3_152_33561" style="mask-type:luminance" maskUnits="userSpaceOnUse" x="16" y="55" width="13" height="12">
<path d="M28.5199 60.4657L24.3931 65.9403C21.2373 66.427 17.7174 64.2979 16.625 61.1348L20.7518 55.6602C21.8442 58.8233 25.3641 61.0132 28.5199 60.4657Z" fill="white"/>
</mask>
<g mask="url(#mask3_152_33561)">
<path d="M28.5199 60.4657L24.3931 65.9403C21.2373 66.427 17.7174 64.2979 16.625 61.1348L20.7518 55.6602C21.8442 58.8233 25.3641 61.0132 28.5199 60.4657Z" fill="#727279"/>
</g>
<path d="M26.7612 24.6953L22.6951 30.1091L16.9297 31.0216L21.0565 25.6078L26.7612 24.6953Z" fill="#727279"/>
<path d="M21.0574 25.6086L16.9306 31.0224L14.8672 25.3044L18.994 19.8906L21.0574 25.6086Z" fill="#727279"/>
<path d="M24.7576 18.918L26.7603 24.6968L21.0556 25.6092L18.9922 19.8912L24.7576 18.918Z" fill="#E8E7E0"/>
<path d="M48.0592 33.3359L43.9324 38.8106L20.9922 42.5212L25.119 37.0465L48.0592 33.3359Z" fill="#727279"/>
<path d="M25.1199 37.0461L20.9931 42.5208L18.9297 36.8028L23.0565 31.3281L25.1199 37.0461Z" fill="#727279"/>
<path d="M23.0547 31.3278L46.0556 27.6172L48.0583 33.3352L25.1181 37.0458L23.0547 31.3278Z" fill="#E8E7E0"/>
<path d="M29.192 48.4797L25.0652 53.9543L23.0625 48.2364L27.1286 42.7617L29.192 48.4797Z" fill="#727279"/>
<path d="M52.1295 44.832L48.0027 50.2459L25.0625 53.9565L29.1893 48.4818L52.1295 44.832Z" fill="#727279"/>
<path d="M29.1884 48.481L27.125 42.7631L50.1259 39.1133L52.1286 44.8313L29.1884 48.481Z" fill="#E8E7E0"/>
</g>
<defs>
<clipPath id="clip0_152_33561">
<rect width="67" height="66" fill="white"/>
</clipPath>
</defs>
</svg>
