<svg id="Layer_1" data-name="Layer 1" xmlns="http://www.w3.org/2000/svg" xmlns:xlink="http://www.w3.org/1999/xlink" viewBox="0 0 34.21 35.03"><defs><clipPath id="clip-path"><path d="M32.12,21.81l-6.77,9a10.79,10.79,0,0,1-7,4.08C11.16,36,3.32,31.17.79,24.07a11.41,11.41,0,0,1,1.3-10.86l6.76-9A11.41,11.41,0,0,0,7.56,15.1C10.09,22.2,17.93,27,25.06,25.89A10.77,10.77,0,0,0,32.12,21.81Z" style="fill:none"/></clipPath></defs><g style="isolation:isolate"><g style="isolation:isolate"><g style="clip-path:url(#clip-path)"><g style="isolation:isolate"><path d="M32.12,21.81l-6.77,9a10.79,10.79,0,0,1-7,4.08C11.16,36,3.32,31.17.79,24.07a11.41,11.41,0,0,1,1.3-10.86l6.76-9A11.41,11.41,0,0,0,7.56,15.1C10.09,22.2,17.93,27,25.06,25.89a10.77,10.77,0,0,0,7.06-4.08" style="fill:#6b6a66"/></g></g></g><path d="M15.9.17C23-1,30.88,3.86,33.41,11s-1.2,13.78-8.35,14.92-15-3.69-17.5-10.79S8.76,1.31,15.9.17Z" style="fill:#cccac3"/></g></svg>