<svg width="30" height="32" viewBox="0 0 30 32" fill="none" xmlns="http://www.w3.org/2000/svg">
<path d="M14.7139 0.5H14.7529C19.985 0.500008 22.2293 0.821413 22.8018 0.90625C26.1559 1.40266 28.9444 3.95493 29.3809 7.13281V7.13379C29.6291 9.65578 29.4127 13.7411 29.4111 14.4766V14.4775C29.4111 14.6793 29.3818 16.4896 29.3711 16.6729C29.2223 19.0225 28.4222 20.6136 27.3164 21.6924C26.2019 22.7795 24.7345 23.3874 23.1885 23.6846L23.1641 23.6895L23.1387 23.6963L23.1377 23.6973C23.1364 23.6976 23.1343 23.6977 23.1318 23.6982C23.1268 23.6994 23.1203 23.7013 23.1113 23.7031C23.1023 23.705 23.0924 23.7066 23.0801 23.709L23.04 23.7168C21.5442 24.0091 19.9622 24.1414 18.3916 24.2139L16.8281 24.2705C16.3407 24.2834 15.8536 24.2832 15.3574 24.2832C13.3367 24.2837 11.3227 24.0446 9.3584 23.5703H9.35742C9.27451 23.5502 9.18621 23.5481 9.09961 23.5674C9.01265 23.5867 8.9317 23.6259 8.86328 23.6816L8.8623 23.6826C8.79363 23.7388 8.73858 23.811 8.70215 23.8936V23.8945C8.67557 23.955 8.65871 24.0196 8.6543 24.0859V24.1621L8.65527 24.1709C8.71569 24.8669 8.86659 25.5522 9.10449 26.209L9.10938 26.2197C9.27226 26.6379 9.6347 27.3365 10.4639 27.9258C11.2929 28.5149 12.5433 28.9629 14.4258 28.9629V28.9619C16.3784 28.9654 18.3245 28.7555 20.2314 28.3398V29.9844C19.6634 30.3406 18.9276 30.5709 18.2061 30.8008C17.8774 30.9041 17.545 30.9949 17.209 31.0732C14.1216 31.777 10.8996 31.6076 7.90332 30.583H7.9043C5.20928 29.6363 2.52198 27.3727 1.74414 24.7197L1.6748 24.4609C1.29252 22.8701 1.0226 21.2539 0.868164 19.625C0.643228 17.1545 0.625482 14.6907 0.527344 12.1719V12.1709L0.507812 11.5186C0.475138 9.98502 0.54509 8.38683 0.855469 6.94043L0.854492 6.93945C1.56715 3.70375 4.51854 1.39255 7.80371 0.90625H7.80469C8.13507 0.857259 8.52534 0.761036 9.52051 0.670898C10.5144 0.58089 12.0949 0.5 14.7139 0.5ZM19.9766 4.59082C18.0984 4.59092 16.6251 5.32732 15.6514 6.81348L15.6396 6.83105L15.2266 7.52344L14.8145 6.83203L14.8096 6.82227L14.8037 6.81348L14.6152 6.54395C13.644 5.23793 12.2383 4.59083 10.4746 4.59082C8.84698 4.59082 7.50304 5.17021 6.4834 6.30859L6.47852 6.31543C5.48938 7.4574 5.02055 8.9713 5.02051 10.8018V19.8438H9.39941V11.0537L9.40723 10.7617C9.44447 10.1117 9.60581 9.67633 9.83496 9.40137C10.0825 9.10435 10.474 8.91803 11.1035 8.91797C11.7993 8.91797 12.2469 9.13733 12.5381 9.51172C12.8475 9.90965 13.0439 10.5629 13.0439 11.5508V16.5889H17.4053V11.5508C17.4053 10.5627 17.601 9.90962 17.9102 9.51172C18.201 9.13748 18.648 8.91797 19.3438 8.91797C19.9784 8.91805 20.3691 9.10532 20.6152 9.40137C20.876 9.71513 21.0479 10.2382 21.0479 11.0537V19.8438H25.4297V19.3438L25.4326 10.8018C25.4326 9.08494 25.0209 7.64653 24.1543 6.5332L23.9746 6.31445L23.9688 6.30859L23.7734 6.10156C22.7776 5.10034 21.5014 4.59082 19.9766 4.59082Z" fill="#800080" stroke="white"/>
</svg>
