<svg width="197" height="197" viewBox="0 0 197 197" fill="none" xmlns="http://www.w3.org/2000/svg">
<g clip-path="url(#clip0_351_3482)">
<path d="M-17.7578 56.2359H-0.566407V139.229H-17.7578V56.2359ZM-11.2369 95.8355H10.9341V110.774H-11.2369V95.8355ZM10.9341 95.8355C14.728 95.8355 17.9687 95.4798 20.6561 94.7684C23.4225 93.978 25.5171 92.7134 26.9399 90.9745C28.4416 89.1565 29.1925 86.6667 29.1925 83.5051C29.1925 80.3435 28.4416 77.8932 26.9399 76.1543C25.5171 74.3363 23.4225 73.0717 20.6561 72.3603C17.9687 71.5699 14.728 71.1747 10.9341 71.1747V56.2359C18.1268 56.2359 24.4105 57.1054 29.7853 58.8443C35.2392 60.5832 39.4679 63.4287 42.4714 67.3807C45.554 71.3328 47.0953 76.7076 47.0953 83.5051C47.0953 90.2236 45.554 95.5984 42.4714 99.6295C39.4679 103.582 35.2392 106.427 29.7853 108.166C24.4105 109.905 18.1268 110.774 10.9341 110.774V95.8355ZM-11.2369 56.2359H10.9341V71.1747H-11.2369V56.2359ZM11.8825 100.934H29.074L47.6881 139.229H28.1255L11.8825 100.934ZM71.0281 116.465L42.5733 56.2359H60.1204L79.6831 99.0367H75.1777L94.6218 56.2359H112.169L83.7141 116.465H71.0281ZM68.7754 97.851H85.9668V139.229H68.7754V97.851ZM145.659 141.126C136.885 141.126 129.416 139.189 123.251 135.316C117.165 131.364 112.541 126.108 109.379 119.548C106.217 112.987 104.637 105.676 104.637 97.6139C104.637 91.6858 105.506 86.1134 107.245 80.8967C109.063 75.601 111.711 70.9771 115.189 67.025C118.666 63.073 122.935 59.9904 127.993 57.7772C133.131 55.4851 139.019 54.339 145.659 54.339C152.219 54.339 158.029 55.4851 163.087 57.7772C168.225 59.9904 172.533 63.073 176.011 67.025C179.488 70.9771 182.097 75.601 183.836 80.8967C185.654 86.1134 186.563 91.6858 186.563 97.6139C186.563 105.676 184.982 112.987 181.82 119.548C178.658 126.108 174.035 131.364 167.948 135.316C161.862 139.189 154.432 141.126 145.659 141.126ZM145.659 125.476C151.034 125.476 155.42 124.132 158.819 121.445C162.218 118.757 164.708 115.319 166.289 111.13C167.869 106.862 168.66 102.356 168.66 97.6139C168.66 92.9505 167.869 88.5242 166.289 84.335C164.708 80.0668 162.218 76.6285 158.819 74.0202C155.42 71.3328 151.034 69.9891 145.659 69.9891C140.284 69.9891 135.858 71.3328 132.38 74.0202C128.981 76.6285 126.491 80.0668 124.911 84.335C123.33 88.5242 122.539 92.9505 122.539 97.6139C122.539 102.356 123.33 106.862 124.911 111.13C126.491 115.319 128.981 118.757 132.38 121.445C135.858 124.132 140.284 125.476 145.659 125.476Z" fill="#FEFEFE"/>
</g>
<defs>
<clipPath id="clip0_351_3482">
<rect width="197" height="197" fill="white"/>
</clipPath>
</defs>
</svg>
