<svg width="62" height="62" viewBox="0 0 62 62" fill="none" xmlns="http://www.w3.org/2000/svg">
<path d="M46.4668 20.3867L46.9668 20.3867L46.9668 20.3867L46.4668 20.3867ZM39.7617 19.0459L40.0646 19.4437L40.0646 19.4437L39.7617 19.0459ZM31 30.1592L30.5487 30.3743L31 31.3211L31.4513 30.3744L31 30.1592ZM22.5713 19.3066L22.885 18.9172L22.8795 18.913L22.5713 19.3066ZM22.2383 19.0459L22.5466 18.6522L22.5412 18.6481L22.2383 19.0459ZM15.5332 20.3867L15.0332 20.3867V20.3867H15.5332ZM16.3926 29.5859L16.8746 29.453L16.8746 29.4529L16.3926 29.5859ZM25.0986 33.9902L25.1837 34.483L25.0136 33.4975L25.0986 33.9902ZM20.6885 42.2236L20.3279 42.5701L20.328 42.5701L20.6885 42.2236ZM30.8018 38.3418L31.2757 38.501L31.2757 38.501L30.8018 38.3418ZM31 37.915L30.5 37.918L31.5 37.9179L31 37.915ZM31.1973 38.3418L30.7233 38.501L30.7233 38.5011L31.1973 38.3418ZM41.3115 42.2236L41.6721 42.5701L41.6721 42.5701L41.3115 42.2236ZM45.6074 29.5859L45.1254 29.4529L45.1254 29.4529L45.6074 29.5859ZM31 1V1.5C47.2924 1.5 60.5 14.7076 60.5 31H61H61.5C61.5 14.1553 47.8447 0.5 31 0.5V1ZM61 31H60.5C60.5 47.2924 47.2924 60.5 31 60.5V61V61.5C47.8447 61.5 61.5 47.8447 61.5 31H61ZM31 61V60.5C14.7076 60.5 1.5 47.2924 1.5 31H1H0.5C0.5 47.8447 14.1553 61.5 31 61.5V61ZM1 31H1.5C1.5 14.7076 14.7076 1.5 31 1.5V1V0.5C14.1553 0.5 0.5 14.1553 0.5 31H1ZM46.4668 20.3867L46.9668 20.3867C46.9667 19.127 46.6961 18.1847 46.1593 17.5553C45.6092 16.9102 44.8506 16.6751 44.0661 16.6871C42.5466 16.7105 40.7636 17.6547 39.4588 18.6481L39.7617 19.0459L40.0646 19.4437C41.3188 18.4889 42.8881 17.7053 44.0814 17.687C44.6533 17.6782 45.0911 17.8438 45.3984 18.2042C45.7191 18.5803 45.9668 19.2483 45.9668 20.3867L46.4668 20.3867ZM39.7617 19.0459L39.4588 18.6481C37.6342 20.0372 35.7624 22.121 34.1777 24.2113C32.5918 26.3032 31.2677 28.4359 30.5487 29.944L31 30.1592L31.4513 30.3744C32.133 28.9446 33.4165 26.8707 34.9746 24.8154C36.534 22.7586 38.3426 20.7547 40.0646 19.4437L39.7617 19.0459ZM31 30.1592L31.4513 29.944C30.0702 27.0467 26.4056 21.7533 22.8849 18.9173L22.5713 19.3066L22.2576 19.696C25.6358 22.4173 29.2161 27.579 30.5487 30.3743L31 30.1592ZM22.5713 19.3066L22.8795 18.913L22.5465 18.6522L22.2383 19.0459L21.93 19.4396L22.263 19.7003L22.5713 19.3066ZM22.2383 19.0459L22.5412 18.6481C21.2365 17.6547 19.4534 16.7104 17.934 16.6871C17.1494 16.675 16.3908 16.9102 15.8407 17.5553C15.304 18.1847 15.0333 19.1269 15.0332 20.3867L15.5332 20.3867L16.0332 20.3867C16.0332 19.2483 16.2809 18.5802 16.6016 18.2041C16.9089 17.8438 17.3468 17.6782 17.9186 17.687C19.1119 17.7053 20.6813 18.4888 21.9354 19.4437L22.2383 19.0459ZM15.5332 20.3867H15.0332C15.0332 20.8918 15.1711 22.928 15.3456 24.9567C15.4334 25.9772 15.5313 27.0062 15.6275 27.854C15.7216 28.6836 15.8186 29.3856 15.9106 29.7189L16.3926 29.5859L16.8746 29.4529C16.8077 29.2108 16.7179 28.5948 16.6211 27.7413C16.5264 26.906 16.4293 25.8868 16.3419 24.871C16.1662 22.8274 16.0332 20.8395 16.0332 20.3867H15.5332ZM16.3926 29.5859L15.9106 29.7189C16.5066 31.8791 17.9027 33.2477 19.6215 33.9802C21.3232 34.7054 23.326 34.8035 25.1837 34.483L25.0986 33.9902L25.0136 33.4975C23.2923 33.7945 21.4941 33.6912 20.0135 33.0602C18.55 32.4365 17.3826 31.2941 16.8746 29.453L16.3926 29.5859ZM25.0986 33.9902L25.0136 33.4975C21.8357 34.046 19.6723 35.2532 18.8131 36.9441C17.9253 38.6911 18.537 40.7063 20.3279 42.5701L20.6885 42.2236L21.049 41.8772C19.4031 40.1643 19.092 38.6026 19.7046 37.3971C20.3457 36.1353 22.1058 35.0142 25.1837 34.483L25.0986 33.9902ZM20.6885 42.2236L20.328 42.5701C22.0003 44.3104 23.5052 45.1446 24.868 45.2864C26.2516 45.4305 27.3813 44.851 28.264 44.0083C29.1383 43.1737 29.799 42.057 30.2828 41.0363C30.7691 40.0104 31.0926 39.0462 31.2757 38.501L30.8018 38.3418L30.3278 38.1826C30.1452 38.7261 29.8377 39.6406 29.3792 40.608C28.9181 41.5808 28.3202 42.5722 27.5735 43.285C26.8353 43.9897 25.9818 44.397 24.9715 44.2918C23.9404 44.1845 22.6406 43.5335 21.049 41.8772L20.6885 42.2236ZM30.8018 38.3418L31.2757 38.501C31.3467 38.2898 31.388 38.1688 31.4107 38.1153C31.4162 38.1025 31.4127 38.1127 31.401 38.1322C31.3958 38.1409 31.3783 38.1696 31.3477 38.2027C31.3304 38.2214 31.2374 38.3233 31.0711 38.3516C30.9733 38.3682 30.8671 38.3557 30.7693 38.3075C30.678 38.2625 30.6205 38.1996 30.5878 38.1544C30.5292 38.0734 30.5125 37.9971 30.5087 37.9803C30.4985 37.9346 30.4999 37.9042 30.5 37.918L31 37.915L31.5 37.9121C31.4998 37.8862 31.4991 37.8269 31.4847 37.7625C31.4789 37.7365 31.4596 37.6534 31.3979 37.5681C31.3187 37.4587 31.1445 37.3248 30.9038 37.3657C30.7335 37.3946 30.6359 37.4996 30.6135 37.5238C30.5778 37.5624 30.5547 37.5991 30.5434 37.6179C30.5195 37.6578 30.5018 37.6976 30.4909 37.7231C30.4483 37.8229 30.3909 37.9946 30.3278 38.1826L30.8018 38.3418ZM31 37.915L31.5 37.9179C31.5001 37.904 31.5015 37.934 31.4915 37.9791C31.4879 37.9954 31.4715 38.0715 31.4135 38.1525C31.3812 38.1976 31.3237 38.2613 31.2319 38.3069C31.1332 38.3559 31.0259 38.3684 30.927 38.3513C30.7598 38.3223 30.6668 38.2189 30.6502 38.2007C30.6199 38.1676 30.6027 38.139 30.5976 38.1304C30.5861 38.1111 30.5828 38.1012 30.5883 38.1142C30.6112 38.1682 30.6522 38.2895 30.7233 38.501L31.1973 38.3418L31.6712 38.1826C31.6083 37.9951 31.5512 37.8236 31.5092 37.7244C31.4984 37.699 31.4809 37.6595 31.4574 37.6198C31.4463 37.6011 31.4235 37.5645 31.3882 37.5259C31.3665 37.5022 31.269 37.3957 31.0977 37.366C30.9969 37.3485 30.8876 37.3613 30.7871 37.4112C30.6936 37.4577 30.6345 37.5228 30.6006 37.5701C30.5396 37.6553 30.5206 37.7381 30.515 37.7637C30.5009 37.8275 30.5002 37.8863 30.5 37.9121L31 37.915ZM31.1973 38.3418L30.7233 38.5011C30.9065 39.0462 31.2302 40.0104 31.7166 41.0363C32.2005 42.057 32.8614 43.1736 33.7358 44.0082C34.6186 44.8509 35.7484 45.4304 37.1321 45.2864C38.4949 45.1445 39.9998 44.3103 41.6721 42.5701L41.3115 42.2236L40.951 41.8772C39.3595 43.5334 38.0598 44.1844 37.0285 44.2917C36.0182 44.3969 35.1646 43.9896 34.4262 43.2849C33.6795 42.5721 33.0814 41.5807 32.6202 40.6079C32.1615 39.6405 31.8539 38.726 31.6712 38.1825L31.1973 38.3418ZM41.3115 42.2236L41.6721 42.5701C43.463 40.7062 44.0745 38.6911 43.1864 36.944C42.327 35.2532 40.1634 34.046 36.9854 33.4975L36.9004 33.9902L36.8153 34.4829C39.8933 35.0142 41.6536 36.1354 42.295 37.3972C42.9077 38.6027 42.5968 40.1643 40.951 41.8772L41.3115 42.2236ZM36.9004 33.9902L36.8153 34.4829C38.673 34.8036 40.676 34.7055 42.3779 33.9803C44.0969 33.2478 45.4933 31.8793 46.0894 29.7189L45.6074 29.5859L45.1254 29.4529C44.6174 31.2942 43.4497 32.4366 41.9859 33.0603C40.5051 33.6913 38.7067 33.7946 36.9854 33.4975L36.9004 33.9902ZM45.6074 29.5859L46.0894 29.719C46.1814 29.3856 46.2784 28.6837 46.3725 27.8541C46.4687 27.0063 46.5666 25.9772 46.6544 24.9568C46.8289 22.928 46.9668 20.8919 46.9668 20.3867H46.4668H45.9668C45.9668 20.8395 45.8338 22.8275 45.6581 24.8711C45.5707 25.8869 45.4736 26.906 45.3789 27.7413C45.2821 28.5948 45.1923 29.2108 45.1254 29.4529L45.6074 29.5859Z" fill="#E8E7E0"/>
</svg>
