<svg width="62" height="62" viewBox="0 0 62 62" fill="none" xmlns="http://www.w3.org/2000/svg">
<path d="M31.0137 15L31.0137 14.5H31.0137V15ZM15 31.1318L14.5 31.1318V31.1318H15ZM25.9492 46.4365L25.7901 46.9105L25.8197 46.9205L25.8503 46.9266L25.9492 46.4365ZM27.0361 45.6621L27.5361 45.6622V45.6621H27.0361ZM27.0098 42.6699H27.5098V42.0505L26.9043 42.1812L27.0098 42.6699ZM21.6279 40.7471L22.1039 40.594L22.0997 40.581L22.0949 40.5683L21.6279 40.7471ZM19.8516 38.3975L19.571 38.8113L19.6052 38.8345L19.6428 38.8518L19.8516 38.3975ZM19.958 37.4092L19.991 36.9103L19.9745 36.9092L19.958 36.9092L19.958 37.4092ZM22.4238 39.0645L21.9856 39.3055L21.9918 39.3161L22.4238 39.0645ZM27.0898 40.4004L27.299 40.8545L27.5509 40.7385L27.5859 40.4634L27.0898 40.4004ZM28.0967 38.2363L28.4288 38.6101L29.2754 37.8577L28.149 37.7391L28.0967 38.2363ZM20.8066 30.2773L20.3066 30.2773V30.2773H20.8066ZM22.4502 25.9512L22.8222 26.2853L23.0293 26.0548L22.9149 25.7667L22.4502 25.9512ZM22.6094 21.6768L22.4637 21.1984L22.2329 21.2687L22.1443 21.4932L22.6094 21.6768ZM27.0098 23.333L26.7277 23.7458L26.9179 23.8758L27.1403 23.8157L27.0098 23.333ZM31.0137 22.7988L31.0137 22.2988L31.0131 22.2988L31.0137 22.7988ZM35.0166 23.333L34.885 23.8154L35.1079 23.8762L35.2987 23.7458L35.0166 23.333ZM39.417 21.6768L39.8821 21.4932L39.7933 21.2684L39.5621 21.1983L39.417 21.6768ZM39.5762 25.9512L39.1114 25.7667L38.9955 26.0589L39.2086 26.2901L39.5762 25.9512ZM41.2207 30.2773L41.7207 30.2773L41.7207 30.2773L41.2207 30.2773ZM33.9033 38.2363L33.8477 37.7394L32.7158 37.8662L33.5752 38.6136L33.9033 38.2363ZM34.9902 41.2285L35.4902 41.2285V41.2285H34.9902ZM34.9639 45.6611L34.4639 45.6611V45.6611H34.9639ZM36.0508 46.4365L36.1496 46.9267L36.1803 46.9205L36.21 46.9105L36.0508 46.4365ZM47 31.1318L46.5 31.1304V31.1318H47ZM31 1V1.5C47.2924 1.5 60.5 14.7076 60.5 31H61H61.5C61.5 14.1553 47.8447 0.5 31 0.5V1ZM61 31H60.5C60.5 47.2924 47.2924 60.5 31 60.5V61V61.5C47.8447 61.5 61.5 47.8447 61.5 31H61ZM31 61V60.5C14.7076 60.5 1.5 47.2924 1.5 31H1H0.5C0.5 47.8447 14.1553 61.5 31 61.5V61ZM1 31H1.5C1.5 14.7076 14.7076 1.5 31 1.5V1V0.5C14.1553 0.5 0.5 14.1553 0.5 31H1ZM31.0137 15V14.5C21.8793 14.5 14.5002 21.9382 14.5 31.1318L15 31.1318L15.5 31.1318C15.5002 22.4836 22.4385 15.5 31.0137 15.5V15ZM15 31.1318H14.5C14.5 38.4825 19.2282 44.7072 25.7901 46.9105L25.9492 46.4365L26.1084 45.9625C19.9447 43.8929 15.5 38.0434 15.5 31.1318H15ZM25.9492 46.4365L25.8503 46.9266C26.3666 47.0309 26.8146 46.9306 27.1315 46.6358C27.4302 46.3578 27.5361 45.9767 27.5361 45.6622L27.0361 45.6621L26.5361 45.662C26.5361 45.7746 26.4962 45.8609 26.4503 45.9036C26.4226 45.9294 26.3273 46.0028 26.0482 45.9464L25.9492 46.4365ZM27.0361 45.6621H27.5361C27.5361 45.471 27.5294 45.0501 27.5229 44.5205C27.5163 43.9869 27.5098 43.3347 27.5098 42.6699H27.0098H26.5098C26.5098 43.3408 26.5164 43.9977 26.523 44.5328C26.5296 45.0718 26.5361 45.4792 26.5361 45.6621H27.0361ZM27.0098 42.6699L26.9043 42.1812C24.7963 42.6362 23.6059 42.1699 22.9515 41.6714C22.6154 41.4153 22.3995 41.1348 22.2687 40.9214C22.2034 40.8148 22.1599 40.7259 22.1337 40.6668C22.1207 40.6373 22.112 40.6155 22.1073 40.6027C22.1049 40.5964 22.1034 40.5924 22.1029 40.5908C22.1026 40.5901 22.1026 40.5899 22.1028 40.5905C22.1029 40.5907 22.103 40.5911 22.1032 40.5917C22.1033 40.592 22.1034 40.5924 22.1035 40.5927C22.1036 40.5929 22.1037 40.5932 22.1037 40.5933C22.1038 40.5937 22.1039 40.594 21.6279 40.7471C21.1519 40.9001 21.1521 40.9005 21.1522 40.9009C21.1522 40.901 21.1523 40.9014 21.1524 40.9017C21.1526 40.9022 21.1528 40.9028 21.153 40.9035C21.1534 40.9048 21.1539 40.9062 21.1545 40.9079C21.1556 40.9111 21.1569 40.9151 21.1586 40.9198C21.1618 40.9291 21.1661 40.9412 21.1716 40.9557C21.1826 40.9848 21.1982 41.0239 21.2192 41.0714C21.2612 41.1663 21.3249 41.2952 21.4162 41.444C21.5985 41.7414 21.8929 42.122 22.3455 42.4668C23.2684 43.17 24.7689 43.6652 27.1153 43.1587L27.0098 42.6699ZM21.6279 40.7471L22.0949 40.5683C21.3311 38.5738 20.1772 37.9968 20.0603 37.9431L19.8516 38.3975L19.6428 38.8518C19.5631 38.8152 20.5057 39.2146 21.161 40.9259L21.6279 40.7471ZM19.8516 38.3975L20.1321 37.9836C19.9651 37.8704 19.8557 37.7808 19.7871 37.7137C19.715 37.6432 19.7074 37.6164 19.7141 37.6325C19.7261 37.661 19.7473 37.7456 19.7048 37.8458C19.6687 37.931 19.6128 37.963 19.6126 37.9631C19.6105 37.9643 19.6258 37.9557 19.6671 37.9448C19.7055 37.9348 19.7508 37.9267 19.7982 37.9208C19.8447 37.915 19.8872 37.912 19.9178 37.9105C19.9329 37.9098 19.9445 37.9095 19.9517 37.9093C19.9552 37.9092 19.9576 37.9092 19.9587 37.9092C19.9593 37.9092 19.9595 37.9092 19.9594 37.9092C19.9594 37.9092 19.9592 37.9092 19.959 37.9092C19.9589 37.9092 19.9587 37.9092 19.9586 37.9092C19.9585 37.9092 19.9583 37.9092 19.9583 37.9092C19.9582 37.9092 19.958 37.9092 19.958 37.4092C19.958 36.9092 19.9578 36.9092 19.9577 36.9092C19.9576 36.9092 19.9574 36.9092 19.9573 36.9092C19.9571 36.9092 19.9568 36.9092 19.9565 36.9092C19.9559 36.9092 19.9551 36.9092 19.9543 36.9092C19.9527 36.9092 19.9507 36.9092 19.9484 36.9092C19.9437 36.9093 19.9375 36.9094 19.9299 36.9095C19.9149 36.9099 19.8943 36.9105 19.8695 36.9117C19.8202 36.9141 19.7519 36.9188 19.6745 36.9285C19.5394 36.9453 19.3018 36.9851 19.1035 37.1024C18.9989 37.1643 18.8614 37.2734 18.7843 37.4552C18.7008 37.6518 18.7218 37.8523 18.7921 38.0197C18.9122 38.3056 19.2015 38.5609 19.571 38.8113L19.8516 38.3975ZM19.958 37.4092L19.925 37.9081C20.5712 37.9509 21.0803 38.2809 21.4448 38.6317C21.809 38.9822 21.9947 39.3218 21.9858 39.3055L22.4238 39.0645L22.8619 38.8234C22.845 38.7927 22.6025 38.358 22.1382 37.9111C21.674 37.4644 20.9542 36.9741 19.991 36.9103L19.958 37.4092ZM22.4238 39.0645L21.9918 39.3161C22.7899 40.6861 23.8693 41.2171 24.8998 41.312C25.8958 41.4037 26.7979 41.0854 27.299 40.8545L27.0898 40.4004L26.8807 39.9463C26.4539 40.1428 25.7386 40.385 24.9915 40.3162C24.2788 40.2506 23.4892 39.8999 22.8559 38.8128L22.4238 39.0645ZM27.0898 40.4004L27.5859 40.4634C27.7054 39.5234 28.0815 38.9188 28.4288 38.6101L28.0967 38.2363L27.7645 37.8626C27.2105 38.355 26.7392 39.194 26.5938 40.3373L27.0898 40.4004ZM28.0967 38.2363L28.149 37.7391C26.4045 37.5554 24.7051 37.1289 23.4427 36.0588C22.2033 35.0082 21.3066 33.268 21.3066 30.2773H20.8066H20.3066C20.3066 33.4831 21.2787 35.5354 22.7961 36.8216C24.2906 38.0884 26.2362 38.5432 28.0443 38.7336L28.0967 38.2363ZM20.8066 30.2773L21.3066 30.2773C21.3066 28.6453 21.892 27.3208 22.8222 26.2853L22.4502 25.9512L22.0782 25.617C20.9933 26.8248 20.3066 28.3839 20.3066 30.2773L20.8066 30.2773ZM22.4502 25.9512L22.9149 25.7667C22.7839 25.4367 22.2619 23.9185 23.0744 21.8604L22.6094 21.6768L22.1443 21.4932C21.2065 23.8685 21.7985 25.6646 21.9855 26.1356L22.4502 25.9512ZM22.6094 21.6768L22.755 22.1551C22.5956 22.2036 23.7944 21.7413 26.7277 23.7458L27.0098 23.333L27.2919 22.9202C24.1906 20.8009 22.6783 21.1331 22.4637 21.1984L22.6094 21.6768ZM27.0098 23.333L27.1403 23.8157C28.4032 23.474 29.706 23.3003 31.0142 23.2988L31.0137 22.7988L31.0131 22.2988C29.6171 22.3004 28.2268 22.4858 26.8792 22.8504L27.0098 23.333ZM31.0137 22.7988L31.0137 23.2988C32.3211 23.2989 33.6552 23.48 34.885 23.8154L35.0166 23.333L35.1482 22.8506C33.8327 22.4919 32.4101 22.2989 31.0137 22.2988L31.0137 22.7988ZM35.0166 23.333L35.2987 23.7458C38.2288 21.7438 39.4281 22.2026 39.2719 22.1552L39.417 21.6768L39.5621 21.1983C39.3446 21.1323 37.8323 20.8035 34.7345 22.9202L35.0166 23.333ZM39.417 21.6768L38.9519 21.8604C39.7645 23.9185 39.2424 25.4367 39.1114 25.7667L39.5762 25.9512L40.0409 26.1356C40.2279 25.6646 40.8198 23.8685 39.8821 21.4932L39.417 21.6768ZM39.5762 25.9512L39.2086 26.2901C40.1576 27.3195 40.7207 28.6404 40.7207 30.2773L41.2207 30.2773L41.7207 30.2773C41.7207 28.3888 41.0628 26.8261 39.9438 25.6123L39.5762 25.9512ZM41.2207 30.2773H40.7207C40.7207 33.2677 39.8241 35.0006 38.5819 36.0479C37.3157 37.1154 35.6089 37.5421 33.8477 37.7394L33.9033 38.2363L33.959 38.7332C35.777 38.5296 37.7289 38.075 39.2265 36.8124C40.7482 35.5295 41.7207 33.4834 41.7207 30.2773H41.2207ZM33.9033 38.2363L33.5752 38.6136C34.0258 39.0054 34.4902 39.816 34.4902 41.2285H34.9902H35.4902C35.4902 39.596 34.9478 38.482 34.2314 37.859L33.9033 38.2363ZM34.9902 41.2285L34.4902 41.2285C34.4902 42.3078 34.4837 43.2808 34.4771 44.0511C34.4705 44.8185 34.4639 45.3911 34.4639 45.6611L34.9639 45.6611L35.4639 45.6611C35.4639 45.3967 35.4704 44.8342 35.477 44.0596C35.4836 43.2878 35.4902 42.3117 35.4902 41.2285L34.9902 41.2285ZM34.9639 45.6611H34.4639C34.4639 45.9758 34.5698 46.3571 34.8684 46.6352C35.1852 46.9301 35.6332 47.0307 36.1496 46.9267L36.0508 46.4365L35.952 45.9464C35.6732 46.0026 35.5777 45.9293 35.5498 45.9033C35.5038 45.8604 35.4639 45.7738 35.4639 45.6611H34.9639ZM36.0508 46.4365L36.21 46.9105C42.7717 44.7065 47.5 38.4825 47.5 31.1318H47H46.5C46.5 38.0433 42.0553 43.8922 35.8916 45.9625L36.0508 46.4365ZM47 31.1318L47.5 31.1333C47.5268 21.9379 40.1205 14.5002 31.0137 14.5L31.0137 15L31.0137 15.5C39.5629 15.5002 46.5252 22.4842 46.5 31.1304L47 31.1318Z" fill="#E8E7E0"/>
</svg>
