<svg width="62" height="62" viewBox="0 0 62 62" fill="none" xmlns="http://www.w3.org/2000/svg">
<path d="M30.999 15L30.999 14.5L30.999 14.5L30.999 15ZM24.4043 15.0967L24.3816 14.5972L24.3814 14.5972L24.4043 15.0967ZM20.5205 15.8398L20.7015 16.3059L20.7017 16.3058L20.5205 15.8398ZM17.6865 17.6846L18.0399 18.0383L18.0401 18.0381L17.6865 17.6846ZM15.8398 20.5195L16.3057 20.7011L16.3057 20.7011L15.8398 20.5195ZM15.0967 24.4023L14.5972 24.3799L14.5972 24.38L15.0967 24.4023ZM15 31L14.5 31V31H15ZM15.0967 37.5957L14.5972 37.6183L14.5972 37.6187L15.0967 37.5957ZM15.8398 41.4795L15.3738 41.6606L15.3738 41.6606L15.8398 41.4795ZM17.6855 44.3135L18.0393 43.9601L18.039 43.9599L17.6855 44.3135ZM20.5186 46.1602L20.6997 45.6941L20.6997 45.6941L20.5186 46.1602ZM24.4023 46.9033L24.3795 47.4028L24.3796 47.4028L24.4023 46.9033ZM30.999 47L30.999 47.5H30.999V47ZM37.5957 46.9033L37.6184 47.4028L37.6186 47.4028L37.5957 46.9033ZM41.4805 46.1602L41.2994 45.6941L41.2994 45.6941L41.4805 46.1602ZM44.3135 44.3135L43.96 43.9598L43.9597 43.9601L44.3135 44.3135ZM46.1602 41.4795L46.626 41.6611L46.6265 41.6597L46.1602 41.4795ZM46.9033 37.5967L47.4028 37.6202L47.4028 37.6191L46.9033 37.5967ZM47 31L47.5 31L47.5 31L47 31ZM46.9033 24.4023L47.4028 24.3799L47.4028 24.3789L46.9033 24.4023ZM46.1602 20.5195L46.6265 20.3392L46.626 20.338L46.1602 20.5195ZM44.3135 17.6846L43.9599 18.0381L43.9601 18.0383L44.3135 17.6846ZM41.4795 15.8398L41.2987 16.306L41.2988 16.306L41.4795 15.8398ZM37.5928 15.0967L37.6156 14.5972L37.6155 14.5972L37.5928 15.0967ZM31 1V1.5C47.2924 1.5 60.5 14.7076 60.5 31H61H61.5C61.5 14.1553 47.8447 0.5 31 0.5V1ZM61 31H60.5C60.5 47.2924 47.2924 60.5 31 60.5V61V61.5C47.8447 61.5 61.5 47.8447 61.5 31H61ZM31 61V60.5C14.7076 60.5 1.5 47.2924 1.5 31H1H0.5C0.5 47.8447 14.1553 61.5 31 61.5V61ZM1 31H1.5C1.5 14.7076 14.7076 1.5 31 1.5V1V0.5C14.1553 0.5 0.5 14.1553 0.5 31H1ZM30.999 15L30.999 14.5C26.6535 14.5 26.0991 14.519 24.3816 14.5972L24.4043 15.0967L24.427 15.5962C26.1219 15.519 26.6587 15.5 30.999 15.5L30.999 15ZM24.4043 15.0967L24.3814 14.5972C22.631 14.6774 21.4135 14.956 20.3393 15.3738L20.5205 15.8398L20.7017 16.3058C21.6622 15.9323 22.7709 15.672 24.4272 15.5962L24.4043 15.0967ZM20.5205 15.8398L20.3395 15.3738C19.2274 15.8056 18.2747 16.389 17.3329 17.3311L17.6865 17.6846L18.0401 18.0381C18.8767 17.2013 19.7093 16.6913 20.7015 16.3059L20.5205 15.8398ZM17.6865 17.6846L17.3331 17.3309C16.3903 18.273 15.8071 19.2266 15.374 20.338L15.8398 20.5195L16.3057 20.7011C16.6926 19.7084 17.2027 18.8748 18.0399 18.0383L17.6865 17.6846ZM15.8398 20.5195L15.374 20.338C14.9552 21.4126 14.676 22.63 14.5972 24.3799L15.0967 24.4023L15.5962 24.4248C15.6707 22.7698 15.9314 21.6616 16.3057 20.7011L15.8398 20.5195ZM15.0967 24.4023L14.5972 24.38C14.5204 26.0976 14.5 26.6518 14.5 31L15 31L15.5 31C15.5 26.6577 15.5203 26.1205 15.5962 24.4247L15.0967 24.4023ZM15 31H14.5C14.5 35.3479 14.5194 35.9006 14.5972 37.6183L15.0967 37.5957L15.5962 37.5731C15.5193 35.8777 15.5 35.3425 15.5 31H15ZM15.0967 37.5957L14.5972 37.6187C14.6777 39.369 14.9564 40.5864 15.3738 41.6606L15.8398 41.4795L16.3059 41.2984C15.9326 40.3379 15.6723 39.2291 15.5962 37.5727L15.0967 37.5957ZM15.8398 41.4795L15.3738 41.6606C15.8061 42.7729 16.3899 43.7253 17.3321 44.6671L17.6855 44.3135L18.039 43.9599C17.2019 43.1231 16.6916 42.2907 16.3059 41.2984L15.8398 41.4795ZM17.6855 44.3135L17.3318 44.6668C18.2732 45.6092 19.2256 46.1941 20.3374 46.6262L20.5186 46.1602L20.6997 45.6941C19.7083 45.3089 18.8758 44.7976 18.0393 43.9601L17.6855 44.3135ZM20.5186 46.1602L20.3374 46.6262C21.4122 47.0439 22.6296 47.3226 24.3795 47.4028L24.4023 46.9033L24.4252 46.4038C22.7696 46.328 21.6608 46.0677 20.6997 45.6941L20.5186 46.1602ZM24.4023 46.9033L24.3796 47.4028C26.0975 47.481 26.6518 47.5 30.999 47.5L30.999 47L30.999 46.5C26.657 46.5 26.1204 46.481 24.4251 46.4038L24.4023 46.9033ZM30.999 47V47.5C35.3473 47.5 35.9004 47.481 37.6184 47.4028L37.5957 46.9033L37.573 46.4038C35.8776 46.481 35.3421 46.5 30.999 46.5V47ZM37.5957 46.9033L37.6186 47.4028C39.3687 47.3226 40.5869 47.0439 41.6616 46.6262L41.4805 46.1602L41.2994 45.6941C40.3383 46.0676 39.2288 46.328 37.5728 46.4038L37.5957 46.9033ZM41.4805 46.1602L41.6615 46.6262C42.7739 46.1941 43.7258 45.6093 44.6672 44.6668L44.3135 44.3135L43.9597 43.9601C43.1231 44.7977 42.2911 45.3088 41.2994 45.6941L41.4805 46.1602ZM44.3135 44.3135L44.6669 44.6672C45.6095 43.7252 46.1929 42.7725 46.626 41.6611L46.1602 41.4795L45.6943 41.2979C45.3075 42.2904 44.7973 43.1232 43.96 43.9598L44.3135 44.3135ZM46.1602 41.4795L46.6265 41.6597C47.0415 40.5861 47.3205 39.3694 47.4028 37.6202L46.9033 37.5967L46.4039 37.5732C46.3261 39.2286 46.0654 40.3378 45.6938 41.2992L46.1602 41.4795ZM46.9033 37.5967L47.4028 37.6191C47.48 35.9014 47.5 35.3482 47.5 31H47H46.5C46.5 35.3425 46.48 35.8785 46.4038 37.5742L46.9033 37.5967ZM47 31L47.5 31C47.5 26.6519 47.48 26.0976 47.4028 24.3799L46.9033 24.4023L46.4038 24.4248C46.48 26.1205 46.5 26.6576 46.5 31L47 31ZM46.9033 24.4023L47.4028 24.3789C47.3205 22.6289 47.0415 21.4126 46.6265 20.3392L46.1602 20.5195L45.6938 20.6998C46.0654 21.6609 46.3261 22.7697 46.4039 24.4258L46.9033 24.4023ZM46.1602 20.5195L46.626 20.338C46.1929 19.2262 45.6097 18.273 44.6669 17.3309L44.3135 17.6846L43.9601 18.0383C44.7973 18.8749 45.3074 19.7081 45.6943 20.701L46.1602 20.5195ZM44.3135 17.6846L44.667 17.331C43.7246 16.3887 42.7739 15.8054 41.6602 15.3736L41.4795 15.8398L41.2988 16.306C42.2917 16.691 43.1224 17.2006 43.9599 18.0381L44.3135 17.6846ZM41.4795 15.8398L41.6603 15.3737C40.5838 14.9562 39.3659 14.6774 37.6156 14.5972L37.5928 15.0967L37.5699 15.5962C39.2258 15.672 40.3354 15.9324 41.2987 16.306L41.4795 15.8398ZM37.5928 15.0967L37.6155 14.5972C35.8982 14.519 35.3456 14.5 30.999 14.5L30.999 15L30.999 15.5C35.3404 15.5 35.8753 15.519 37.57 15.5962L37.5928 15.0967Z" fill="#E8E7E0"/>
<path d="M29.5645 17.8833H29.0645V18.3841L29.5652 18.3833L29.5645 17.8833ZM31 17.8833L31 17.3833H31V17.8833ZM37.4648 17.9751L37.4877 17.4756L37.4875 17.4756L37.4648 17.9751ZM40.4355 18.5269L40.6166 18.0608L40.6165 18.0608L40.4355 18.5269ZM42.2744 19.7231L41.9208 20.0766L41.9209 20.0767L42.2744 19.7231ZM43.4717 21.563L43.9377 21.3818L43.9376 21.3816L43.4717 21.563ZM44.0225 24.5327L44.5219 24.51L44.5219 24.51L44.0225 24.5327ZM44.1162 30.9966L44.6162 30.9966V30.9966H44.1162ZM44.0225 37.4595L44.5219 37.4823L44.5219 37.4822L44.0225 37.4595ZM43.4717 40.4302L43.0057 40.249L43.0056 40.2491L43.4717 40.4302ZM42.2744 42.2681L41.921 41.9144L41.9209 41.9145L42.2744 42.2681ZM40.4355 43.4644L40.2546 42.9982L40.2537 42.9986L40.4355 43.4644ZM37.4648 44.0161L37.4875 44.5156L37.4877 44.5156L37.4648 44.0161ZM31 44.1089L31 44.6089L31 44.6089L31 44.1089ZM24.5342 44.0161L24.5111 44.5156L24.5115 44.5156L24.5342 44.0161ZM21.5635 43.4644L21.3825 43.9304L21.3826 43.9305L21.5635 43.4644ZM19.7236 42.2681L19.3701 42.6216L19.3701 42.6217L19.7236 42.2681ZM18.5254 40.4282L18.0594 40.6094L18.0594 40.6095L18.5254 40.4282ZM17.9746 37.4585L17.4751 37.4812L17.4751 37.4812L17.9746 37.4585ZM17.8828 30.9927L17.3828 30.9927V30.9927L17.8828 30.9927ZM17.9746 24.5288L17.4751 24.506L17.4751 24.5061L17.9746 24.5288ZM18.5254 21.5581L18.0593 21.3771L18.0593 21.3771L18.5254 21.5581ZM19.7236 19.7183L19.3701 19.3647L19.3701 19.3647L19.7236 19.7183ZM21.5635 18.521L21.7449 18.9869L21.7452 18.9868L21.5635 18.521ZM24.5342 17.9692L24.5116 17.4697L24.5112 17.4698L24.5342 17.9692ZM29.5645 17.8794H30.0645V17.3788L29.5639 17.3794L29.5645 17.8794ZM30.999 22.7837L30.999 22.2837L30.999 22.2837L30.999 22.7837ZM22.7832 31.0005L22.2832 31.0005L22.2832 31.0005L22.7832 31.0005ZM31 39.2153L31 39.7153L31 39.7153L31 39.2153ZM39.2148 31.0005L39.7148 31.0005V31.0005H39.2148ZM39.54 20.5405L39.5401 21.0405L40.04 21.0404V20.5405H39.54ZM37.6201 22.4595L37.1201 22.4595L37.1201 22.4595L37.6201 22.4595ZM39.54 24.3794L39.54 24.8794H39.54V24.3794ZM41.46 22.4595L41.96 22.4595V22.4595H41.46ZM39.54 20.5396V20.0396H39.04V20.5396H39.54ZM29.5645 17.8833L29.5652 18.3833C29.9907 18.3826 30.465 18.3833 31 18.3833V17.8833V17.3833C30.4671 17.3833 29.9901 17.3826 29.5637 17.3833L29.5645 17.8833ZM31 17.8833L31 18.3833C35.2697 18.3833 35.767 18.3985 37.4421 18.4746L37.4648 17.9751L37.4875 17.4756C35.7891 17.3984 35.2734 17.3833 31 17.3833L31 17.8833ZM37.4648 17.9751L37.442 18.4746C38.9466 18.5434 39.7399 18.7931 40.2546 18.993L40.4355 18.5269L40.6165 18.0608C40.0031 17.8226 39.1031 17.5495 37.4877 17.4756L37.4648 17.9751ZM40.4355 18.5269L40.2545 18.9929C40.9373 19.2581 41.4108 19.5664 41.9208 20.0766L42.2744 19.7231L42.6281 19.3697C42.0187 18.7599 41.4271 18.3756 40.6166 18.0608L40.4355 18.5269ZM42.2744 19.7231L41.9209 20.0767C42.4311 20.5869 42.7398 21.0614 43.0057 21.7444L43.4717 21.563L43.9376 21.3816C43.6222 20.5714 43.2376 19.9793 42.628 19.3696L42.2744 19.7231ZM43.4717 21.563L43.0057 21.7442C43.2053 22.2577 43.4545 23.0509 43.523 24.5555L44.0225 24.5327L44.5219 24.51C44.4484 22.895 44.176 21.9949 43.9377 21.3818L43.4717 21.563ZM44.0225 24.5327L43.523 24.5554C43.5991 26.2307 43.6162 26.7289 43.6162 30.9966H44.1162H44.6162C44.6162 26.7242 44.5991 26.2081 44.5219 24.51L44.0225 24.5327ZM44.1162 30.9966L43.6162 30.9966C43.6162 35.2639 43.5991 35.7619 43.523 37.4368L44.0225 37.4595L44.5219 37.4822C44.5991 35.7844 44.6162 35.2686 44.6162 30.9966L44.1162 30.9966ZM44.0225 37.4595L43.523 37.4366C43.4542 38.9417 43.2053 39.7356 43.0057 40.249L43.4717 40.4302L43.9377 40.6113C44.1761 39.9981 44.4481 39.0973 44.5219 37.4823L44.0225 37.4595ZM43.4717 40.4302L43.0056 40.2491C42.7407 40.9312 42.4316 41.4041 41.921 41.9144L42.2744 42.2681L42.6279 42.6217C43.2371 42.0128 43.6227 41.4222 43.9378 40.6112L43.4717 40.4302ZM42.2744 42.2681L41.9209 41.9145C41.4104 42.4249 40.9375 42.7331 40.2546 42.9982L40.4355 43.4644L40.6165 43.9305C41.4276 43.6156 42.0184 43.2312 42.628 42.6216L42.2744 42.2681ZM40.4355 43.4644L40.2537 42.9986C39.7408 43.1989 38.9471 43.4478 37.442 43.5166L37.4648 44.0161L37.4877 44.5156C39.1026 44.4417 40.0036 44.1698 40.6174 43.9301L40.4355 43.4644ZM37.4648 44.0161L37.4421 43.5166C35.7672 43.5928 35.2694 43.6089 31 43.6089L31 44.1089L31 44.6089C35.2736 44.6089 35.7895 44.5928 37.4875 44.5156L37.4648 44.0161ZM31 44.1089V43.6089C26.7297 43.6089 26.232 43.5928 24.5569 43.5166L24.5342 44.0161L24.5115 44.5156C26.2097 44.5928 26.7255 44.6089 31 44.6089V44.1089ZM24.5342 44.0161L24.5572 43.5166C23.0526 43.4472 22.2592 43.198 21.7444 42.9982L21.5635 43.4644L21.3826 43.9305C21.9964 44.1687 22.8962 44.441 24.5111 44.5156L24.5342 44.0161ZM21.5635 43.4644L21.7445 42.9983C21.0618 42.7331 20.5872 42.4245 20.0772 41.9145L19.7236 42.2681L19.3701 42.6217C19.9797 43.2312 20.5722 43.6157 21.3825 43.9304L21.5635 43.4644ZM19.7236 42.2681L20.0772 41.9145C19.5666 41.4039 19.2571 40.9298 18.9914 40.2469L18.5254 40.4282L18.0594 40.6095C18.375 41.4206 18.7607 42.0122 19.3701 42.6216L19.7236 42.2681ZM18.5254 40.4282L18.9914 40.2471C18.7918 39.7335 18.5426 38.9401 18.4741 37.4358L17.9746 37.4585L17.4751 37.4812C17.5486 39.096 17.8211 39.9963 18.0594 40.6094L18.5254 40.4282ZM17.9746 37.4585L18.4741 37.4358C18.398 35.7609 18.3828 35.2633 18.3828 30.9927L17.8828 30.9927L17.3828 30.9927C17.3828 35.267 17.3979 35.7829 17.4751 37.4812L17.9746 37.4585ZM17.8828 30.9927H18.3828C18.3828 26.7218 18.398 26.2265 18.4741 24.5515L17.9746 24.5288L17.4751 24.5061C17.3979 26.2045 17.3828 26.7181 17.3828 30.9927H17.8828ZM17.9746 24.5288L18.4741 24.5517C18.5429 23.0469 18.7918 22.2533 18.9915 21.7391L18.5254 21.5581L18.0593 21.3771C17.821 21.9908 17.549 22.8911 17.4751 24.506L17.9746 24.5288ZM18.5254 21.5581L18.9915 21.7391C19.2564 21.057 19.5665 20.5825 20.0772 20.0718L19.7236 19.7183L19.3701 19.3647C18.7609 19.9739 18.3743 20.566 18.0593 21.3771L18.5254 21.5581ZM19.7236 19.7183L20.0772 20.0718C20.5874 19.5617 21.0619 19.2528 21.7449 18.9869L21.5635 18.521L21.3821 18.0551C20.5719 18.3704 19.9797 18.7552 19.3701 19.3647L19.7236 19.7183ZM21.5635 18.521L21.7452 18.9868C22.2588 18.7865 23.0522 18.5379 24.5571 18.4687L24.5342 17.9692L24.5112 17.4698C22.8967 17.5439 21.9961 17.8156 21.3818 18.0552L21.5635 18.521ZM24.5342 17.9692L24.5567 18.4687C26.0233 18.4025 26.5878 18.3827 29.565 18.3794L29.5645 17.8794L29.5639 17.3794C26.5771 17.3827 25.9971 17.4027 24.5116 17.4697L24.5342 17.9692ZM29.5645 17.8794H29.0645V17.8833H29.5645H30.0645V17.8794H29.5645ZM30.999 22.7837L30.999 22.2837C26.1854 22.284 22.2832 26.1869 22.2832 31.0005H22.7832H23.2832C23.2832 26.7391 26.7378 23.284 30.9991 23.2837L30.999 22.7837ZM22.7832 31.0005L22.2832 31.0005C22.2834 35.8144 26.1864 39.7153 31 39.7153V39.2153V38.7153C26.7384 38.7153 23.2834 35.2618 23.2832 31.0005L22.7832 31.0005ZM31 39.2153L31 39.7153C35.8136 39.7151 39.7147 35.8141 39.7148 31.0005L39.2148 31.0005L38.7148 31.0005C38.7147 35.2618 35.2613 38.7151 31 38.7153L31 39.2153ZM39.2148 31.0005H39.7148C39.7148 26.1867 35.813 22.2837 30.999 22.2837V22.7837V23.2837C35.2605 23.2837 38.7148 26.7388 38.7148 31.0005H39.2148ZM39.54 20.5405L39.54 20.0405C38.2045 20.0408 37.1201 21.1226 37.1201 22.4595H37.6201H38.1201C38.1201 21.6759 38.7559 21.0407 39.5401 21.0405L39.54 20.5405ZM37.6201 22.4595L37.1201 22.4595C37.1201 23.7956 38.2041 24.8792 39.54 24.8794L39.54 24.3794L39.5401 23.8794C38.7563 23.8793 38.1201 23.2431 38.1201 22.4595L37.6201 22.4595ZM39.54 24.3794V24.8794C40.8762 24.8794 41.9599 23.7956 41.96 22.4595L41.46 22.4595L40.96 22.4595C40.9599 23.2433 40.3239 23.8794 39.54 23.8794V24.3794ZM41.46 22.4595H41.96C41.96 21.1233 40.8762 20.0396 39.54 20.0396V20.5396V21.0396C40.3239 21.0396 40.96 21.6756 40.96 22.4595H41.46ZM39.54 20.5396H39.04V20.5405H39.54H40.04V20.5396H39.54Z" fill="#E8E7E0"/>
<path fill-rule="evenodd" clip-rule="evenodd" d="M31.0014 25.667C33.9467 25.667 36.3347 28.0547 36.3347 31.0004C36.3347 33.9457 33.9467 36.3338 31.0014 36.3338C28.0557 36.3338 25.668 33.9457 25.668 31.0004C25.668 28.0547 28.0557 25.667 31.0014 25.667V25.667Z" stroke="#E8E7E0"/>
</svg>
