<svg width="62" height="62" viewBox="0 0 62 62" fill="none" xmlns="http://www.w3.org/2000/svg">
<path d="M38.8916 25.3672L38.8916 24.8672H38.8916V25.3672ZM32.7637 28.7412H32.2637V30.4306L33.1831 29.0133L32.7637 28.7412ZM32.7637 25.8477H33.2637V25.3477H32.7637V25.8477ZM25.9639 25.8477V25.3477H25.4399L25.4644 25.871L25.9639 25.8477ZM25.9639 46.2754L25.4639 46.273L25.4614 46.7754H25.9639V46.2754ZM32.7637 46.2754V46.7754H33.2637V46.2754H32.7637ZM32.9873 33.21L33.4497 33.4001L33.4511 33.3968L32.9873 33.21ZM36.4756 30.7275L36.4756 30.2275L36.4756 30.2275L36.4756 30.7275ZM39.9209 35.3457L40.4209 35.3457L40.4209 35.3457L39.9209 35.3457ZM39.9209 46.2744H39.4209V46.7744H39.9209V46.2744ZM46.7188 46.2744V46.7744H47.2188V46.2744H46.7188ZM15.4023 46.2744H14.9023V46.7744H15.4023V46.2744ZM22.2002 46.2744V46.7744H22.7002V46.2744H22.2002ZM22.2002 25.8477H22.7002V25.3477H22.2002V25.8477ZM15.4023 25.8477V25.3477H14.9023V25.8477H15.4023ZM18.8467 16L18.8467 15.5H18.8467V16ZM15 19.5283L14.5 19.5283V19.5283H15ZM18.7578 23.0596L18.7578 23.5596H18.7578V23.0596ZM18.8018 23.0596L18.8018 23.5596L18.8018 23.5596L18.8018 23.0596ZM22.6484 19.5283L23.1486 19.5283L23.1483 19.5173L22.6484 19.5283ZM31 1V1.5C47.2924 1.5 60.5 14.7076 60.5 31H61H61.5C61.5 14.1553 47.8447 0.5 31 0.5V1ZM61 31H60.5C60.5 47.2924 47.2924 60.5 31 60.5V61V61.5C47.8447 61.5 61.5 47.8447 61.5 31H61ZM31 61V60.5C14.7076 60.5 1.5 47.2924 1.5 31H1H0.5C0.5 47.8447 14.1553 61.5 31 61.5V61ZM1 31H1.5C1.5 14.7076 14.7076 1.5 31 1.5V1V0.5C14.1553 0.5 0.5 14.1553 0.5 31H1ZM38.8916 25.3672V24.8672C36.9876 24.8672 35.5815 25.3926 34.528 26.1214C33.4818 26.8451 32.8099 27.7512 32.3442 28.4691L32.7637 28.7412L33.1831 29.0133C33.6198 28.3403 34.2071 27.5594 35.0969 26.9438C35.9794 26.3333 37.1861 25.8672 38.8916 25.8672V25.3672ZM32.7637 28.7412H33.2637V25.8477H32.7637H32.2637V28.7412H32.7637ZM32.7637 25.8477V25.3477H25.9639V25.8477V26.3477H32.7637V25.8477ZM25.9639 25.8477L25.4644 25.871C25.5085 26.8133 25.5087 31.9011 25.4975 36.7792C25.4919 39.2125 25.4835 41.5859 25.4765 43.3511C25.473 44.2337 25.4698 44.9642 25.4675 45.474C25.4664 45.7289 25.4655 45.9287 25.4649 46.0647C25.4645 46.1327 25.4643 46.1848 25.4641 46.2199C25.464 46.2374 25.464 46.2507 25.4639 46.2596C25.4639 46.264 25.4639 46.2674 25.4639 46.2696C25.4639 46.2707 25.4639 46.2716 25.4639 46.2721C25.4639 46.2724 25.4639 46.2726 25.4639 46.2728C25.4639 46.2729 25.4639 46.273 25.9639 46.2754C26.4639 46.2778 26.4639 46.2777 26.4639 46.2776C26.4639 46.2775 26.4639 46.2772 26.4639 46.277C26.4639 46.2764 26.4639 46.2756 26.4639 46.2744C26.4639 46.2722 26.4639 46.2688 26.4639 46.2644C26.464 46.2555 26.464 46.2422 26.4641 46.2246C26.4643 46.1895 26.4645 46.1374 26.4648 46.0694C26.4655 45.9333 26.4664 45.7335 26.4675 45.4785C26.4698 44.9685 26.473 44.2379 26.4765 43.3551C26.4835 41.5896 26.4919 39.2155 26.4975 36.7815C26.5086 31.9249 26.5089 26.7988 26.4633 25.8243L25.9639 25.8477ZM25.9639 46.2754V46.7754H32.7637V46.2754V45.7754H25.9639V46.2754ZM32.7637 46.2754H33.2637V34.8672H32.7637H32.2637V46.2754H32.7637ZM32.7637 34.8672H33.2637C33.2637 34.2589 33.3109 33.7377 33.4497 33.4001L32.9873 33.21L32.5249 33.0198C32.3042 33.5564 32.2637 34.2545 32.2637 34.8672H32.7637ZM32.9873 33.21L33.4511 33.3968C33.8946 32.296 34.868 31.2276 36.4756 31.2275L36.4756 30.7275L36.4756 30.2275C34.3269 30.2276 33.0628 31.6848 32.5235 33.0231L32.9873 33.21ZM36.4756 30.7275V31.2275C37.559 31.2275 38.2574 31.6285 38.7081 32.2891C39.1805 32.9814 39.4209 34.0189 39.4209 35.3457L39.9209 35.3457L40.4209 35.3457C40.4209 33.9276 40.1691 32.656 39.5341 31.7255C38.8775 30.7632 37.8532 30.2275 36.4756 30.2275V30.7275ZM39.9209 35.3457H39.4209V46.2744H39.9209H40.4209V35.3457H39.9209ZM39.9209 46.2744V46.7744H46.7188V46.2744V45.7744H39.9209V46.2744ZM46.7188 46.2744H47.2188V34.5625H46.7188H46.2188V46.2744H46.7188ZM46.7188 34.5625H47.2188C47.2188 31.3392 46.3565 28.9052 44.8503 27.273C43.3404 25.6367 41.2397 24.8672 38.8916 24.8672L38.8916 25.3672L38.8916 25.8672C41.0172 25.8672 42.8301 26.5583 44.1154 27.9511C45.4043 29.3479 46.2188 31.5116 46.2188 34.5625H46.7188ZM15.4023 46.2744V46.7744H22.2002V46.2744V45.7744H15.4023V46.2744ZM22.2002 46.2744H22.7002V25.8477H22.2002H21.7002V46.2744H22.2002ZM22.2002 25.8477V25.3477H15.4023V25.8477V26.3477H22.2002V25.8477ZM15.4023 25.8477H14.9023V46.2744H15.4023H15.9023V25.8477H15.4023ZM18.8467 16V15.5C17.5728 15.5 16.4834 15.9194 15.7084 16.6491C14.9324 17.3797 14.5 18.3957 14.5 19.5283L15 19.5283L15.5 19.5283C15.5 18.6581 15.828 17.9099 16.3939 17.3771C16.9608 16.8434 17.7948 16.5 18.8467 16.5V16ZM15 19.5283H14.5C14.5 21.7778 16.2115 23.5595 18.7578 23.5596L18.7578 23.0596L18.7578 22.5596C16.7395 22.5595 15.5 21.2015 15.5 19.5283H15ZM18.7578 23.0596V23.5596H18.8018V23.0596V22.5596H18.7578V23.0596ZM18.8018 23.0596L18.8018 23.5596C20.1 23.5595 21.1906 23.1277 21.96 22.3904C22.729 21.6534 23.1484 20.6378 23.1484 19.5283H22.6484H22.1484C22.1484 20.3801 21.8298 21.1301 21.2681 21.6684C20.7067 22.2064 19.874 22.5595 18.8017 22.5596L18.8018 23.0596ZM22.6484 19.5283L23.1483 19.5173C23.1236 18.3974 22.7086 17.3856 21.9504 16.6535C21.1913 15.9206 20.1219 15.5001 18.8467 15.5L18.8467 16L18.8466 16.5C19.897 16.5001 20.7064 16.8424 21.2558 17.3729C21.8061 17.9042 22.1291 18.6565 22.1486 19.5393L22.6484 19.5283Z" fill="#E8E7E0"/>
</svg>
