<svg width="62" height="62" viewBox="0 0 62 62" fill="none" xmlns="http://www.w3.org/2000/svg">
<path d="M23.7314 15.4111L23.8046 15.9057L23.8048 15.9057L23.7314 15.4111ZM16.3662 21.8359L15.8779 21.7286L15.8773 21.731L16.3662 21.8359ZM16.0273 27.1914L16.527 27.1719L16.527 27.1718L16.0273 27.1914ZM16.3701 34.6729L15.8722 34.7182L15.8723 34.72L16.3701 34.6729ZM17.1885 39.5801L16.7023 39.6969L16.7027 39.6985L17.1885 39.5801ZM23.7383 46.0547L23.5726 46.5264L23.5764 46.5278L23.7383 46.0547ZM33.3203 46.5605L33.4314 47.048L33.4337 47.0475L33.3203 46.5605ZM34.3584 46.2773L34.5085 46.7543L34.5101 46.7538L34.3584 46.2773ZM36.7002 45.2734L36.9938 45.6782L36.9982 45.675L36.7002 45.2734ZM36.7227 45.248L37.1659 45.4795L37.1661 45.4791L36.7227 45.248ZM36.7314 45.2158L37.2311 45.2331L37.2314 45.2245V45.2158H36.7314ZM36.7314 42.8047H37.2315L37.2314 42.7971L36.7314 42.8047ZM36.7236 42.7734L37.1719 42.5519L37.1705 42.5491L36.7236 42.7734ZM36.7041 42.749L36.3951 43.1421L36.3967 43.1434L36.7041 42.749ZM36.6758 42.7354L36.7879 42.2481L36.7838 42.2472L36.6758 42.7354ZM36.6436 42.7354L36.5314 42.2481L36.5273 42.2491L36.6436 42.7354ZM30.4258 43.4629L30.4267 42.9629H30.4258V43.4629ZM25.5752 41.0381L25.1049 41.2084L25.1093 41.2195L25.5752 41.0381ZM25.1533 39.127L24.6538 39.1494L24.6543 39.1598L24.6552 39.1702L25.1533 39.127ZM25.1592 39.0957L24.7018 38.8938L24.7005 38.8967L25.1592 39.0957ZM25.1787 39.0693L24.863 38.6816L24.8613 38.683L25.1787 39.0693ZM25.208 39.0557L25.0995 38.5676L25.0986 38.5678L25.208 39.0557ZM25.2412 39.0566L25.1159 39.5408L25.1239 39.5427L25.2412 39.0566ZM31.3574 39.7832L31.3574 39.2832L31.3573 39.2832L31.3574 39.7832ZM32.8428 39.7705L32.856 40.2703L32.8568 40.2703L32.8428 39.7705ZM39.1377 39.207L39.2336 39.6977L39.2357 39.6973L39.1377 39.207ZM39.2832 39.1758L39.1888 38.6848L39.1639 38.6896L39.1395 38.6969L39.2832 39.1758ZM45.8701 31.7041L46.3691 31.7357L46.3692 31.7341L45.8701 31.7041ZM45.9111 29.4775L45.4111 29.4765L45.4111 29.4775L45.9111 29.4775ZM45.8789 22.085L46.3765 22.036L46.3756 22.0272L46.3745 22.0184L45.8789 22.085ZM38.875 15.4111L38.8017 15.9057L38.8018 15.9057L38.875 15.4111ZM30.7529 15L30.7529 14.5H30.7529V15ZM35.9766 20.0908L35.9766 19.5908L35.9765 19.5908L35.9766 20.0908ZM39.5967 21.6426L39.9745 21.315L39.9686 21.3084L39.5967 21.6426ZM40.9326 25.8018L41.4326 25.8019L41.4326 25.8017L40.9326 25.8018ZM40.9297 34.3438V34.8438H41.4295L41.4297 34.3439L40.9297 34.3438ZM37.5479 34.3438H37.0479V34.8438H37.5479V34.3438ZM35.3438 23.418L35.3438 22.918H35.3438V23.418ZM32.9053 26.5508L32.4053 26.5508V26.5508H32.9053ZM32.9053 31.0889V31.5889H33.4053V31.0889H32.9053ZM29.5439 31.0889H29.0439V31.5889H29.5439V31.0889ZM29.5439 26.5508L30.0439 26.5508L30.0439 26.5508L29.5439 26.5508ZM27.1035 23.418L27.1035 22.918L27.1035 22.918L27.1035 23.418ZM24.8994 26.0537L24.3994 26.0533V26.0537H24.8994ZM24.8994 34.3438V34.8438H25.3994V34.3438H24.8994ZM21.5205 34.3438H21.0205V34.8438H21.5205V34.3438ZM21.5205 25.8018L21.0205 25.8017V25.8018H21.5205ZM22.8564 21.6426L22.484 21.3089L22.4785 21.3152L22.8564 21.6426ZM26.4746 20.0908L26.4746 19.5908H26.4746V20.0908ZM30.3848 22.0879L30.8143 21.832L30.8089 21.8228L30.803 21.8139L30.3848 22.0879ZM31.2266 23.501L30.797 23.7569L31.2263 24.4775L31.656 23.7571L31.2266 23.501ZM32.0693 22.0879L31.6511 21.8139L31.6453 21.8227L31.6399 21.8318L32.0693 22.0879ZM31 1V1.5C47.2924 1.5 60.5 14.7076 60.5 31H61H61.5C61.5 14.1553 47.8447 0.5 31 0.5V1ZM61 31H60.5C60.5 47.2924 47.2924 60.5 31 60.5V61V61.5C47.8447 61.5 61.5 47.8447 61.5 31H61ZM31 61V60.5C14.7076 60.5 1.5 47.2924 1.5 31H1H0.5C0.5 47.8447 14.1553 61.5 31 61.5V61ZM1 31H1.5C1.5 14.7076 14.7076 1.5 31 1.5V1V0.5C14.1553 0.5 0.5 14.1553 0.5 31H1ZM30.7139 15V14.5C28.0774 14.5 26.4655 14.5808 25.4317 14.6743C24.3997 14.7676 23.9268 14.8767 23.6581 14.9165L23.7314 15.4111L23.8048 15.9057C24.1349 15.8567 24.526 15.7603 25.5218 15.6702C26.5158 15.5803 28.0957 15.5 30.7139 15.5V15ZM23.7314 15.4111L23.6583 14.9165C20.045 15.4512 16.6953 18.0084 15.8779 21.7286L16.3662 21.8359L16.8546 21.9432C17.5659 18.7056 20.5181 16.3921 23.8046 15.9057L23.7314 15.4111ZM16.3662 21.8359L15.8773 21.731C15.4968 23.5045 15.4588 25.4528 15.5277 27.211L16.0273 27.1914L16.527 27.1718C16.4593 25.4454 16.5004 23.5939 16.8551 21.9408L16.3662 21.8359ZM16.0273 27.1914L15.5277 27.2109C15.6243 29.6884 15.6439 32.2127 15.8722 34.7182L16.3701 34.6729L16.8681 34.6275C16.6429 32.1562 16.6251 29.6915 16.527 27.1719L16.0273 27.1914ZM16.3701 34.6729L15.8723 34.72C16.0313 36.3965 16.3088 38.0598 16.7023 39.6969L17.1885 39.5801L17.6746 39.4632C17.2921 37.8718 17.0224 36.2551 16.8679 34.6257L16.3701 34.6729ZM17.1885 39.5801L16.7027 39.6985C17.4825 42.8978 20.5915 45.4792 23.5726 46.5264L23.7383 46.0547L23.904 45.5829C21.1219 44.6056 18.3479 42.2253 17.6743 39.4617L17.1885 39.5801ZM23.7383 46.0547L23.5764 46.5278C26.7495 47.6135 30.1618 47.7934 33.4314 47.048L33.3203 46.5605L33.2092 46.0731C30.1206 46.7771 26.8974 46.6072 23.9002 45.5816L23.7383 46.0547ZM33.3203 46.5605L33.4337 47.0475C33.7953 46.9633 34.154 46.8658 34.5085 46.7543L34.3584 46.2773L34.2083 45.8004C33.8789 45.9041 33.5447 45.9949 33.2069 46.0736L33.3203 46.5605ZM34.3584 46.2773L34.5101 46.7538C35.2559 46.5162 36.2492 46.2183 36.9938 45.6782L36.7002 45.2734L36.4066 44.8687C35.8203 45.294 35.004 45.547 34.2067 45.8009L34.3584 46.2773ZM36.7002 45.2734L36.9982 45.675C37.0528 45.6344 37.1179 45.5714 37.1659 45.4795L36.7227 45.248L36.2794 45.0166C36.3169 44.9449 36.3658 44.8989 36.4022 44.8719L36.7002 45.2734ZM36.7227 45.248L37.1661 45.4791C37.2015 45.4112 37.2279 45.3276 37.2311 45.2331L36.7314 45.2158L36.2317 45.1985C36.2342 45.1265 36.2542 45.065 36.2793 45.017L36.7227 45.248ZM36.7314 45.2158H37.2314V42.8047H36.7314H36.2314V45.2158H36.7314ZM36.7314 42.8047L37.2314 42.7971C37.23 42.7044 37.2059 42.6207 37.1719 42.552L36.7236 42.7734L36.2754 42.9949C36.2508 42.9452 36.2326 42.8837 36.2315 42.8123L36.7314 42.8047ZM36.7236 42.7734L37.1705 42.5491C37.1383 42.4849 37.0877 42.4141 37.0115 42.3547L36.7041 42.749L36.3967 43.1434C36.3371 43.0969 36.2995 43.0431 36.2768 42.9977L36.7236 42.7734ZM36.7041 42.749L37.0131 42.3559C36.9498 42.3062 36.8733 42.2677 36.7879 42.2481L36.6758 42.7354L36.5637 43.2226C36.4987 43.2077 36.4419 43.1789 36.3951 43.1421L36.7041 42.749ZM36.6758 42.7354L36.7838 42.2472C36.705 42.2297 36.6182 42.2281 36.5314 42.2481L36.6436 42.7354L36.7557 43.2226C36.6896 43.2378 36.6258 43.2364 36.5677 43.2235L36.6758 42.7354ZM36.6436 42.7354L36.5273 42.2491C34.5289 42.7268 32.4812 42.9667 30.4267 42.9629L30.4258 43.4629L30.4249 43.9629C32.5584 43.9668 34.6847 43.7177 36.7598 43.2216L36.6436 42.7354ZM30.4258 43.4629V42.9629C28.7047 42.9629 27.6687 42.5551 27.0428 42.1102C26.417 41.6654 26.1558 41.1511 26.0411 40.8566L25.5752 41.0381L25.1093 41.2195C25.2722 41.6377 25.6343 42.3359 26.4634 42.9253C27.2925 43.5146 28.5429 43.9629 30.4258 43.9629V43.4629ZM25.5752 41.0381L26.0453 40.8678C25.837 40.2927 25.7043 39.6927 25.6514 39.0837L25.1533 39.127L24.6552 39.1702C24.7156 39.8664 24.8673 40.5518 25.1051 41.2083L25.5752 41.0381ZM25.1533 39.127L25.6528 39.1045C25.6559 39.1729 25.6426 39.2377 25.6179 39.2947L25.1592 39.0957L24.7005 38.8967C24.6672 38.9734 24.6498 39.0596 24.6538 39.1494L25.1533 39.127ZM25.1592 39.0957L25.6166 39.2976C25.5944 39.3478 25.5571 39.4056 25.4961 39.4557L25.1787 39.0693L24.8613 38.683C24.7835 38.7469 24.7327 38.8236 24.7018 38.8938L25.1592 39.0957ZM25.1787 39.0693L25.4944 39.457C25.4311 39.5086 25.3663 39.5326 25.3175 39.5435L25.208 39.0557L25.0986 38.5678C25.0286 38.5835 24.9431 38.6164 24.863 38.6816L25.1787 39.0693ZM25.208 39.0557L25.3165 39.5437C25.2385 39.5611 25.1695 39.5546 25.1159 39.5407L25.2412 39.0566L25.3665 38.5726C25.2917 38.5532 25.1989 38.5455 25.0995 38.5676L25.208 39.0557ZM25.2412 39.0566L25.1239 39.5427C27.1652 40.0356 29.2578 40.2837 31.3576 40.2832L31.3574 39.7832L31.3573 39.2832C29.3366 39.2837 27.3228 39.0449 25.3586 38.5706L25.2412 39.0566ZM31.3574 39.7832L31.3574 40.2832C31.8514 40.2832 32.3526 40.2836 32.856 40.2703L32.8428 39.7705L32.8296 39.2707C32.3419 39.2836 31.8544 39.2832 31.3574 39.2832L31.3574 39.7832ZM32.8428 39.7705L32.8568 40.2703C34.9312 40.2121 37.1511 40.1048 39.2336 39.6977L39.1377 39.207L39.0418 38.7163C37.0469 39.1063 34.8986 39.2126 32.8287 39.2707L32.8428 39.7705ZM39.1377 39.207L39.2357 39.6973C39.2555 39.6934 39.3532 39.6768 39.4269 39.6547L39.2832 39.1758L39.1395 38.6969C39.1403 38.6966 39.1347 38.6983 39.1152 38.7022C39.106 38.704 39.0961 38.7059 39.0829 38.7084C39.0706 38.7107 39.0554 38.7136 39.0397 38.7167L39.1377 39.207ZM39.2832 39.1758L39.3776 39.6668C41.0473 39.3458 42.7178 38.6741 44.0151 37.4084C45.321 36.1342 46.2069 34.2988 46.3691 31.7357L45.8701 31.7041L45.3711 31.6725C45.2224 34.0223 44.4226 35.6137 43.3168 36.6926C42.2024 37.7799 40.7349 38.3876 39.1888 38.6848L39.2832 39.1758ZM45.8701 31.7041L46.3692 31.7341C46.3818 31.5241 46.4111 29.6791 46.4111 29.4776L45.9111 29.4775L45.4111 29.4775C45.4111 29.6796 45.3816 31.4974 45.371 31.6741L45.8701 31.7041ZM45.9111 29.4775L46.4111 29.4786C46.4125 28.8498 46.631 24.622 46.3765 22.036L45.8789 22.085L45.3813 22.1339C45.6295 24.6559 45.4127 28.7411 45.4111 29.4765L45.9111 29.4775ZM45.8789 22.085L46.3745 22.0184C45.8786 18.3285 42.6848 15.4695 38.9482 14.9165L38.875 15.4111L38.8018 15.9057C42.1623 16.4031 44.9551 18.9651 45.3834 22.1516L45.8789 22.085ZM38.875 15.4111L38.9483 14.9165C38.3233 14.8239 36.03 14.5 30.7529 14.5L30.7529 15L30.7529 15.5C35.9851 15.5 38.2293 15.8209 38.8017 15.9057L38.875 15.4111ZM30.7529 15V14.5H30.7139V15V15.5H30.7529V15ZM35.9766 20.0908V20.5908C37.338 20.5908 38.4044 21.0637 39.2248 21.9768L39.5967 21.6426L39.9686 21.3084C38.9463 20.1707 37.6029 19.5908 35.9766 19.5908V20.0908ZM39.5967 21.6426L39.2189 21.9701C40.0101 22.8826 40.4326 24.141 40.4326 25.8018L40.9326 25.8018L41.4326 25.8017C41.4326 23.9703 40.9638 22.4561 39.9745 21.315L39.5967 21.6426ZM40.9326 25.8018L40.4326 25.8016L40.4297 34.3436L40.9297 34.3438L41.4297 34.3439L41.4326 25.8019L40.9326 25.8018ZM40.9297 34.3438V33.8438H37.5479V34.3438V34.8438H40.9297V34.3438ZM37.5479 34.3438H38.0479V26.0537H37.5479H37.0479V34.3438H37.5479ZM37.5479 26.0537H38.0479C38.0479 25.1241 37.8562 24.3296 37.3844 23.7619C36.898 23.1765 36.1868 22.9181 35.3438 22.918L35.3438 23.418L35.3437 23.918C35.9784 23.918 36.3692 24.1048 36.6154 24.4011C36.8762 24.7149 37.0479 25.2382 37.0479 26.0537H37.5479ZM35.3438 23.418V22.918C34.4149 22.918 33.6427 23.2256 33.1205 23.8977C32.6166 24.5463 32.4053 25.4593 32.4053 26.5508L32.9053 26.5508L33.4053 26.5508C33.4053 25.5627 33.6009 24.9092 33.9101 24.5113C34.201 24.137 34.648 23.918 35.3438 23.918V23.418ZM32.9053 26.5508H32.4053V31.0889H32.9053H33.4053V26.5508H32.9053ZM32.9053 31.0889V30.5889H29.5439V31.0889V31.5889H32.9053V31.0889ZM29.5439 31.0889H30.0439V26.5508H29.5439H29.0439V31.0889H29.5439ZM29.5439 26.5508L30.0439 26.5508C30.0439 25.459 29.832 24.546 29.3276 23.8975C28.8049 23.2255 28.0324 22.918 27.1035 22.918V23.418V23.918C27.7993 23.918 28.247 24.137 28.5383 24.5115C28.8479 24.9095 29.0439 25.5629 29.0439 26.5508L29.5439 26.5508ZM27.1035 23.418L27.1035 22.918C26.264 22.918 25.5539 23.177 25.067 23.7614C24.5945 24.3285 24.4002 25.1226 24.3994 26.0533L24.8994 26.0537L25.3994 26.0541C25.4001 25.2396 25.5734 24.7159 25.8353 24.4015C26.0828 24.1043 26.474 23.918 27.1036 23.918L27.1035 23.418ZM24.8994 26.0537H24.3994V34.3438H24.8994H25.3994V26.0537H24.8994ZM24.8994 34.3438V33.8438H21.5205V34.3438V34.8438H24.8994V34.3438ZM21.5205 34.3438H22.0205V25.8018H21.5205H21.0205V34.3438H21.5205ZM21.5205 25.8018L22.0205 25.8018C22.0205 24.142 22.443 22.8836 23.2344 21.9699L22.8564 21.6426L22.4785 21.3152C21.4894 22.4571 21.0206 23.9711 21.0205 25.8017L21.5205 25.8018ZM22.8564 21.6426L23.2289 21.9762C24.0461 21.0639 25.1116 20.5908 26.4746 20.5908V20.0908V19.5908C24.847 19.5908 23.5036 20.1706 22.484 21.309L22.8564 21.6426ZM26.4746 20.0908L26.4746 20.5908C28.0549 20.5908 29.1965 21.1866 29.9665 22.3619L30.3848 22.0879L30.803 21.8139C29.8292 20.3275 28.3558 19.5908 26.4746 19.5908L26.4746 20.0908ZM30.3848 22.0879L29.9552 22.3438L30.797 23.7569L31.2266 23.501L31.6561 23.2451L30.8143 21.832L30.3848 22.0879ZM31.2266 23.501L31.656 23.7571L32.4988 22.344L32.0693 22.0879L31.6399 21.8318L30.7971 23.2449L31.2266 23.501ZM32.0693 22.0879L32.4876 22.3619C33.2576 21.1866 34.3995 20.5909 35.9766 20.5908L35.9766 20.0908L35.9765 19.5908C34.0983 19.5909 32.6248 20.3277 31.6511 21.8139L32.0693 22.0879Z" fill="#E8E7E0"/>
</svg>
