<svg width="62" height="62" viewBox="0 0 62 62" fill="none" xmlns="http://www.w3.org/2000/svg">
<path d="M38.6875 15.9707L38.8415 15.495L38.8414 15.495L38.6875 15.9707ZM23.5088 16.7764L23.2954 16.3242L23.2954 16.3242L23.5088 16.7764ZM16.3945 30.3867L15.8946 30.381L15.8946 30.3811L16.3945 30.3867ZM23.5537 46.999L23.56 46.4991L23.56 46.4991L23.5537 46.999ZM31.6445 37.4785L31.2437 37.1796L31.2437 37.1796L31.6445 37.4785ZM38.0449 33.9873L38.165 34.4727L38.1651 34.4727L38.0449 33.9873ZM45.6094 24.6133L45.1094 24.614L45.1094 24.614L45.6094 24.6133ZM31 1V1.5C47.2924 1.5 60.5 14.7076 60.5 31H61H61.5C61.5 14.1553 47.8447 0.5 31 0.5V1ZM61 31H60.5C60.5 47.2924 47.2924 60.5 31 60.5V61V61.5C47.8447 61.5 61.5 47.8447 61.5 31H61ZM31 61V60.5C14.7076 60.5 1.5 47.2924 1.5 31H1H0.5C0.5 47.8447 14.1553 61.5 31 61.5V61ZM1 31H1.5C1.5 14.7076 14.7076 1.5 31 1.5V1V0.5C14.1553 0.5 0.5 14.1553 0.5 31H1ZM38.6875 15.9707L38.8414 15.495C34.0951 13.959 27.8478 14.1763 23.2954 16.3242L23.5088 16.7764L23.7221 17.2286C28.0243 15.1987 34.007 14.9815 38.5336 16.4464L38.6875 15.9707ZM23.5088 16.7764L23.2954 16.3242C17.6683 18.9796 15.9582 24.7799 15.8946 30.381L16.3945 30.3867L16.8945 30.3924C16.9566 24.93 18.6176 19.6374 23.7222 17.2285L23.5088 16.7764ZM16.3945 30.3867L15.8946 30.3811C15.8687 32.6654 15.9681 36.8531 16.9378 40.4951C17.4224 42.315 18.1348 44.0401 19.1912 45.3245C20.2601 46.6242 21.6867 47.4755 23.5474 47.499L23.5537 46.999L23.56 46.4991C22.0424 46.4799 20.8784 45.8018 19.9635 44.6893C19.036 43.5616 18.3712 41.9918 17.9042 40.2378C16.9707 36.732 16.8688 32.6562 16.8945 30.3924L16.3945 30.3867ZM23.5537 46.999L23.5474 47.499C26.3406 47.5343 27.9153 45.7222 29.0482 43.6728C29.613 42.6511 30.0935 41.524 30.5614 40.4966C31.037 39.452 31.5002 38.5086 32.0454 37.7774L31.6445 37.4785L31.2437 37.1796C30.6274 38.0062 30.126 39.0396 29.6513 40.0822C29.1688 41.1418 28.7131 42.2121 28.173 43.189C27.0963 45.1369 25.7871 46.5272 23.56 46.4991L23.5537 46.999ZM31.6445 37.4785L32.0454 37.7774C33.5823 35.7161 35.5464 35.1207 38.165 34.4727L38.0449 33.9873L37.9248 33.5019C35.3044 34.1505 33.0122 34.8078 31.2437 37.1796L31.6445 37.4785ZM38.0449 33.9873L38.1651 34.4727C42.8697 33.3081 46.1162 29.5701 46.1094 24.6126L45.6094 24.6133L45.1094 24.614C45.1155 29.0696 42.2244 32.4377 37.9248 33.502L38.0449 33.9873ZM45.6094 24.6133L46.1094 24.6126C46.1033 20.2549 42.723 16.7512 38.8415 15.495L38.6875 15.9707L38.5335 16.4464C42.1191 17.6068 45.1041 20.8 45.1094 24.614L45.6094 24.6133Z" fill="#E8E7E0"/>
</svg>
