<svg width="62" height="62" viewBox="0 0 62 62" fill="none" xmlns="http://www.w3.org/2000/svg">
<path d="M30.6777 16.0059L30.6777 16.5059L30.6834 16.5058L30.6777 16.0059ZM27.0195 16.7773L27.2208 17.235L27.2209 17.235L27.0195 16.7773ZM24.6855 18.3203L25.0293 18.6834L25.0294 18.6833L24.6855 18.3203ZM22.7363 21.1152L23.1928 21.3194L23.1928 21.3193L22.7363 21.1152ZM22.3271 27.5713H22.8271V27.5556L22.8262 27.5399L22.3271 27.5713ZM22.3271 27.5752H21.8271V27.5909L21.8281 27.6066L22.3271 27.5752ZM22.3711 28.2842L22.5792 28.7388L22.8905 28.5963L22.8702 28.2545L22.3711 28.2842ZM21.8457 28.3828L21.8457 28.8828H21.8457V28.3828ZM20.4209 28.001L20.6325 27.548L20.6315 27.5475L20.4209 28.001ZM19.8779 27.8896L19.878 27.3896H19.8779V27.8896ZM18.9189 28.1572L19.1716 28.5887L19.1718 28.5886L18.9189 28.1572ZM18.2432 29.0234L17.7521 28.9295L17.752 28.93L18.2432 29.0234ZM18.6982 30.1455L19.035 29.7759L19.0349 29.7758L18.6982 30.1455ZM19.8896 30.8281L19.7063 31.2933L19.7069 31.2935L19.8896 30.8281ZM20.3574 30.9863L20.5085 30.5097L20.5082 30.5096L20.3574 30.9863ZM22.0811 32.0068L22.5412 31.8111L22.541 31.8108L22.0811 32.0068ZM21.9297 33.0938L21.4814 32.8722L21.4779 32.8795L21.9297 33.0938ZM21.9131 33.1299L22.3725 33.3272L22.3739 33.324L21.9131 33.1299ZM20.3027 35.623L19.9239 35.2968L19.9237 35.2969L20.3027 35.623ZM18.3584 37.3389L18.0876 36.9186L18.0875 36.9186L18.3584 37.3389ZM15.6279 38.4023L15.7088 38.8958L15.709 38.8957L15.6279 38.4023ZM15.001 39.1816L14.5017 39.2092L14.5019 39.2112L15.001 39.1816ZM15.0781 39.5068L14.6176 39.7015L14.6238 39.7162L14.6309 39.7304L15.0781 39.5068ZM15.0791 39.5088L15.5386 39.3118L15.5329 39.2983L15.5263 39.2852L15.0791 39.5088ZM16.1631 40.4355L15.9528 40.8892L15.953 40.8893L16.1631 40.4355ZM19.292 41.25L19.7343 41.0168L19.6172 40.7948L19.3692 40.756L19.292 41.25ZM19.4834 41.9385L19.972 41.8325L19.9717 41.8309L19.4834 41.9385ZM19.667 42.6885L20.1467 42.5474L20.1465 42.5469L19.667 42.6885ZM20.5254 43.3135L20.5254 43.8135L20.5254 43.8135L20.5254 43.3135ZM21.2607 43.2109L21.3557 43.7018L21.3567 43.7016L21.2607 43.2109ZM22.9395 43.0205L22.9395 42.5205L22.9394 42.5205L22.9395 43.0205ZM24.1406 43.1221L24.2225 42.6288L24.2223 42.6288L24.1406 43.1221ZM26.3828 44.2803L26.0947 44.6889L26.0948 44.689L26.3828 44.2803ZM30.8027 46L30.8027 46.5H30.8027V46ZM30.9648 45.9941L30.9882 45.4947L30.9592 45.4933L30.9301 45.4953L30.9648 45.9941ZM31.1973 46L31.1973 46.5L31.1973 46.5L31.1973 46ZM35.6162 44.2803L35.9043 44.6889L35.9394 44.6642L35.9698 44.6338L35.6162 44.2803ZM35.6182 44.2783L35.3303 43.8695L35.2951 43.8943L35.2646 43.9248L35.6182 44.2783ZM37.8594 43.1221L37.7777 42.6288L37.7775 42.6288L37.8594 43.1221ZM39.0605 43.0205L39.0606 42.5205H39.0605V43.0205ZM40.7393 43.1982L40.8356 42.7076L40.8347 42.7074L40.7393 43.1982ZM41.4746 43.2881L41.5009 42.7888L41.4878 42.7881L41.4747 42.7881L41.4746 43.2881ZM41.4932 43.2891L41.4669 43.7884L41.48 43.7891H41.4932V43.2891ZM41.5117 43.2891L41.5117 43.7891L41.5117 43.7891L41.5117 43.2891ZM42.333 42.6748L41.8535 42.5331L41.8532 42.5343L42.333 42.6748ZM42.5176 41.9316L42.0292 41.8243L42.0291 41.8248L42.5176 41.9316ZM42.707 41.2471L42.6297 40.7531L42.3804 40.7921L42.2637 41.0158L42.707 41.2471ZM45.8369 40.4326L45.627 39.9788L45.6269 39.9789L45.8369 40.4326ZM46.9199 39.5098L47.3787 39.7086L47.3787 39.7085L46.9199 39.5098ZM46.999 39.1807L46.4998 39.1523L46.4998 39.1536L46.999 39.1807ZM46.3721 38.4014L46.291 38.8947L46.2912 38.8948L46.3721 38.4014ZM40.0869 33.1289L39.626 33.3227L39.6272 33.3256L40.0869 33.1289ZM40.0703 33.0928L39.622 33.3142L39.6252 33.3206L40.0703 33.0928ZM39.9189 32.0059L39.4589 31.8101L39.4587 31.8104L39.9189 32.0059ZM41.6416 30.9863L41.4918 30.5093L41.4907 30.5096L41.6416 30.9863ZM42.1104 30.8271L41.9271 30.3619L41.9271 30.3619L42.1104 30.8271ZM43.3867 30.0654L43.0285 29.7166L43.0282 29.717L43.3867 30.0654ZM43.7754 29.1924L44.2753 29.183L44.2753 29.1826L43.7754 29.1924ZM42.748 28.002L42.5575 28.4642L42.5686 28.4688L42.58 28.4729L42.748 28.002ZM42.0518 27.8691L42.0519 27.3691H42.0518V27.8691ZM41.4033 28.001L41.1923 27.5477L41.1919 27.5479L41.4033 28.001ZM40.0703 28.3809L40.0451 28.8802L40.0695 28.8815L40.094 28.8803L40.0703 28.3809ZM39.6289 28.2832L39.1298 28.254L39.1097 28.5964L39.422 28.7384L39.6289 28.2832ZM39.667 27.6641L39.168 27.6319L39.168 27.6329L39.667 27.6641ZM39.6729 27.5732L40.1718 27.6054L40.1719 27.6048L39.6729 27.5732ZM39.2646 21.1123L39.7211 20.9082L39.721 20.9081L39.2646 21.1123ZM37.3066 18.3096L37.65 17.9462L37.6499 17.946L37.3066 18.3096ZM34.9648 16.7666L35.1654 16.3086L35.1652 16.3085L34.9648 16.7666ZM31.2275 16L31.2275 15.5L31.2225 15.5L31.2275 16ZM31 1V1.5C47.2924 1.5 60.5 14.7076 60.5 31H61H61.5C61.5 14.1553 47.8447 0.5 31 0.5V1ZM61 31H60.5C60.5 47.2924 47.2924 60.5 31 60.5V61V61.5C47.8447 61.5 61.5 47.8447 61.5 31H61ZM31 61V60.5C14.7076 60.5 1.5 47.2924 1.5 31H1H0.5C0.5 47.8447 14.1553 61.5 31 61.5V61ZM1 31H1.5C1.5 14.7076 14.7076 1.5 31 1.5V1V0.5C14.1553 0.5 0.5 14.1553 0.5 31H1ZM30.6777 16.0059L30.6777 15.5059C29.9258 15.5059 28.4294 15.6106 26.8181 16.3197L27.0195 16.7773L27.2209 17.235C28.6627 16.6005 30.0089 16.5059 30.6777 16.5059L30.6777 16.0059ZM27.0195 16.7773L26.8182 16.3197C25.8941 16.7261 25.06 17.2769 24.3417 17.9573L24.6855 18.3203L25.0294 18.6833C25.6621 18.084 26.3991 17.5964 27.2208 17.235L27.0195 16.7773ZM24.6855 18.3203L24.3418 17.9572C23.4851 18.7683 22.7928 19.7642 22.2799 20.9111L22.7363 21.1152L23.1928 21.3193C23.6565 20.2824 24.2753 19.3972 25.0293 18.6834L24.6855 18.3203ZM22.7363 21.1152L22.2799 20.9111C21.8807 21.8037 21.743 22.9584 21.7126 24.1182C21.682 25.2879 21.7602 26.5248 21.8281 27.6027L22.3271 27.5713L22.8262 27.5399C22.7577 26.4536 22.683 25.2619 22.7123 24.1443C22.7418 23.0168 22.8769 22.0256 23.1928 21.3194L22.7363 21.1152ZM22.3271 27.5713H21.8271V27.5752H22.3271H22.8271V27.5713H22.3271ZM22.3271 27.5752L21.8281 27.6066C21.8427 27.8386 21.858 28.0793 21.872 28.3138L22.3711 28.2842L22.8702 28.2545C22.8561 28.0178 22.8407 27.7749 22.8262 27.5438L22.3271 27.5752ZM22.3711 28.2842L22.163 27.8295C22.1253 27.8468 22.0266 27.8828 21.8457 27.8828V28.3828V28.8828C22.1659 28.8828 22.407 28.8176 22.5792 28.7388L22.3711 28.2842ZM21.8457 28.3828L21.8457 27.8828C21.5423 27.8828 21.1379 27.784 20.6325 27.548L20.4209 28.001L20.2093 28.454C20.7882 28.7244 21.3426 28.8828 21.8457 28.8828L21.8457 28.3828ZM20.4209 28.001L20.6315 27.5475C20.3968 27.4385 20.1407 27.3897 19.878 27.3896L19.8779 27.8896L19.8779 28.3896C20.017 28.3897 20.126 28.4153 20.2103 28.4545L20.4209 28.001ZM19.8779 27.8896V27.3896C19.4617 27.3896 19.034 27.5102 18.6661 27.7259L18.9189 28.1572L19.1718 28.5886C19.3943 28.4581 19.6485 28.3896 19.8779 28.3896V27.8896ZM18.9189 28.1572L18.6663 27.7258C18.2017 27.9978 17.8505 28.4152 17.7521 28.9295L18.2432 29.0234L18.7343 29.1174C18.7662 28.9503 18.8935 28.7516 19.1716 28.5887L18.9189 28.1572ZM18.2432 29.0234L17.752 28.93C17.6822 29.2965 17.7162 29.9276 18.3616 30.5152L18.6982 30.1455L19.0349 29.7758C18.8501 29.6076 18.7783 29.4613 18.7486 29.3597C18.718 29.2548 18.7244 29.1692 18.7343 29.1169L18.2432 29.0234ZM18.6982 30.1455L18.3615 30.5151C18.6959 30.8198 19.1577 31.0771 19.7063 31.2933L19.8896 30.8281L20.073 30.3629C19.5865 30.1712 19.2465 29.9686 19.035 29.7759L18.6982 30.1455ZM19.8896 30.8281L19.7069 31.2935C19.8618 31.3543 20.041 31.4107 20.2067 31.4631L20.3574 30.9863L20.5082 30.5096C20.3326 30.4541 20.1891 30.4085 20.0724 30.3627L19.8896 30.8281ZM20.3574 30.9863L20.2064 31.463C20.5089 31.5588 20.8439 31.6659 21.131 31.8088C21.4349 31.9601 21.5774 32.1003 21.6211 32.2028L22.0811 32.0068L22.541 31.8108C22.3509 31.3646 21.9278 31.0884 21.5765 30.9136C21.2084 30.7304 20.7985 30.6016 20.5085 30.5097L20.3574 30.9863ZM22.0811 32.0068L21.6209 32.2025C21.6545 32.2814 21.6754 32.4797 21.4814 32.8722L21.9297 33.0938L22.3779 33.3153C22.6212 32.8231 22.7443 32.2887 22.5412 31.8111L22.0811 32.0068ZM21.9297 33.0938L21.4779 32.8795C21.4748 32.886 21.4629 32.9106 21.4523 32.9358L21.9131 33.1299L22.3739 33.324C22.3732 33.3256 22.3732 33.3256 22.3745 33.3227C22.3751 33.3214 22.3759 33.3196 22.3771 33.3171C22.3778 33.3158 22.3784 33.3145 22.3791 33.3129C22.3798 33.3115 22.3806 33.3097 22.3815 33.308L21.9297 33.0938ZM21.9131 33.1299L21.4537 32.9326C21.4097 33.0349 20.9238 34.1357 19.9239 35.2968L20.3027 35.623L20.6816 35.9493C21.7728 34.6821 22.3067 33.4803 22.3725 33.3272L21.9131 33.1299ZM20.3027 35.623L19.9237 35.2969C19.3579 35.9545 18.7391 36.4988 18.0876 36.9186L18.3584 37.3389L18.6292 37.7592C19.3688 37.2826 20.0591 36.6727 20.6817 35.9492L20.3027 35.623ZM18.3584 37.3389L18.0875 36.9186C17.2939 37.4301 16.4393 37.7624 15.5469 37.909L15.6279 38.4023L15.709 38.8957C16.7417 38.7261 17.7249 38.342 18.6292 37.7592L18.3584 37.3389ZM15.6279 38.4023L15.5471 37.9089C14.9178 38.012 14.4666 38.5719 14.5017 39.2092L15.001 39.1816L15.5002 39.1541C15.4933 39.0283 15.5822 38.9165 15.7088 38.8958L15.6279 38.4023ZM15.001 39.1816L14.5019 39.2112C14.5119 39.3799 14.5515 39.5451 14.6176 39.7015L15.0781 39.5068L15.5387 39.3121C15.5152 39.2567 15.5031 39.2029 15.5001 39.152L15.001 39.1816ZM15.0781 39.5068L14.6309 39.7304L14.6319 39.7324L15.0791 39.5088L15.5263 39.2852L15.5253 39.2832L15.0781 39.5068ZM15.0791 39.5088L14.6196 39.7058C14.8439 40.229 15.332 40.6014 15.9528 40.8892L16.1631 40.4355L16.3734 39.9819C15.8419 39.7355 15.62 39.5015 15.5386 39.3118L15.0791 39.5088ZM16.1631 40.4355L15.953 40.8893C16.72 41.2444 17.827 41.527 19.2147 41.744L19.292 41.25L19.3692 40.756C18.013 40.5439 17.0141 40.2786 16.3732 39.9818L16.1631 40.4355ZM19.292 41.25L18.8497 41.4832C18.8473 41.4786 18.8545 41.4924 18.8688 41.5363C18.8817 41.5759 18.8959 41.6257 18.9109 41.6839C18.9412 41.8009 18.9697 41.9308 18.9951 42.046L19.4834 41.9385L19.9717 41.8309C19.9472 41.7199 19.9147 41.5714 19.8791 41.4335C19.8475 41.3116 19.8 41.1414 19.7343 41.0168L19.292 41.25ZM19.4834 41.9385L18.9948 42.0445C19.0466 42.2836 19.1041 42.5477 19.1875 42.8301L19.667 42.6885L20.1465 42.5469C20.0749 42.3044 20.0244 42.074 19.972 41.8325L19.4834 41.9385ZM19.667 42.6885L19.1873 42.8295C19.2455 43.0276 19.3591 43.2774 19.5845 43.4798C19.8196 43.6908 20.1359 43.8135 20.5254 43.8135V43.3135V42.8135C20.3574 42.8135 20.2863 42.7659 20.2525 42.7356C20.209 42.6966 20.1721 42.6339 20.1467 42.5474L19.667 42.6885ZM20.5254 43.3135L20.5254 43.8135C20.7954 43.8135 21.0921 43.7528 21.3557 43.7018L21.2607 43.2109L21.1658 42.72C20.8669 42.7778 20.6779 42.8135 20.5254 42.8135L20.5254 43.3135ZM21.2607 43.2109L21.3567 43.7016C21.7656 43.6216 22.2884 43.5206 22.9395 43.5205L22.9395 43.0205L22.9394 42.5205C22.1843 42.5206 21.5799 42.639 21.1647 42.7202L21.2607 43.2109ZM22.9395 43.0205V43.5205C23.3005 43.5205 23.6777 43.5522 24.0589 43.6153L24.1406 43.1221L24.2223 42.6288C23.7901 42.5572 23.3582 42.5205 22.9395 42.5205V43.0205ZM24.1406 43.1221L24.0588 43.6153C24.7086 43.7232 25.2884 44.1205 26.0947 44.6889L26.3828 44.2803L26.6709 43.8716C25.913 43.3373 25.1408 42.7812 24.2225 42.6288L24.1406 43.1221ZM26.3828 44.2803L26.0948 44.689C27.2387 45.4952 28.6503 46.4998 30.8027 46.5L30.8027 46L30.8028 45.5C28.9963 45.4999 27.8162 44.6789 26.6709 43.8716L26.3828 44.2803ZM30.8027 46V46.5C30.8697 46.5 30.936 46.4974 30.9995 46.4929L30.9648 45.9941L30.9301 45.4953C30.8867 45.4984 30.8438 45.5 30.8027 45.5V46ZM30.9648 45.9941L30.9415 46.4936C31.0116 46.4969 31.1013 46.5 31.1973 46.5V46V45.5C31.122 45.5 31.0489 45.4975 30.9882 45.4947L30.9648 45.9941ZM31.1973 46L31.1973 46.5C33.3504 46.4999 34.7617 45.4945 35.9043 44.6889L35.6162 44.2803L35.3281 43.8716C34.1839 44.6784 33.0043 45.4999 31.1972 45.5L31.1973 46ZM35.6162 44.2803L35.9698 44.6338L35.9717 44.6319L35.6182 44.2783L35.2646 43.9248L35.2627 43.9267L35.6162 44.2803ZM35.6182 44.2783L35.906 44.6872C36.7123 44.1196 37.2915 43.7232 37.9413 43.6153L37.8594 43.1221L37.7775 42.6288C36.8597 42.7812 36.0885 43.3358 35.3303 43.8695L35.6182 44.2783ZM37.8594 43.1221L37.941 43.6154C38.3222 43.5523 38.6994 43.5205 39.0605 43.5205V43.0205V42.5205C38.6415 42.5205 38.2097 42.5573 37.7777 42.6288L37.8594 43.1221ZM39.0605 43.0205L39.0605 43.5205C39.687 43.5205 40.1839 43.5996 40.6438 43.6891L40.7393 43.1982L40.8347 42.7074C40.3448 42.6122 39.7776 42.5205 39.0606 42.5205L39.0605 43.0205ZM40.7393 43.1982L40.6429 43.6889C40.9666 43.7524 41.2433 43.7881 41.4745 43.7881L41.4746 43.2881L41.4747 42.7881C41.3364 42.7881 41.1315 42.7657 40.8356 42.7076L40.7393 43.1982ZM41.4746 43.2881L41.4483 43.7874L41.4669 43.7884L41.4932 43.2891L41.5194 42.7898L41.5009 42.7888L41.4746 43.2881ZM41.4932 43.2891V43.7891H41.5117V43.2891V42.7891H41.4932V43.2891ZM41.5117 43.2891L41.5117 43.7891C41.8091 43.789 42.0945 43.7063 42.3318 43.5288C42.5693 43.3512 42.7292 43.1008 42.8129 42.8153L42.333 42.6748L41.8532 42.5343C41.8224 42.6393 41.7756 42.696 41.7329 42.728C41.6902 42.7599 41.622 42.7891 41.5117 42.7891L41.5117 43.2891ZM42.333 42.6748L42.8125 42.8165C42.8938 42.5413 42.9521 42.2851 43.006 42.0385L42.5176 41.9316L42.0291 41.8248C41.9761 42.0672 41.9241 42.2942 41.8535 42.5331L42.333 42.6748ZM42.5176 41.9316L43.0059 42.039C43.0297 41.9306 43.0578 41.8019 43.0881 41.684C43.1032 41.6253 43.1175 41.5744 43.1306 41.5337C43.1452 41.4885 43.1526 41.474 43.1503 41.4783L42.707 41.2471L42.2637 41.0158C42.1985 41.1408 42.1508 41.3135 42.1195 41.4353C42.084 41.5735 42.052 41.7206 42.0292 41.8243L42.5176 41.9316ZM42.707 41.2471L42.7844 41.7411C44.1729 41.5236 45.2798 41.2415 46.047 40.8864L45.8369 40.4326L45.6269 39.9789C44.9859 40.2756 43.9872 40.5406 42.6297 40.7531L42.707 41.2471ZM45.8369 40.4326L46.0468 40.8864C46.6664 40.5998 47.1532 40.2289 47.3787 39.7086L46.9199 39.5098L46.4612 39.3109C46.3791 39.5004 46.1567 39.7338 45.627 39.9788L45.8369 40.4326ZM46.9199 39.5098L47.3787 39.7085C47.4469 39.5511 47.4888 39.3825 47.4983 39.2078L46.999 39.1807L46.4998 39.1536C46.4971 39.2032 46.485 39.2558 46.4611 39.311L46.9199 39.5098ZM46.999 39.1807L47.4982 39.209C47.5344 38.5714 47.082 38.011 46.4529 37.9079L46.3721 38.4014L46.2912 38.8948C46.4183 38.9156 46.5069 39.0282 46.4998 39.1523L46.999 39.1807ZM46.3721 38.4014L46.4532 37.908C44.4725 37.5825 43.0184 36.4024 42.036 35.2474C41.0541 34.0929 40.5757 33.0003 40.5466 32.9322L40.0869 33.1289L39.6272 33.3256C39.6778 33.4437 40.2031 34.6358 41.2743 35.8953C42.3451 37.1542 43.9937 38.5172 46.291 38.8947L46.3721 38.4014ZM40.0869 33.1289L40.5478 32.9351C40.5399 32.9163 40.5291 32.8918 40.5154 32.865L40.0703 33.0928L39.6252 33.3206C39.6235 33.3173 39.6237 33.3172 39.626 33.3227L40.0869 33.1289ZM40.0703 33.0928L40.5186 32.8713C40.3246 32.4786 40.3454 32.2808 40.3791 32.2013L39.9189 32.0059L39.4587 31.8104C39.2557 32.2884 39.3788 32.8219 39.622 33.3142L40.0703 33.0928ZM39.9189 32.0059L40.379 32.2017C40.4224 32.0996 40.5644 31.9597 40.8681 31.8086C41.155 31.6659 41.4898 31.5588 41.7925 31.463L41.6416 30.9863L41.4907 30.5096C41.2004 30.6015 40.7906 30.7302 40.4227 30.9133C40.0717 31.0879 39.6488 31.3639 39.4589 31.8101L39.9189 32.0059ZM41.6416 30.9863L41.7914 31.4634C41.9613 31.41 42.1399 31.3529 42.2936 31.2924L42.1104 30.8271L41.9271 30.3619C41.8112 30.4076 41.6652 30.4548 41.4918 30.5093L41.6416 30.9863ZM42.1104 30.8271L42.2936 31.2924C42.9081 31.0503 43.3997 30.7694 43.7453 30.4139L43.3867 30.0654L43.0282 29.717C42.8233 29.9277 42.4797 30.1443 41.9271 30.3619L42.1104 30.8271ZM43.3867 30.0654L43.745 30.4142C44.1743 29.9733 44.2816 29.5171 44.2753 29.183L43.7754 29.1924L43.2755 29.2018C43.2772 29.291 43.2566 29.4824 43.0285 29.7166L43.3867 30.0654ZM43.7754 29.1924L44.2753 29.1826C44.2599 28.396 43.6649 27.7982 42.9161 27.531L42.748 28.002L42.58 28.4729C43.0803 28.6514 43.2708 28.9645 43.2755 29.2022L43.7754 29.1924ZM42.748 28.002L42.9386 27.5397C42.6629 27.426 42.357 27.3692 42.0519 27.3691L42.0518 27.8691L42.0516 28.3691C42.2361 28.3692 42.4115 28.404 42.5575 28.4642L42.748 28.002ZM42.0518 27.8691V27.3691C41.8474 27.3691 41.5181 27.3961 41.1923 27.5477L41.4033 28.001L41.6143 28.4543C41.7561 28.3883 41.9226 28.3691 42.0518 28.3691V27.8691ZM41.4033 28.001L41.1919 27.5479C40.7264 27.765 40.3442 27.8673 40.0467 27.8814L40.0703 28.3809L40.094 28.8803C40.5659 28.858 41.0797 28.7037 41.6147 28.4541L41.4033 28.001ZM40.0703 28.3809L40.0955 27.8815C39.9541 27.8744 39.8719 27.8444 39.8358 27.828L39.6289 28.2832L39.422 28.7384C39.5718 28.8065 39.7772 28.8667 40.0451 28.8802L40.0703 28.3809ZM39.6289 28.2832L40.1281 28.3124C40.1397 28.114 40.1526 27.9099 40.166 27.6952L39.667 27.6641L39.168 27.6329C39.1547 27.846 39.1415 28.0531 39.1298 28.254L39.6289 28.2832ZM39.667 27.6641L40.166 27.6963L40.1718 27.6054L39.6729 27.5732L39.1739 27.5411L39.168 27.6319L39.667 27.6641ZM39.6729 27.5732L40.1719 27.6048C40.2401 26.5262 40.3187 25.2884 40.2882 24.1177C40.258 22.9571 40.1205 21.8015 39.7211 20.9082L39.2646 21.1123L38.8082 21.3164C39.1242 22.0232 39.2592 23.0153 39.2886 24.1437C39.3177 25.2621 39.2426 26.4548 39.1739 27.5417L39.6729 27.5732ZM39.2646 21.1123L39.721 20.9081C39.2059 19.7569 38.51 18.7588 37.65 17.9462L37.3066 18.3096L36.9632 18.673C37.7206 19.3886 38.3426 20.276 38.8083 21.3165L39.2646 21.1123ZM37.3066 18.3096L37.6499 17.946C36.9289 17.2653 36.0927 16.7147 35.1654 16.3086L34.9648 16.7666L34.7643 17.2246C35.5889 17.5858 36.3281 18.0733 36.9634 18.6731L37.3066 18.3096ZM34.9648 16.7666L35.1652 16.3085C33.5563 15.6047 32.0603 15.5 31.3076 15.5V16V16.5C31.9776 16.5 33.3242 16.5946 34.7644 17.2247L34.9648 16.7666ZM31.3076 16V15.5H31.2275V16V16.5H31.3076V16ZM31.2275 16L31.2225 15.5C31.0252 15.502 30.7013 15.5056 30.6721 15.5059L30.6777 16.0059L30.6834 16.5058C30.7123 16.5055 31.0357 16.502 31.2326 16.5L31.2275 16Z" fill="#E8E7E0"/>
</svg>
