<svg width="62" height="62" viewBox="0 0 62 62" fill="none" xmlns="http://www.w3.org/2000/svg">
<path d="M31.1592 15L31.1592 14.5L31.1557 14.5L31.1592 15ZM20.4648 19.6797L20.0719 19.3705L20.0719 19.3706L20.4648 19.6797ZM17.167 30.9883L16.667 30.9844V30.9883H17.167ZM17.167 31.0117L16.667 31.0117L16.667 31.0156L17.167 31.0117ZM20.4648 42.3203L20.0719 42.6294L20.0719 42.6295L20.4648 42.3203ZM31.1592 47L31.1557 47.5H31.1592V47ZM31.1787 47V47.5L31.1822 47.5L31.1787 47ZM40.6865 43.4688L40.3331 43.115L40.3331 43.115L40.6865 43.4688ZM42.71 33.9238L43.1695 33.7268L43.1695 33.7267L42.71 33.9238ZM38.5898 29.8311L38.8061 29.3802L38.806 29.3802L38.5898 29.8311ZM38.1699 29.6406L37.6707 29.6677L37.6875 29.9777L37.9727 30.1001L38.1699 29.6406ZM31.2607 22.457L31.264 21.957L31.2638 21.957L31.2607 22.457ZM31.2041 22.457L31.2041 21.957H31.2041V22.457ZM25.3506 25.4639L24.9331 25.1887L24.663 25.5985L25.0677 25.8762L25.3506 25.4639ZM27.6465 27.0391L27.3636 27.4514L27.7836 27.7395L28.064 27.3142L27.6465 27.0391ZM31.2051 25.2812L31.2051 24.7812H31.2051V25.2812ZM31.2432 25.2812L31.2385 25.7812L31.24 25.7812L31.2432 25.2812ZM34.3271 26.4688L34.7061 26.1425L34.706 26.1424L34.3271 26.4688ZM35.3037 28.8105L35.2199 29.3035L35.9101 29.4208L35.7972 28.7299L35.3037 28.8105ZM31.3574 28.6201L31.3288 28.1209L31.3287 28.1209L31.3574 28.6201ZM25.0068 34.3818L24.5075 34.4084L24.5075 34.4084L25.0068 34.3818ZM27.2959 38.335L27.0204 38.7522L27.0204 38.7522L27.2959 38.335ZM31.5557 39.4043L31.5829 39.9036L31.583 39.9035L31.5557 39.4043ZM36.3965 37.0498L36.7898 37.3585L36.7899 37.3584L36.3965 37.0498ZM38.0469 32.7275L38.3052 32.2995L37.6527 31.9056L37.5513 32.661L38.0469 32.7275ZM40.1748 35.0557L39.7153 35.2527L39.7153 35.2527L40.1748 35.0557ZM38.75 41.4512L39.1034 41.8049L39.1034 41.8049L38.75 41.4512ZM31.1689 44.1768L31.1652 44.6768L31.1726 44.6767L31.1689 44.1768ZM22.623 40.5527L23.016 40.2436L23.016 40.2436L22.623 40.5527ZM19.9346 31L19.4345 30.9959L19.4346 31.0041L19.9346 31ZM22.623 21.4473L23.016 21.7564L23.016 21.7564L22.623 21.4473ZM31.1689 17.8232L31.1727 17.3232L31.1652 17.3233L31.1689 17.8232ZM39.8643 21.4648L40.2523 21.1495L40.2523 21.1495L39.8643 21.4648ZM42.0059 25.8252L41.5238 25.958L41.6555 26.4361L42.1347 26.3083L42.0059 25.8252ZM44.6973 25.1074L44.8261 25.5905L45.3113 25.4611L45.1798 24.9765L44.6973 25.1074ZM41.9941 19.6621L41.6061 19.9775L41.6062 19.9775L41.9941 19.6621ZM31.1787 15L31.1822 14.5H31.1787V15ZM32.4785 31.4111L32.4785 30.9111H32.4785V31.4111ZM35.374 31.7051L35.8724 31.745L35.9073 31.3098L35.4808 31.2166L35.374 31.7051ZM31.4072 36.585L31.3798 36.0857L31.3791 36.0858L31.4072 36.585ZM27.7695 34.2285L27.2702 34.2551L27.2702 34.2551L27.7695 34.2285ZM31.5137 31.4395L31.5424 31.9386L31.5425 31.9386L31.5137 31.4395ZM31 1V1.5C47.2924 1.5 60.5 14.7076 60.5 31H61H61.5C61.5 14.1553 47.8447 0.5 31 0.5V1ZM61 31H60.5C60.5 47.2924 47.2924 60.5 31 60.5V61V61.5C47.8447 61.5 61.5 47.8447 61.5 31H61ZM31 61V60.5C14.7076 60.5 1.5 47.2924 1.5 31H1H0.5C0.5 47.8447 14.1553 61.5 31 61.5V61ZM1 31H1.5C1.5 14.7076 14.7076 1.5 31 1.5V1V0.5C14.1553 0.5 0.5 14.1553 0.5 31H1ZM31.1592 15L31.1557 14.5C26.3579 14.5333 22.602 16.1543 20.0719 19.3705L20.4648 19.6797L20.8578 19.9888C23.1622 17.0596 26.6025 15.5316 31.1627 15.5L31.1592 15ZM20.4648 19.6797L20.0719 19.3706C17.8309 22.2193 16.7049 26.1449 16.667 30.9844L17.167 30.9883L17.667 30.9922C17.7038 26.2932 18.7968 22.6089 20.8578 19.9888L20.4648 19.6797ZM17.167 30.9883H16.667V31.0117H17.167H17.667V30.9883H17.167ZM17.167 31.0117L16.667 31.0156C16.7049 35.855 17.8309 39.7807 20.0719 42.6294L20.4648 42.3203L20.8578 42.0112C18.7968 39.3911 17.7038 35.7068 17.667 31.0078L17.167 31.0117ZM20.4648 42.3203L20.0719 42.6295C22.602 45.8456 26.3579 47.4668 31.1557 47.5L31.1592 47L31.1626 46.5C26.6025 46.4684 23.1622 44.9404 20.8578 42.0112L20.4648 42.3203ZM31.1592 47V47.5H31.1787V47V46.5H31.1592V47ZM31.1787 47L31.1822 47.5C35.4428 47.4704 38.5119 46.3482 41.0399 43.8225L40.6865 43.4688L40.3331 43.115C38.03 45.4161 35.2342 46.4718 31.1752 46.5L31.1787 47ZM40.6865 43.4688L41.0399 43.8225C44.3717 40.4938 44.2757 36.3073 43.1695 33.7268L42.71 33.9238L42.2504 34.1208C43.2273 36.3998 43.3221 40.1289 40.3331 43.115L40.6865 43.4688ZM42.71 33.9238L43.1695 33.7267C42.3678 31.8578 40.8474 30.3595 38.8061 29.3802L38.5898 29.8311L38.3736 30.2819C40.2288 31.1719 41.5574 32.5053 42.2504 34.1209L42.71 33.9238ZM38.5898 29.8311L38.806 29.3802C38.6615 29.3109 38.5149 29.2446 38.3671 29.1812L38.1699 29.6406L37.9727 30.1001C38.1086 30.1584 38.2425 30.219 38.3737 30.2819L38.5898 29.8311ZM38.1699 29.6406L38.6692 29.6135C38.5412 27.256 37.8293 25.3398 36.5492 24.0061C35.2636 22.6667 33.459 21.9712 31.264 21.957L31.2607 22.457L31.2575 22.957C33.2378 22.9698 34.7643 23.5906 35.8277 24.6985C36.8966 25.8122 37.5516 27.4744 37.6707 29.6677L38.1699 29.6406ZM31.2607 22.457L31.2638 21.957C31.2433 21.9569 31.2185 21.957 31.2041 21.957L31.2041 22.457L31.2041 22.957C31.2272 22.957 31.2407 22.9569 31.2577 22.957L31.2607 22.457ZM31.2041 22.457V21.957C28.5534 21.957 26.3121 23.0963 24.9331 25.1887L25.3506 25.4639L25.7681 25.739C26.9461 23.9515 28.8596 22.957 31.2041 22.957V22.457ZM25.3506 25.4639L25.0677 25.8762L27.3636 27.4514L27.6465 27.0391L27.9294 26.6268L25.6335 25.0516L25.3506 25.4639ZM27.6465 27.0391L28.064 27.3142C28.8867 26.0659 30.1811 25.7812 31.2051 25.7812V25.2812V24.7812C30.0212 24.7812 28.3164 25.1141 27.229 26.7639L27.6465 27.0391ZM31.2051 25.2812L31.2051 25.7812C31.2242 25.7813 31.2287 25.7811 31.2385 25.7812L31.2432 25.2812L31.2478 24.7813C31.2326 24.7811 31.2112 24.7813 31.2051 24.7813L31.2051 25.2812ZM31.2432 25.2812L31.24 25.7812C32.5218 25.7895 33.4002 26.1587 33.9483 26.7951L34.3271 26.4688L34.706 26.1424C33.9112 25.2197 32.7141 24.7907 31.2464 24.7813L31.2432 25.2812ZM34.3271 26.4688L33.9482 26.795C34.3594 27.2725 34.6583 27.9618 34.8103 28.8912L35.3037 28.8105L35.7972 28.7299C35.6255 27.6799 35.2722 26.8 34.7061 26.1425L34.3271 26.4688ZM35.3037 28.8105L35.3875 28.3176C34.1269 28.1034 32.7705 28.0383 31.3288 28.1209L31.3574 28.6201L31.386 29.1193C32.7626 29.0404 34.0428 29.1034 35.2199 29.3035L35.3037 28.8105ZM31.3574 28.6201L31.3287 28.1209C29.2569 28.2403 27.5089 28.9069 26.2932 30.01C25.0692 31.1205 24.4139 32.6495 24.5075 34.4084L25.0068 34.3818L25.5061 34.3552C25.4285 32.8969 25.9635 31.6594 26.9651 30.7506C27.975 29.8343 29.488 29.2286 31.3862 29.1193L31.3574 28.6201ZM25.0068 34.3818L24.5075 34.4084C24.6031 36.2022 25.5018 37.7496 27.0204 38.7522L27.2959 38.335L27.5714 37.9177C26.3116 37.086 25.5845 35.8255 25.5061 34.3552L25.0068 34.3818ZM27.2959 38.335L27.0204 38.7522C28.295 39.5936 29.917 39.9945 31.5829 39.9036L31.5557 39.4043L31.5284 38.905C30.0499 38.9858 28.6459 38.627 27.5713 37.9177L27.2959 38.335ZM31.5557 39.4043L31.583 39.9035C33.7821 39.7829 35.5527 38.9352 36.7898 37.3585L36.3965 37.0498L36.0031 36.7412C34.9677 38.0607 33.4811 38.7979 31.5283 38.905L31.5557 39.4043ZM36.3965 37.0498L36.7899 37.3584C37.7216 36.1708 38.2929 34.6536 38.5424 32.794L38.0469 32.7275L37.5513 32.661C37.3188 34.3938 36.7974 35.7288 36.0031 36.7412L36.3965 37.0498ZM38.0469 32.7275L37.7885 33.1556C38.705 33.7088 39.3586 34.4207 39.7153 35.2527L40.1748 35.0557L40.6344 34.8586C40.1811 33.8014 39.3676 32.9406 38.3052 32.2995L38.0469 32.7275ZM40.1748 35.0557L39.7153 35.2527C40.3356 36.6997 40.3837 39.112 38.3966 41.0975L38.75 41.4512L39.1034 41.8049C41.4223 39.488 41.391 36.6234 40.6343 34.8586L40.1748 35.0557ZM38.75 41.4512L38.3966 41.0974C36.6273 42.865 34.5001 43.6523 31.1653 43.6768L31.1689 44.1768L31.1726 44.6767C34.692 44.6509 37.0997 43.8066 39.1034 41.8049L38.75 41.4512ZM31.1689 44.1768L31.1726 43.6768C27.4804 43.6494 24.7677 42.4704 23.016 40.2436L22.623 40.5527L22.2301 40.8619C24.2169 43.3877 27.2544 44.6478 31.1652 44.6767L31.1689 44.1768ZM22.623 40.5527L23.016 40.2436C21.359 38.1371 20.4678 35.0473 20.4346 30.9959L19.9346 31L19.4346 31.0041C19.4688 35.18 20.3863 38.518 22.2301 40.8619L22.623 40.5527ZM19.9346 31L20.4346 31.0041C20.4678 26.9527 21.359 23.8629 23.016 21.7564L22.623 21.4473L22.2301 21.1381C20.3863 23.482 19.4688 26.82 19.4346 30.9959L19.9346 31ZM22.623 21.4473L23.016 21.7564C24.7677 19.5296 27.4803 18.3507 31.1727 18.3232L31.1689 17.8232L31.1652 17.3233C27.2544 17.3523 24.2169 18.6123 22.2301 21.1381L22.623 21.4473ZM31.1689 17.8232L31.1652 18.3232C34.8849 18.3509 37.6521 19.536 39.4763 21.7802L39.8643 21.4648L40.2523 21.1495C38.1948 18.6182 35.1112 17.3526 31.1727 17.3233L31.1689 17.8232ZM39.8643 21.4648L39.4762 21.7802C40.376 22.8874 41.0654 24.2942 41.5238 25.958L42.0059 25.8252L42.4879 25.6924C42.0003 23.9226 41.2556 22.3841 40.2523 21.1495L39.8643 21.4648ZM42.0059 25.8252L42.1347 26.3083L44.8261 25.5905L44.6973 25.1074L44.5684 24.6243L41.877 25.3421L42.0059 25.8252ZM44.6973 25.1074L45.1798 24.9765C44.5906 22.8047 43.6594 20.918 42.3821 19.3467L41.9941 19.6621L41.6062 19.9775C42.7843 21.4268 43.6572 23.1835 44.2147 25.2383L44.6973 25.1074ZM41.9941 19.6621L42.3821 19.3467C39.7818 16.1476 35.9887 14.5335 31.1822 14.5L31.1787 15L31.1752 15.5C35.7456 15.5318 39.2303 17.0546 41.6061 19.9775L41.9941 19.6621ZM31.1787 15V14.5H31.1592V15V15.5H31.1787V15ZM32.4785 31.4111L32.4785 31.9111C33.4859 31.9111 34.4223 32.0088 35.2672 32.1935L35.374 31.7051L35.4808 31.2166C34.5581 31.0149 33.5495 30.9111 32.4785 30.9111L32.4785 31.4111ZM35.374 31.7051L34.8756 31.6652C34.7163 33.6554 34.1767 34.7125 33.5633 35.2894C32.951 35.8653 32.1825 36.0416 31.3798 36.0857L31.4072 36.585L31.4347 37.0842C32.3354 37.0347 33.3855 36.8294 34.2484 36.0179C35.1101 35.2074 35.7022 33.8714 35.8724 31.745L35.374 31.7051ZM31.4072 36.585L31.3791 36.0858C30.5842 36.1305 29.7983 35.9714 29.2189 35.6376C28.6521 35.311 28.3025 34.8347 28.2688 34.2019L27.7695 34.2285L27.2702 34.2551C27.3257 35.2951 27.9249 36.0461 28.7197 36.504C29.5019 36.9547 30.4902 37.1374 31.4353 37.0842L31.4072 36.585ZM27.7695 34.2285L28.2688 34.202C28.2435 33.7262 28.4088 33.22 28.8763 32.8044C29.3525 32.381 30.1833 32.0169 31.5424 31.9386L31.5137 31.4395L31.4849 30.9403C29.9833 31.0268 28.909 31.4372 28.2118 32.057C27.506 32.6846 27.2296 33.4906 27.2702 34.2551L27.7695 34.2285ZM31.5137 31.4395L31.5425 31.9386C31.8608 31.9203 32.1727 31.9111 32.4785 31.9111V31.4111V30.9111C32.1528 30.9111 31.8217 30.9209 31.4849 30.9403L31.5137 31.4395Z" fill="#E8E7E0"/>
</svg>
