<svg width="62" height="62" viewBox="0 0 62 62" fill="none" xmlns="http://www.w3.org/2000/svg">
<path d="M22.999 15V14.5H22.7919L22.6455 14.6464L22.999 15ZM17.2852 20.7139L16.9316 20.3603L16.7852 20.5068V20.7139H17.2852ZM17.2852 41.2861H16.7852V41.7861H17.2852V41.2861ZM24.1426 41.2861H24.6426V40.7861H24.1426V41.2861ZM24.1426 47H23.6426V48.2071L24.4961 47.3536L24.1426 47ZM29.8564 41.2861V40.7861H29.6493L29.5029 40.9326L29.8564 41.2861ZM34.4277 41.2861V41.7861H34.6348L34.7813 41.6397L34.4277 41.2861ZM44.7139 31L45.0674 31.3536L45.2139 31.2071V31H44.7139ZM44.7139 15H45.2139V14.5H44.7139V15ZM42.4277 17.2861H42.9277V16.7861H42.4277V17.2861ZM42.4277 29.8574L42.7813 30.211L42.9277 30.0645V29.8574H42.4277ZM37.8564 34.4287V34.9287H38.0636L38.21 34.7823L37.8564 34.4287ZM33.2852 34.4287V33.9287H33.078L32.9316 34.0752L33.2852 34.4287ZM29.2852 38.4287H28.7852V39.6358L29.6387 38.7823L29.2852 38.4287ZM29.2852 34.4287H29.7852V33.9287H29.2852V34.4287ZM24.1426 34.4287H23.6426V34.9287H24.1426V34.4287ZM24.1426 17.2861V16.7861H23.6426V17.2861H24.1426ZM30.4297 21.2861V20.7861H29.9297V21.2861H30.4297ZM30.4297 28.1426H29.9297V28.6426H30.4297V28.1426ZM32.7158 28.1426V28.6426H33.2158V28.1426H32.7158ZM32.7158 21.2861H33.2158V20.7861H32.7158V21.2861ZM36.7148 21.2861V20.7861H36.2148V21.2861H36.7148ZM36.7148 28.1426H36.2148V28.6426H36.7148V28.1426ZM39.001 28.1426V28.6426H39.501V28.1426H39.001ZM39.001 21.2861H39.501V20.7861H39.001V21.2861ZM31 1V1.5C47.2924 1.5 60.5 14.7076 60.5 31H61H61.5C61.5 14.1553 47.8447 0.5 31 0.5V1ZM61 31H60.5C60.5 47.2924 47.2924 60.5 31 60.5V61V61.5C47.8447 61.5 61.5 47.8447 61.5 31H61ZM31 61V60.5C14.7076 60.5 1.5 47.2924 1.5 31H1H0.5C0.5 47.8447 14.1553 61.5 31 61.5V61ZM1 31H1.5C1.5 14.7076 14.7076 1.5 31 1.5V1V0.5C14.1553 0.5 0.5 14.1553 0.5 31H1ZM22.999 15L22.6455 14.6464L16.9316 20.3603L17.2852 20.7139L17.6387 21.0674L23.3526 15.3536L22.999 15ZM17.2852 20.7139H16.7852V41.2861H17.2852H17.7852V20.7139H17.2852ZM17.2852 41.2861V41.7861H24.1426V41.2861V40.7861H17.2852V41.2861ZM24.1426 41.2861H23.6426V47H24.1426H24.6426V41.2861H24.1426ZM24.1426 47L24.4961 47.3536L30.21 41.6397L29.8564 41.2861L29.5029 40.9326L23.789 46.6464L24.1426 47ZM29.8564 41.2861V41.7861H34.4277V41.2861V40.7861H29.8564V41.2861ZM34.4277 41.2861L34.7813 41.6397L45.0674 31.3536L44.7139 31L44.3603 30.6464L34.0742 40.9326L34.4277 41.2861ZM44.7139 31H45.2139V15H44.7139H44.2139V31H44.7139ZM44.7139 15V14.5H22.999V15V15.5H44.7139V15ZM42.4277 17.2861H41.9277V29.8574H42.4277H42.9277V17.2861H42.4277ZM42.4277 29.8574L42.0742 29.5039L37.5029 34.0752L37.8564 34.4287L38.21 34.7823L42.7813 30.211L42.4277 29.8574ZM37.8564 34.4287V33.9287H33.2852V34.4287V34.9287H37.8564V34.4287ZM33.2852 34.4287L32.9316 34.0752L28.9316 38.0752L29.2852 38.4287L29.6387 38.7823L33.6387 34.7823L33.2852 34.4287ZM29.2852 38.4287H29.7852V34.4287H29.2852H28.7852V38.4287H29.2852ZM29.2852 34.4287V33.9287H24.1426V34.4287V34.9287H29.2852V34.4287ZM24.1426 34.4287H24.6426V17.2861H24.1426H23.6426V34.4287H24.1426ZM24.1426 17.2861V17.7861H42.4277V17.2861V16.7861H24.1426V17.2861ZM30.4297 21.2861H29.9297V28.1426H30.4297H30.9297V21.2861H30.4297ZM30.4297 28.1426V28.6426H32.7158V28.1426V27.6426H30.4297V28.1426ZM32.7158 28.1426H33.2158V21.2861H32.7158H32.2158V28.1426H32.7158ZM32.7158 21.2861V20.7861H30.4297V21.2861V21.7861H32.7158V21.2861ZM36.7148 21.2861H36.2148V28.1426H36.7148H37.2148V21.2861H36.7148ZM36.7148 28.1426V28.6426H39.001V28.1426V27.6426H36.7148V28.1426ZM39.001 28.1426H39.501V21.2861H39.001H38.501V28.1426H39.001ZM39.001 21.2861V20.7861H36.7148V21.2861V21.7861H39.001V21.2861Z" fill="#E8E7E0"/>
</svg>
