<svg width="62" height="62" viewBox="0 0 62 62" fill="none" xmlns="http://www.w3.org/2000/svg">
<path d="M30.9941 19.7441L30.9941 20.2441H30.9941V19.7441ZM19.7998 20.0684L19.7636 19.5697L19.7519 19.5705L19.7403 19.5719L19.7998 20.0684ZM16.5938 21.4248L16.9485 21.7773L16.9552 21.7703L16.5938 21.4248ZM15.3252 24.5996L14.83 24.5301L14.8291 24.5374L15.3252 24.5996ZM15 29.7812L14.5 29.7812V29.7812H15ZM15.3184 37.3877L14.822 37.4486L14.8233 37.4581L15.3184 37.3877ZM16.5879 40.5625L16.9494 40.2169L16.9437 40.2112L16.5879 40.5625ZM20.1191 41.9316L20.0244 42.4226L20.0479 42.4271L20.0718 42.4294L20.1191 41.9316ZM31 42.25L30.9955 42.75L31.0009 42.75L31 42.25ZM42.2002 41.9189L42.2357 42.4177L42.2478 42.4168L42.2597 42.4154L42.2002 41.9189ZM45.4062 40.5625L45.0515 40.21L45.0448 40.217L45.4062 40.5625ZM46.6816 37.3877L47.1767 37.4581L47.1779 37.4487L46.6816 37.3877ZM47 29.7812L47.5 29.7812L47.5 29.7812L47 29.7812ZM46.6816 24.5996L47.178 24.5387L47.1766 24.5288L46.6816 24.5996ZM45.4062 21.4248L45.0448 21.7704L45.0516 21.7772L45.4062 21.4248ZM42.2002 20.0684L42.2598 19.5719L42.2481 19.5705L42.2364 19.5697L42.2002 20.0684ZM31.0059 19.7441L31.0059 20.2441L31.0059 20.2441L31.0059 19.7441ZM36.3379 30.6689L36.568 31.1128L37.4213 30.6705L36.5693 30.2257L36.3379 30.6689ZM27.6934 35.1504H27.1934V35.9728L27.9235 35.5943L27.6934 35.1504ZM27.6934 26.1562L27.9247 25.713L27.1934 25.3312V26.1562H27.6934ZM31 1V1.5C47.2924 1.5 60.5 14.7076 60.5 31H61H61.5C61.5 14.1553 47.8447 0.5 31 0.5V1ZM61 31H60.5C60.5 47.2924 47.2924 60.5 31 60.5V61V61.5C47.8447 61.5 61.5 47.8447 61.5 31H61ZM31 61V60.5C14.7076 60.5 1.5 47.2924 1.5 31H1H0.5C0.5 47.8447 14.1553 61.5 31 61.5V61ZM1 31H1.5C1.5 14.7076 14.7076 1.5 31 1.5V1V0.5C14.1553 0.5 0.5 14.1553 0.5 31H1ZM30.9941 19.7441C30.9942 19.2441 30.9942 19.2441 30.9941 19.2441C30.994 19.2441 30.994 19.2441 30.9938 19.2441C30.9936 19.2441 30.9933 19.2441 30.9929 19.2441C30.992 19.2441 30.9908 19.2441 30.9891 19.2441C30.9858 19.2441 30.9809 19.2441 30.9744 19.2441C30.9614 19.2442 30.9421 19.2442 30.9169 19.2442C30.8663 19.2443 30.7916 19.2444 30.6951 19.2447C30.502 19.2454 30.2214 19.2466 29.8707 19.2491C29.1695 19.2541 28.1879 19.2642 27.0661 19.2845C24.8248 19.3249 22.0152 19.4062 19.7636 19.5697L19.7998 20.0684L19.836 20.567C22.0594 20.4056 24.8469 20.3247 27.0841 20.2843C28.2015 20.2641 29.1794 20.2541 29.8779 20.2491C30.2271 20.2466 30.5064 20.2454 30.6983 20.2447C30.7942 20.2444 30.8683 20.2443 30.9183 20.2442C30.9433 20.2442 30.9623 20.2442 30.9751 20.2441C30.9814 20.2441 30.9862 20.2441 30.9894 20.2441C30.991 20.2441 30.9922 20.2441 30.993 20.2441C30.9933 20.2441 30.9936 20.2441 30.9938 20.2441C30.9939 20.2441 30.994 20.2441 30.994 20.2441C30.9941 20.2441 30.9941 20.2441 30.9941 19.7441ZM19.7998 20.0684L19.7403 19.5719C19.1512 19.6426 17.5951 19.6538 16.2323 21.0793L16.5938 21.4248L16.9552 21.7703C18.0297 20.6463 19.1984 20.6441 19.8594 20.5648L19.7998 20.0684ZM16.5938 21.4248L16.2391 21.0724C15.6686 21.6465 15.3249 22.5354 15.1239 23.2173C14.917 23.9194 14.8343 24.4998 14.8301 24.5301L15.3252 24.5996L15.8203 24.6691C15.8212 24.6627 15.8957 24.136 16.0831 23.5C16.2765 22.8439 16.5645 22.1637 16.9484 21.7772L16.5938 21.4248ZM15.3252 24.5996C14.8291 24.5374 14.8291 24.5375 14.8291 24.5375C14.8291 24.5375 14.8291 24.5376 14.829 24.5377C14.829 24.5378 14.829 24.5379 14.829 24.5381C14.8289 24.5385 14.8289 24.5391 14.8288 24.5398C14.8286 24.5412 14.8284 24.5433 14.828 24.5459C14.8274 24.5512 14.8264 24.559 14.8252 24.5692C14.8227 24.5895 14.8191 24.6193 14.8146 24.658C14.8055 24.7355 14.7927 24.8485 14.7772 24.9919C14.7464 25.2789 14.7054 25.6879 14.6643 26.1784C14.5824 27.1581 14.5 28.4685 14.5 29.7812L15 29.7812L15.5 29.7813C15.5 28.5065 15.5802 27.2261 15.6609 26.2618C15.7011 25.7803 15.7414 25.3792 15.7715 25.0988C15.7866 24.9587 15.7991 24.8488 15.8078 24.7742C15.8122 24.737 15.8156 24.7085 15.8179 24.6896C15.8191 24.6801 15.8199 24.673 15.8205 24.6684C15.8208 24.666 15.821 24.6643 15.8211 24.6632C15.8212 24.6627 15.8213 24.6623 15.8213 24.662C15.8213 24.6619 15.8213 24.6618 15.8213 24.6618C15.8213 24.6618 15.8213 24.6618 15.8213 24.6618C15.8213 24.6618 15.8213 24.6618 15.3252 24.5996ZM15 29.7812H14.5V32.2061H15H15.5V29.7812H15ZM15 32.2061H14.5C14.5 33.5184 14.5806 34.8285 14.6608 35.808C14.701 36.2984 14.7412 36.7074 14.7714 36.9943C14.7865 37.1377 14.7991 37.2507 14.8079 37.3281C14.8124 37.3668 14.8159 37.3966 14.8183 37.4169C14.8195 37.4271 14.8204 37.4348 14.8211 37.4401C14.8214 37.4428 14.8216 37.4448 14.8218 37.4462C14.8219 37.4469 14.8219 37.4475 14.822 37.4479C14.822 37.4481 14.822 37.4482 14.8221 37.4484C14.8221 37.4484 14.8221 37.4485 14.8221 37.4485C14.8221 37.4486 14.8221 37.4486 15.3184 37.3877C15.8146 37.3268 15.8146 37.3268 15.8146 37.3268C15.8146 37.3268 15.8146 37.3268 15.8146 37.3268C15.8146 37.3267 15.8146 37.3267 15.8146 37.3266C15.8146 37.3263 15.8145 37.3259 15.8145 37.3254C15.8143 37.3243 15.8141 37.3226 15.8138 37.3202C15.8133 37.3156 15.8124 37.3084 15.8113 37.299C15.809 37.28 15.8057 37.2515 15.8014 37.2143C15.7929 37.1397 15.7806 37.0298 15.7659 36.8896C15.7364 36.6092 15.6969 36.2079 15.6575 35.7264C15.5785 34.7619 15.5 33.4812 15.5 32.2061H15ZM15.3184 37.3877L14.8233 37.4581C14.8261 37.4777 14.9094 38.0565 15.117 38.7602C15.3186 39.4436 15.6631 40.3374 16.232 40.9138L16.5879 40.5625L16.9437 40.2112C16.5597 39.8222 16.2705 39.1362 16.0761 38.4772C15.8878 37.8387 15.8127 37.3128 15.8134 37.3173L15.3184 37.3877ZM16.5879 40.5625L16.2265 40.908C17.589 42.3333 19.4428 42.3103 20.0244 42.4226L20.1191 41.9316L20.2139 41.4407C19.3706 41.278 18.0242 41.3414 16.9493 40.217L16.5879 40.5625ZM20.1191 41.9316L20.0718 42.4294C22.6617 42.6757 31.0065 42.7501 30.9955 42.75L31 42.25L31.0045 41.75C30.9868 41.7499 22.7015 41.6749 20.1665 41.4339L20.1191 41.9316ZM31 42.25C31.0009 42.75 31.001 42.75 31.001 42.75C31.0011 42.75 31.0012 42.75 31.0013 42.75C31.0015 42.75 31.0018 42.75 31.0022 42.75C31.0031 42.75 31.0043 42.75 31.006 42.75C31.0093 42.75 31.0142 42.75 31.0207 42.75C31.0337 42.7499 31.053 42.7499 31.0783 42.7498C31.1289 42.7496 31.2036 42.7493 31.3002 42.7488C31.4934 42.7479 31.7742 42.7462 32.1251 42.7431C32.8268 42.7369 33.8091 42.7254 34.9315 42.7039C37.1742 42.661 39.9848 42.578 42.2357 42.4177L42.2002 41.9189L42.1647 41.4202C39.9406 41.5786 37.1511 41.6612 34.9124 41.7041C33.7942 41.7255 32.8154 41.737 32.1164 41.7431C31.7668 41.7462 31.4873 41.7479 31.2952 41.7489C31.1992 41.7493 31.125 41.7496 31.075 41.7498C31.0499 41.7499 31.0309 41.7499 31.0181 41.75C31.0118 41.75 31.007 41.75 31.0038 41.75C31.0022 41.75 31.001 41.75 31.0002 41.75C30.9998 41.75 30.9995 41.75 30.9993 41.75C30.9993 41.75 30.9992 41.75 30.9991 41.75C30.9991 41.75 30.9991 41.75 31 42.25ZM42.2002 41.9189L42.2597 42.4154C42.8489 42.3447 44.4049 42.3337 45.7677 40.908L45.4062 40.5625L45.0448 40.217C43.9703 41.3411 42.8017 41.3432 42.1406 41.4225L42.2002 41.9189ZM45.4062 40.5625L45.761 40.9149C46.3336 40.3385 46.6799 39.4443 46.8823 38.7606C47.0907 38.0567 47.1739 37.4777 47.1767 37.4581L46.6816 37.3877L46.1866 37.3173C46.1873 37.3128 46.1124 37.8385 45.9234 38.4768C45.7284 39.1354 45.438 39.8211 45.0515 40.2101L45.4062 40.5625ZM46.6816 37.3877C47.1779 37.4487 47.1779 37.4487 47.1779 37.4487C47.1779 37.4486 47.1779 37.4486 47.1779 37.4485C47.1779 37.4484 47.178 37.4482 47.178 37.448C47.178 37.4476 47.1781 37.4471 47.1782 37.4464C47.1784 37.445 47.1786 37.4429 47.1789 37.4403C47.1796 37.435 47.1805 37.4272 47.1817 37.4171C47.1841 37.3968 47.1876 37.3671 47.1921 37.3285C47.2009 37.2512 47.2135 37.1384 47.2286 36.9952C47.2588 36.7089 47.299 36.3004 47.3391 35.8104C47.4194 34.8316 47.5 33.5215 47.5 32.2061H47H46.5C46.5 33.4844 46.4215 34.7651 46.3425 35.7287C46.3031 36.2098 46.2636 36.6105 46.2341 36.8904C46.2194 37.0303 46.2071 37.14 46.1986 37.2144C46.1943 37.2516 46.191 37.28 46.1887 37.2989C46.1876 37.3084 46.1867 37.3154 46.1862 37.3201C46.1859 37.3224 46.1857 37.3241 46.1856 37.3252C46.1855 37.3258 46.1854 37.3262 46.1854 37.3264C46.1854 37.3265 46.1854 37.3266 46.1854 37.3266C46.1854 37.3267 46.1854 37.3267 46.1854 37.3267C46.1854 37.3267 46.1854 37.3266 46.6816 37.3877ZM47 32.2061H47.5V29.7812H47H46.5V32.2061H47ZM47 29.7812L47.5 29.7812C47.5 28.4689 47.4194 27.1588 47.3392 26.1793C47.299 25.6889 47.2588 25.2799 47.2286 24.9931C47.2135 24.8496 47.2009 24.7366 47.1921 24.6592C47.1876 24.6205 47.1841 24.5907 47.1817 24.5704C47.1805 24.5603 47.1796 24.5525 47.1789 24.5472C47.1786 24.5445 47.1784 24.5425 47.1782 24.5411C47.1781 24.5404 47.1781 24.5398 47.178 24.5394C47.178 24.5392 47.178 24.5391 47.1779 24.5389C47.1779 24.5389 47.1779 24.5388 47.1779 24.5388C47.1779 24.5387 47.1779 24.5387 46.6816 24.5996C46.1854 24.6605 46.1854 24.6605 46.1854 24.6605C46.1854 24.6605 46.1854 24.6605 46.1854 24.6605C46.1854 24.6606 46.1854 24.6606 46.1854 24.6608C46.1854 24.661 46.1855 24.6614 46.1855 24.6619C46.1857 24.663 46.1859 24.6648 46.1862 24.6671C46.1867 24.6717 46.1876 24.6789 46.1887 24.6883C46.191 24.7073 46.1943 24.7358 46.1986 24.773C46.2071 24.8476 46.2194 24.9575 46.2341 25.0977C46.2636 25.3781 46.3031 25.7794 46.3425 26.2609C46.4215 27.2254 46.5 28.5061 46.5 29.7813L47 29.7812ZM46.6816 24.5996L47.1766 24.5288C47.1725 24.5001 47.0882 23.92 46.8796 23.2178C46.677 22.5357 46.3313 21.6465 45.7609 21.0724L45.4062 21.4248L45.0516 21.7772C45.4363 22.1644 45.726 22.846 45.921 23.5026C46.0152 23.8195 46.0815 24.1101 46.1245 24.3235C46.146 24.4299 46.1615 24.5164 46.1717 24.5765C46.1767 24.6065 46.1805 24.6299 46.183 24.6459C46.1842 24.6539 46.1851 24.66 46.1858 24.6641C46.1861 24.6662 46.1863 24.6677 46.1864 24.6688C46.1865 24.6693 46.1866 24.6697 46.1866 24.67C46.1867 24.6703 46.1867 24.6704 46.1867 24.6704L46.6816 24.5996ZM45.4062 21.4248L45.7677 21.0793C44.4049 19.6538 42.8488 19.6426 42.2598 19.5719L42.2002 20.0684L42.1406 20.5648C42.8016 20.6441 43.9703 20.6463 45.0448 21.7703L45.4062 21.4248ZM42.2002 20.0684L42.2364 19.5697C39.9848 19.4062 37.1752 19.3249 34.9339 19.2845C33.8121 19.2642 32.8305 19.2541 32.1293 19.2491C31.7786 19.2466 31.498 19.2454 31.3049 19.2447C31.2084 19.2444 31.1337 19.2443 31.0831 19.2442C31.0579 19.2442 31.0386 19.2442 31.0256 19.2441C31.0191 19.2441 31.0142 19.2441 31.0109 19.2441C31.0092 19.2441 31.008 19.2441 31.0071 19.2441C31.0067 19.2441 31.0064 19.2441 31.0062 19.2441C31.006 19.2441 31.006 19.2441 31.0059 19.2441C31.0058 19.2441 31.0058 19.2441 31.0059 19.7441C31.0059 20.2441 31.0059 20.2441 31.006 20.2441C31.006 20.2441 31.0061 20.2441 31.0062 20.2441C31.0064 20.2441 31.0067 20.2441 31.007 20.2441C31.0078 20.2441 31.009 20.2441 31.0106 20.2441C31.0138 20.2441 31.0186 20.2441 31.0249 20.2441C31.0377 20.2442 31.0567 20.2442 31.0817 20.2442C31.1317 20.2443 31.2058 20.2444 31.3017 20.2447C31.4936 20.2454 31.7729 20.2466 32.1221 20.2491C32.8206 20.2541 33.7985 20.2641 34.9159 20.2843C37.1531 20.3247 39.9406 20.4056 42.164 20.567L42.2002 20.0684ZM31.0059 19.7441V19.2441H30.9941V19.7441V20.2441H31.0059V19.7441ZM36.3379 30.6689L36.1078 30.225L27.4632 34.7065L27.6934 35.1504L27.9235 35.5943L36.568 31.1128L36.3379 30.6689ZM27.6934 35.1504H28.1934V26.1562H27.6934H27.1934V35.1504H27.6934ZM27.6934 26.1562L27.462 26.5995L36.1065 31.1122L36.3379 30.6689L36.5693 30.2257L27.9247 25.713L27.6934 26.1562Z" fill="#E8E7E0"/>
</svg>
