<svg width="62" height="62" viewBox="0 0 62 62" fill="none" xmlns="http://www.w3.org/2000/svg">
<path d="M44.0791 17.6865C44.6509 17.6778 45.0892 17.8437 45.3965 18.2041C45.7171 18.5802 45.9648 19.2483 45.9648 20.3867C45.9648 20.8395 45.832 22.8276 45.6562 24.8711C45.5689 25.8868 45.4717 26.906 45.377 27.7412C45.2802 28.5946 45.1899 29.211 45.123 29.4531C44.6149 31.2941 43.4479 32.4368 41.9844 33.0605C40.5963 33.6521 38.9288 33.7799 37.3076 33.5488L36.9844 33.4971L36.8984 33.9902L36.8135 34.4834C39.8915 35.0147 41.6518 36.1358 42.293 37.3975C42.9054 38.6028 42.5949 40.1642 40.9492 41.877C39.3577 43.5332 38.0575 44.1846 37.0264 44.292C36.0163 44.3971 35.1629 43.9896 34.4248 43.2852C33.6782 42.5724 33.0793 41.581 32.6182 40.6084C32.1596 39.6411 31.8526 38.7261 31.6699 38.1826C31.6069 37.9949 31.5491 37.8232 31.5068 37.7236C31.496 37.6982 31.4786 37.6587 31.4551 37.6191C31.4439 37.6004 31.421 37.5639 31.3857 37.5254C31.3639 37.5016 31.2668 37.396 31.0967 37.3662C31.0646 37.3606 31.0313 37.3586 30.998 37.3594C30.9647 37.3586 30.9315 37.3606 30.8994 37.3662C30.7292 37.396 30.6322 37.5016 30.6104 37.5254C30.575 37.5639 30.5522 37.6004 30.541 37.6191C30.5175 37.6587 30.5001 37.6982 30.4893 37.7236C30.447 37.8232 30.3892 37.9949 30.3262 38.1826C30.1436 38.7261 29.8365 39.641 29.3779 40.6084C28.9169 41.581 28.3189 42.5724 27.5723 43.2852C26.834 43.9899 25.9801 44.3972 24.9697 44.292C23.9385 44.1846 22.6385 43.5332 21.0469 41.877C19.4011 40.1641 19.0905 38.6019 19.7031 37.3965C20.3446 36.135 22.105 35.0145 25.1826 34.4834L25.0977 33.9902L25.0117 33.4971C23.2905 33.7941 21.4923 33.6915 20.0117 33.0605C18.5482 32.4368 17.3801 31.2943 16.8721 29.4531C16.8052 29.211 16.7159 28.5946 16.6191 27.7412C16.5244 26.906 16.4272 25.8868 16.3398 24.8711C16.1641 22.8276 16.0312 20.8395 16.0312 20.3867C16.0313 19.2482 16.2789 18.5802 16.5996 18.2041C16.9069 17.8437 17.3452 17.6778 17.917 17.6865C19.0356 17.7038 20.4844 18.3939 21.6943 19.2666L21.9336 19.4434C23.6555 20.7544 25.4641 22.7587 27.0234 24.8154C28.5815 26.8705 29.8653 28.9443 30.5469 30.374L30.998 31.3203L31.4492 30.374C32.1308 28.9443 33.4146 26.8705 34.9727 24.8154C36.532 22.7586 38.3405 20.7543 40.0625 19.4434C41.3165 18.4886 42.8859 17.705 44.0791 17.6865ZM31.498 37.918C31.4977 37.9267 31.4958 37.9499 31.4893 37.9795C31.4856 37.9962 31.4693 38.0725 31.4111 38.1533C31.4045 38.1625 31.3936 38.1703 31.3848 38.1807C31.395 38.1524 31.4024 38.1302 31.4092 38.1143C31.4072 38.1181 31.4045 38.124 31.4004 38.1309C31.3953 38.1394 31.3779 38.1682 31.3477 38.2012C31.3352 38.2147 31.2804 38.2735 31.1855 38.3154C31.1228 38.1287 31.078 37.991 31.0469 37.918H31.498ZM30.498 37.918H30.9492C30.9181 37.9909 30.8713 38.1279 30.8086 38.3145C30.715 38.2726 30.6608 38.2147 30.6484 38.2012C30.6182 38.1681 30.6008 38.1394 30.5957 38.1309C30.5916 38.124 30.5889 38.1181 30.5869 38.1143C30.5936 38.1301 30.6001 38.1525 30.6104 38.1807C30.6017 38.1704 30.5915 38.1624 30.585 38.1533C30.5267 38.0725 30.5105 37.9962 30.5068 37.9795C30.5003 37.9498 30.4984 37.9267 30.498 37.918Z" fill="#0000FF" stroke="white"/>
<path d="M31 1V1.5C47.2924 1.5 60.5 14.7076 60.5 31H61H61.5C61.5 14.1553 47.8447 0.5 31 0.5V1ZM61 31H60.5C60.5 47.2924 47.2924 60.5 31 60.5V61V61.5C47.8447 61.5 61.5 47.8447 61.5 31H61ZM31 61V60.5C14.7076 60.5 1.5 47.2924 1.5 31H1H0.5C0.5 47.8447 14.1553 61.5 31 61.5V61ZM1 31H1.5C1.5 14.7076 14.7076 1.5 31 1.5V1V0.5C14.1553 0.5 0.5 14.1553 0.5 31H1Z" fill="#E8E7E0"/>
</svg>
