<svg width="62" height="62" viewBox="0 0 62 62" fill="none" xmlns="http://www.w3.org/2000/svg">
<path d="M19.6416 38.8506L19.6064 38.835L19.5713 38.8105C19.2018 38.5601 18.9121 38.3053 18.792 38.0195C18.7217 37.8522 18.7008 37.6517 18.7842 37.4551C18.8613 37.2733 18.9989 37.1635 19.1035 37.1016C19.3015 36.9846 19.5388 36.9446 19.6738 36.9277C19.7512 36.9181 19.8199 36.9135 19.8691 36.9111C19.894 36.9099 19.9146 36.9095 19.9297 36.9092H19.957H19.958H19.9746L19.9902 36.9102C20.958 36.9741 21.6805 37.4684 22.1445 37.917C22.3782 38.1429 22.5546 38.3645 22.6729 38.5303C22.7321 38.6133 22.7771 38.6836 22.8086 38.7344C22.8243 38.7597 22.8369 38.7807 22.8457 38.7959C22.8501 38.8034 22.8538 38.8097 22.8564 38.8145C22.8578 38.8168 22.8595 38.8187 22.8604 38.8203V38.8213C23.4928 39.9019 24.2804 40.251 24.9912 40.3164C25.6114 40.3734 26.2092 40.2144 26.6387 40.0469C26.7414 39.487 26.9246 39.0086 27.1553 38.6172C25.6164 38.3737 24.0477 37.8833 22.7959 36.8223C21.2783 35.5359 20.3066 33.4832 20.3066 30.2773C20.3066 28.4997 20.9109 27.0161 21.8828 25.8418C21.6575 25.1207 21.3443 23.5176 22.1436 21.4932L22.2314 21.2725L22.458 21.2002L22.6094 21.6768C22.4669 21.226 22.4589 21.2017 22.459 21.2002H22.46L22.4619 21.1992C22.4633 21.1988 22.4652 21.1977 22.4668 21.1973C22.47 21.1963 22.4736 21.1954 22.4775 21.1943C22.4854 21.1921 22.4952 21.1901 22.5059 21.1875C22.527 21.1823 22.5538 21.1766 22.5859 21.1709C22.6506 21.1594 22.7375 21.1483 22.8467 21.1436C23.0655 21.1341 23.372 21.1502 23.7705 21.2354C24.5345 21.3985 25.6309 21.8171 27.0996 22.7939C28.3782 22.4676 29.6925 22.3003 31.0127 22.2988H31.0137C32.332 22.2989 33.673 22.4728 34.9258 22.7939C36.3949 21.8168 37.4917 21.3985 38.2559 21.2354C38.6544 21.1503 38.9609 21.1342 39.1797 21.1436C39.2888 21.1483 39.3757 21.1594 39.4404 21.1709C39.4728 21.1766 39.5003 21.1823 39.5215 21.1875C39.5319 21.1901 39.5411 21.1922 39.5488 21.1943C39.5527 21.1954 39.5564 21.1963 39.5596 21.1973C39.5612 21.1977 39.563 21.1988 39.5645 21.1992L39.5664 21.2002H39.5674C39.5674 21.2014 39.5617 21.219 39.4727 21.501L39.5684 21.2002L39.7949 21.2725L39.8828 21.4932C40.6807 23.5143 40.3688 25.1151 40.1436 25.8379C41.1409 27.0178 41.7207 28.5042 41.7207 30.2773C41.7207 33.4832 40.748 35.5295 39.2266 36.8125C37.9726 37.8698 36.3993 38.3591 34.8535 38.6104C35.2389 39.2492 35.4902 40.1189 35.4902 41.2285C35.4902 42.312 35.4831 43.2887 35.4766 44.0605C35.47 44.8347 35.4639 45.3968 35.4639 45.6611C35.4639 45.7738 35.5039 45.8606 35.5498 45.9033C35.577 45.9285 35.6671 45.9969 35.9258 45.9502C42.0716 43.8697 46.5 38.0304 46.5 31.1318V31.1309C46.5254 22.4845 39.563 15.5002 31.0137 15.5C22.4385 15.5 15.5002 22.4836 15.5 31.1318C15.5 38.0318 19.9305 43.8714 26.0781 45.9502C26.3339 45.9956 26.4232 45.9283 26.4502 45.9033C26.496 45.8608 26.5361 45.7746 26.5361 45.6621C26.5361 45.4792 26.53 45.0719 26.5234 44.5332C26.5188 44.1588 26.516 43.7244 26.5137 43.2676C24.5084 43.5739 23.1873 43.1081 22.3457 42.4668C21.8932 42.1219 21.5983 41.7417 21.416 41.4443C21.3248 41.2955 21.2617 41.1662 21.2197 41.0713C21.1988 41.024 21.1828 40.9851 21.1719 40.9561C21.1664 40.9415 21.1615 40.9292 21.1582 40.9199L21.1543 40.9082C20.8229 40.0498 20.4209 39.5267 20.1182 39.2246C19.9654 39.0722 19.8356 38.9745 19.75 38.917C19.7072 38.8882 19.6746 38.8695 19.6562 38.8594L19.6416 38.8506ZM19.6416 38.8506L19.6445 38.8525L19.6436 38.8516L19.6416 38.8506Z" fill="white" stroke="white"/>
<path fill-rule="evenodd" clip-rule="evenodd" d="M1 31C1 14.4315 14.4315 1 31 1C47.5685 1 61 14.4315 61 31C61 47.5685 47.5685 61 31 61C14.4315 61 1 47.5685 1 31Z" stroke="#E8E7E0"/>
</svg>
