<svg width="62" height="62" viewBox="0 0 62 62" fill="none" xmlns="http://www.w3.org/2000/svg">
<g clip-path="url(#clip0_165_25688)">
<path d="M31 15.5C35.3412 15.5 35.8757 15.5189 37.5762 15.5996H37.5781C39.2288 15.6724 40.3371 15.9381 41.3008 16.3105C42.2897 16.6932 43.1237 17.2057 43.959 18.041L43.96 18.042C44.7994 18.8756 45.3049 19.7069 45.6748 20.7051L45.6777 20.7129C46.0496 21.6693 46.3149 22.7835 46.3877 24.4346C46.4622 26.1298 46.4814 26.6652 46.4814 31.0059C46.4814 35.347 46.4622 35.8827 46.3877 37.5781C46.3149 39.2286 46.0502 40.3371 45.6777 41.3008C45.2951 42.2898 44.7817 43.1236 43.9463 43.959C43.111 44.7943 42.2771 45.3068 41.2881 45.6895L41.2871 45.6904C40.3308 46.0623 39.2165 46.3275 37.5654 46.4004C35.8702 46.4749 35.3348 46.4941 30.9941 46.4941C26.653 46.4941 26.1173 46.4749 24.4219 46.4004C22.7712 46.3276 21.6629 46.0619 20.6992 45.6895C19.7103 45.3068 18.8763 44.7943 18.041 43.959L18.04 43.958L17.7402 43.6445C17.1705 43.0176 16.7719 42.3796 16.4551 41.6602L16.3037 41.293C15.9784 40.4563 15.7346 39.499 15.6299 38.167L15.5938 37.5713C15.5192 35.8763 15.5 35.3407 15.5 31C15.5 26.6589 15.5192 26.1236 15.5938 24.4219C15.6666 22.7714 15.9313 21.6629 16.3037 20.6992L16.3027 20.6982C16.6924 19.7072 17.2012 18.8749 18.04 18.042L18.042 18.04C18.8756 17.2006 19.7091 16.6935 20.707 16.3037L20.7061 16.3027C21.6625 15.9308 22.7775 15.6666 24.4287 15.5938L24.4277 15.5928C26.1231 15.5183 26.6589 15.5 31 15.5ZM31 17.3809C26.7226 17.3809 26.2075 17.4001 24.5156 17.4756C23.1051 17.5379 22.2368 17.7559 21.6318 17.9688L21.3877 18.0586C20.5802 18.3708 19.9902 18.753 19.3779 19.3652C18.7723 19.9709 18.3837 20.5672 18.0713 21.375C17.8631 21.9103 17.6269 22.6643 17.5234 23.9287L17.4883 24.5029C17.4128 26.1949 17.3936 26.7099 17.3936 30.9873C17.3936 34.1906 17.4043 35.2814 17.4414 36.3428L17.4883 37.4727C17.5595 39.0841 17.8333 39.9877 18.0713 40.5996C18.3835 41.4071 18.7657 41.9971 19.3779 42.6094C19.9835 43.215 20.58 43.6027 21.3877 43.915V43.916C21.9995 44.1539 22.897 44.4288 24.5156 44.5V44.499C26.2075 44.5745 26.7226 44.5937 31 44.5938C35.2713 44.5938 35.7862 44.5745 37.4844 44.499V44.5C39.0964 44.4288 40.0003 44.154 40.6123 43.916L40.6113 43.915C41.419 43.6028 42.0097 43.2217 42.6221 42.6094C43.2278 42.0037 43.6163 41.4075 43.9287 40.5996C44.1666 39.9879 44.4405 39.0906 44.5117 37.4727C44.5872 35.7805 44.6064 35.2651 44.6064 30.9873C44.6064 27.7838 44.5957 26.6933 44.5586 25.6318L44.5117 24.5029C44.4494 23.0922 44.2315 22.2242 44.0186 21.6191L43.9287 21.375C43.6165 20.5676 43.2343 19.9774 42.6221 19.3652C42.0162 18.7594 41.4195 18.371 40.6113 18.0586H40.6123C40.0005 17.8207 39.1029 17.5468 37.4844 17.4756C35.7925 17.4001 35.2774 17.3809 31 17.3809Z" fill="#800080" stroke="white"/>
<path d="M31 23.2812C35.2614 23.2812 38.7187 26.7386 38.7188 31C38.7188 35.2614 35.2614 38.7188 31 38.7188C26.7386 38.7187 23.2812 35.2614 23.2812 31C23.2813 26.7386 26.7386 23.2813 31 23.2812ZM31 25.1689C27.7801 25.1689 25.1689 27.7801 25.1689 31C25.1689 34.2199 27.7801 36.8311 31 36.8311C34.2199 36.8311 36.8311 34.2199 36.8311 31C36.8311 27.7801 34.2199 25.1689 31 25.1689Z" fill="#800080" stroke="white"/>
<path d="M39.5439 21.0376C40.324 21.0377 40.9629 21.6765 40.9629 22.4565C40.9628 23.2417 40.325 23.8754 39.5439 23.8755C38.7587 23.8755 38.1251 23.2376 38.125 22.4565C38.125 21.6712 38.7628 21.0376 39.5439 21.0376Z" fill="#800080" stroke="white"/>
</g>
<path fill-rule="evenodd" clip-rule="evenodd" d="M1 31C1 14.4315 14.4315 1 31 1C47.5685 1 61 14.4315 61 31C61 47.5685 47.5685 61 31 61C14.4315 61 1 47.5685 1 31Z" stroke="#E8E7E0"/>
<defs>
<clipPath id="clip0_165_25688">
<rect width="32" height="32" fill="white" transform="translate(15 15)"/>
</clipPath>
</defs>
</svg>
