<svg width="62" height="62" viewBox="0 0 62 62" fill="none" xmlns="http://www.w3.org/2000/svg">
<path fill-rule="evenodd" clip-rule="evenodd" d="M1 31C1 14.4315 14.4315 1 31 1C47.5685 1 61 14.4315 61 31C61 47.5685 47.5685 61 31 61C14.4315 61 1 47.5685 1 31Z" stroke="#E8E7E0"/>
<path fill-rule="evenodd" clip-rule="evenodd" d="M22.201 25.8472H15.4023V46.2743H22.201V25.8472Z" fill="#0000FF" stroke="white"/>
<path fill-rule="evenodd" clip-rule="evenodd" d="M22.6485 19.5284C22.6043 17.5255 21.1721 16 18.8463 16C16.5205 16 15 17.5255 15 19.5284C15 21.4898 16.4756 23.0592 18.758 23.0592H18.8015C21.1721 23.0592 22.6485 21.4898 22.6485 19.5284Z" fill="#0000FF" stroke="white"/>
<path fill-rule="evenodd" clip-rule="evenodd" d="M46.7202 34.5622C46.7202 28.2879 43.3662 25.3677 38.8924 25.3677C35.2828 25.3677 33.6667 27.3503 32.7643 28.7412V25.8479H25.9648C26.0545 27.7647 25.9648 46.275 25.9648 46.275H32.7643V34.8668C32.7643 34.2563 32.8084 33.6473 32.9882 33.2102C33.4796 31.9906 34.5983 30.7278 36.4766 30.7278C38.9377 30.7278 39.9215 32.6009 39.9215 35.346V46.2745H46.7199L46.7202 34.5622Z" fill="#0000FF" stroke="white"/>
</svg>
