<svg width="62" height="62" viewBox="0 0 62 62" fill="none" xmlns="http://www.w3.org/2000/svg">
<path d="M23.7217 17.2285C28.0238 15.1987 34.0067 14.9814 38.5332 16.4463C42.1187 17.6067 45.1031 20.8002 45.1084 24.6143C45.1145 29.07 42.2234 32.4377 37.9238 33.502C35.3036 34.1504 33.0116 34.8079 31.2432 37.1797C30.6269 38.0063 30.1251 39.0395 29.6504 40.082C29.1679 41.1417 28.7129 42.2125 28.1729 43.1895C27.0961 45.1374 25.7867 46.5282 23.5596 46.5C22.0419 46.4808 20.8778 45.8019 19.9629 44.6895C19.0355 43.5617 18.3703 41.9922 17.9033 40.2383C16.9698 36.7325 16.8679 32.6564 16.8936 30.3926C16.9556 24.9302 18.6171 19.6374 23.7217 17.2285Z" fill="black" stroke="white"/>
<path d="M31 1V1.5C47.2924 1.5 60.5 14.7076 60.5 31H61H61.5C61.5 14.1553 47.8447 0.5 31 0.5V1ZM61 31H60.5C60.5 47.2924 47.2924 60.5 31 60.5V61V61.5C47.8447 61.5 61.5 47.8447 61.5 31H61ZM31 61V60.5C14.7076 60.5 1.5 47.2924 1.5 31H1H0.5C0.5 47.8447 14.1553 61.5 31 61.5V61ZM1 31H1.5C1.5 14.7076 14.7076 1.5 31 1.5V1V0.5C14.1553 0.5 0.5 14.1553 0.5 31H1Z" fill="#E8E7E0"/>
</svg>
