<svg width="62" height="62" viewBox="0 0 62 62" fill="none" xmlns="http://www.w3.org/2000/svg">
<path d="M31.1758 15.5L31.6016 15.5078C35.9635 15.6288 39.3058 17.1459 41.6074 19.9775C42.6921 21.3119 43.5169 22.9068 44.0762 24.7549L42.3477 25.2158C41.8618 23.6457 41.1651 22.2717 40.2529 21.1494C38.1954 18.6182 35.1123 17.3525 31.1738 17.3232H31.166C27.2556 17.3524 24.2183 18.6121 22.2314 21.1377C20.3877 23.4815 19.4698 26.8201 19.4355 30.9961V31.0039C19.4698 35.1798 20.3877 38.5185 22.2314 40.8623C24.2183 43.388 27.2564 44.6478 31.167 44.6768H31.1738C34.6931 44.6509 37.1008 43.8065 39.1045 41.8047C41.4235 39.4877 41.3924 36.6231 40.6357 34.8584C40.1825 33.8011 39.3688 32.9409 38.3066 32.2998L37.6533 31.9062L37.5527 32.6611C37.3203 34.3937 36.7989 35.7279 36.0049 36.7402C34.9695 38.0601 33.4825 38.7972 31.5293 38.9043C30.0507 38.985 28.6467 38.6272 27.5723 37.918C26.3126 37.0863 25.5852 35.8256 25.5068 34.3555C25.4291 32.8973 25.9643 31.6597 26.9658 30.751C27.9758 29.8347 29.4894 29.2295 31.3877 29.1201C32.7645 29.0412 34.0446 29.1036 35.2217 29.3037L35.9121 29.4209L35.7988 28.7295C35.6485 27.8105 35.3585 27.0224 34.9092 26.3994L34.707 26.1426C33.9124 25.2201 32.7158 24.7907 31.248 24.7812H31.2061C30.1272 24.7813 28.6186 25.0591 27.5361 26.3564L26.0557 25.3398C27.2458 23.8045 29.0413 22.957 31.2051 22.957C31.2242 22.957 31.2417 22.9569 31.2588 22.957C33.2391 22.9698 34.7657 23.5914 35.8291 24.6992C36.8978 25.8128 37.5528 27.4747 37.6719 29.668L37.6885 29.9775L37.9736 30.1006L38.375 30.2822C40.2301 31.1723 41.559 32.5048 42.252 34.1201C43.229 36.399 43.3231 40.129 40.334 43.1152C38.0308 45.4162 35.2348 46.4719 31.1758 46.5H31.1641C26.6038 46.4684 23.1638 44.94 20.8594 42.0107C18.7983 39.3907 17.7048 35.7068 17.668 31.0078V30.9922C17.7048 26.2932 18.7983 22.6094 20.8594 19.9893C23.0918 17.1514 26.3901 15.6289 30.7402 15.5078L31.1641 15.5H31.1758ZM32.4795 30.9111C32.1541 30.9111 31.8232 30.921 31.4863 30.9404C29.9846 31.027 28.9099 31.4377 28.2129 32.0576C27.5075 32.6851 27.2309 33.4907 27.2715 34.2549C27.3269 35.2947 27.9262 36.0461 28.7207 36.5039C29.5025 36.9544 30.4907 37.1361 31.4355 37.083C32.336 37.0336 33.3862 36.8296 34.249 36.0186C35.1108 35.2083 35.7028 33.8717 35.873 31.7451L35.9082 31.3105L35.4814 31.2168C34.5589 31.0152 33.5504 30.9111 32.4795 30.9111Z" fill="white" stroke="white"/>
<path fill-rule="evenodd" clip-rule="evenodd" d="M1 31C1 14.4315 14.4315 1 31 1C47.5685 1 61 14.4315 61 31C61 47.5685 47.5685 61 31 61C14.4315 61 1 47.5685 1 31Z" stroke="#E8E7E0"/>
</svg>
