<svg width="62" height="62" viewBox="0 0 62 62" fill="none" xmlns="http://www.w3.org/2000/svg">
<path d="M44.2139 15.5V30.793L34.2207 40.7861H29.6494L24.6426 45.793V40.7861H17.7852V20.9209L23.2061 15.5H44.2139ZM23.6426 34.9287H28.7852V39.6357L33.4922 34.9287H38.0635L42.9277 30.0645V16.7861H23.6426V34.9287Z" fill="#800080" stroke="white"/>
<path d="M38.501 21.7856V27.6431H37.2148V21.7856H38.501Z" fill="#800080" stroke="white"/>
<path d="M32.2158 21.7856V27.6431H30.9297V21.7856H32.2158Z" fill="#800080" stroke="white"/>
<path d="M31 1V1.5C47.2924 1.5 60.5 14.7076 60.5 31H61H61.5C61.5 14.1553 47.8447 0.5 31 0.5V1ZM61 31H60.5C60.5 47.2924 47.2924 60.5 31 60.5V61V61.5C47.8447 61.5 61.5 47.8447 61.5 31H61ZM31 61V60.5C14.7076 60.5 1.5 47.2924 1.5 31H1H0.5C0.5 47.8447 14.1553 61.5 31 61.5V61ZM1 31H1.5C1.5 14.7076 14.7076 1.5 31 1.5V1V0.5C14.1553 0.5 0.5 14.1553 0.5 31H1Z" fill="#E8E7E0"/>
</svg>
