<svg width="62" height="62" viewBox="0 0 62 62" fill="none" xmlns="http://www.w3.org/2000/svg">
<path d="M46.6812 24.5999C46.6812 24.5999 46.3688 22.3937 45.4063 21.4249C44.1875 20.1499 42.825 20.1437 42.2 20.0687C37.725 19.7437 31.0063 19.7437 31.0063 19.7437H30.9937C30.9937 19.7437 24.275 19.7437 19.8 20.0687C19.175 20.1437 17.8125 20.1499 16.5938 21.4249C15.6313 22.3937 15.325 24.5999 15.325 24.5999C15.325 24.5999 15 27.1937 15 29.7812V32.2062C15 34.7937 15.3187 37.3874 15.3187 37.3874C15.3187 37.3874 15.6312 39.5937 16.5875 40.5624C17.8063 41.8374 19.4063 41.7937 20.1188 41.9312C22.6813 42.1749 31 42.2499 31 42.2499C31 42.2499 37.725 42.2374 42.2 41.9187C42.825 41.8437 44.1875 41.8374 45.4063 40.5624C46.3688 39.5937 46.6812 37.3874 46.6812 37.3874C46.6812 37.3874 47 34.7999 47 32.2062V29.7812C47 27.1937 46.6812 24.5999 46.6812 24.5999ZM27.6938 35.1499V26.1562L36.3375 30.6687L27.6938 35.1499Z" fill="#FF5151"/>
<path d="M31 1V1.5C47.2924 1.5 60.5 14.7076 60.5 31H61H61.5C61.5 14.1553 47.8447 0.5 31 0.5V1ZM61 31H60.5C60.5 47.2924 47.2924 60.5 31 60.5V61V61.5C47.8447 61.5 61.5 47.8447 61.5 31H61ZM31 61V60.5C14.7076 60.5 1.5 47.2924 1.5 31H1H0.5C0.5 47.8447 14.1553 61.5 31 61.5V61ZM1 31H1.5C1.5 14.7076 14.7076 1.5 31 1.5V1V0.5C14.1553 0.5 0.5 14.1553 0.5 31H1Z" fill="#E8E7E0"/>
</svg>
